<svg width="576.000000pt" height="275.000000pt" viewBox="0 0 576.000000 275.000000" xmlns="http://www.w3.org/2000/svg">
  <g transform="translate(0.000000,275.000000) scale(0.100000,-0.100000)" fill="#333333" stroke="none">
    <path d="M0 2720 c0 -16 3 -30 8 -30 9 1 62 47 62 55 0 3 -16 5 -35 5 l-35 0
0 -30z" />
    <path d="M1770 1389 l0 -1360 14 -15 15 -14 191 0 192 0 -6 16 c-3 9 -6 18 -6
20 0 2 -12 4 -27 4 l-28 1 18 13 17 13 0 1306 0 1305 -11 4 -10 3 6 17 6 16
20 -5 19 -5 0 21 0 21 -205 0 -205 0 0 -1361z" />
    <path d="M3464 2734 c3 -9 6 -18 6 -20 0 -2 12 -4 28 -4 l27 -1 -17 -13 -18
-13 0 -1266 0 -1265 11 -4 10 -3 -6 -17 -6 -16 -20 5 -20 6 3 -39 3 -39 196
-3 197 -2 6 22 c3 13 6 616 6 1341 l0 1318 -14 15 -15 14 -191 0 -192 0 6 -16z" />
    <path d="M3900 2725 l0 -25 15 0 15 0 0 25 0 25 -15 0 -15 0 0 -25z" />
    <path d="M4460 2735 c0 -8 7 -15 15 -15 8 0 15 7 15 15 0 8 -7 15 -15 15 -8 0
-15 -7 -15 -15z" />
    <path d="M5700 2744 c0 -8 43 -43 53 -44 4 0 7 11 7 25 l0 25 -30 0 c-16 0
-30 -3 -30 -6z" />
    <path d="M1710 2695 l0 -35 15 0 15 0 0 35 0 35 -15 0 -15 0 0 -35z" />
    <path d="M2600 2719 l0 -10 -205 3 -205 3 0 -1347 0 -1348 15 0 15 0 0 40 0
40 215 0 215 0 0 1301 0 1300 -14 15 c-17 17 -36 18 -36 3z" />
    <path d="M2990 1429 l0 -1300 14 -15 c17 -17 36 -18 36 -3 l0 10 205 -3 205
-3 0 1308 0 1307 -230 0 -230 0 0 -1301z" />
    <path d="M3900 135 l0 -35 15 0 15 0 0 35 0 35 -15 0 -15 0 0 -35z" />
    <path d="M4462 63 l3 -28 108 -3 107 -3 0 16 0 15 -95 0 -95 0 0 15 c0 8 -7
15 -16 15 l-15 0 3 -27z" />
    <path d="M5750 78 c0 -7 -16 -24 -35 -38 -19 -14 -35 -28 -35 -32 0 -5 18 -8
40 -8 l40 0 0 45 c0 25 -2 45 -5 45 -3 0 -5 -6 -5 -12z" />
    <path d="M0 40 l0 -40 35 0 c19 0 35 4 35 9 0 9 -57 71 -66 71 -2 0 -4 -18 -4
-40z" />
    <path d="M3910 45 l0 -15 250 0 250 0 0 15 0 15 -250 0 -250 0 0 -15z" />
    <path d="M1710 25 l0 -25 15 0 15 0 0 25 0 25 -15 0 -15 0 0 -25z" />
    <path d="M1150 15 c0 -8 7 -15 15 -15 8 0 15 7 15 15 0 8 -7 15 -15 15 -8 0
-15 -7 -15 -15z" />
  </g>
  <g transform="translate(0.000000,275.000000) scale(0.100000,-0.100000)" fill="#1a1a1a" stroke="none">
    <path d="M950 1381 l0 -1369 16 -6 c9 -3 57 -6 108 -6 l93 0 0 15 c0 8 -6 15
-14 15 -7 0 -13 7 -13 15 0 8 7 15 15 15 l15 0 0 1345 0 1345 -110 0 -110 0 0
-1369z" />
    <path d="M1210 1374 l0 -1374 260 0 260 0 -2 13 c-2 6 -7 15 -13 19 l-10 8 13
0 c6 0 12 8 12 18 l0 19 -22 11 -23 11 23 0 22 1 0 1325 -1 1326 -259 -1 -260
-1 0 -1375z m37 -581 c-1 -345 -2 -65 -2 622 0 688 1 970 2 628 2 -342 2 -904
0 -1250z m0 -710 l-5 -18 0 30 c0 17 2 24 5 18 2 -7 2 -21 0 -30z" />
    <path d="M3913 2738 c1 -7 7 -16 12 -20 l10 -8 -12 0 c-7 0 -13 -8 -13 -18 l0
-19 23 -11 22 -11 -23 0 -22 -1 0 -1300 1 -1300 227 -1 c125 0 239 -2 254 -4
l26 -3 6 21 c3 12 6 622 6 1355 l0 1332 -260 0 -260 0 3 -12z m484 -95 l-5
-18 0 30 c0 17 2 24 5 18 2 -7 2 -21 0 -30z m0 -1876 c-1 -331 -2 -58 -2 608
0 666 1 936 2 602 2 -335 2 -879 0 -1210z" />
    <path d="M4473 2735 c0 -8 6 -15 14 -15 7 0 13 -7 13 -15 0 -8 -7 -15 -15 -15
l-15 0 2 -1317 3 -1318 103 -3 102 -3 -2 1348 -3 1348 -101 3 -101 3 0 -16z" />
  </g>
  <g transform="translate(0.000000,275.000000) scale(0.100000,-0.100000)" fill="#4c4c4c" stroke="none">
    <path d="M35 2726 l-28 -24 7 -11 c10 -16 36 -14 42 3 l6 15 51 6 c59 7 50 6
253 5 l152 -1 6 -31 c3 -17 6 -619 6 -1339 l0 -1309 -72 0 c-40 -1 -141 -1
-224 -2 l-152 -1 -19 14 c-11 8 -25 29 -31 47 l-11 33 -1 437 c0 240 0 442 1
447 3 18 -2 468 -6 538 -2 37 -1 67 3 67 4 0 6 237 5 527 l-2 528 -11 3 -10 4
0 -1306 0 -1307 15 -5 c8 -4 15 -13 15 -20 0 -8 7 -17 15 -20 8 -4 12 -10 9
-15 l-5 -9 455 0 456 0 0 1375 0 1375 -448 0 -449 0 -28 -24z" />
    <path d="M1167 2743 c-4 -3 -7 -12 -7 -20 l0 -13 20 0 20 0 0 -1335 0 -1336
-17 -7 c-10 -4 -19 -13 -21 -19 l-2 -13 32 0 33 0 -2 1347 c-2 742 -3 1360 -3
1376 l0 27 -23 0 c-13 0 -27 -3 -30 -7z" />
    <path d="M1720 2730 c6 -11 15 -20 20 -20 4 0 15 -3 24 -6 l16 -6 0 26 0 26
-35 0 -36 0 11 -20z" />
    <path d="M2170 2736 l0 -14 -20 5 -20 5 0 -16 c0 -9 7 -16 15 -16 l15 0 0
-1344 0 -1345 18 -4 c9 -2 806 -3 1769 -3 l1753 1 26 26 26 27 -6 11 c-10 16
-36 14 -42 -3 l-6 -15 -51 -6 c-59 -7 -50 -6 -253 -5 l-152 1 -6 31 c-3 17 -6
619 -6 1339 l0 1309 73 0 c39 1 140 1 223 2 l152 1 19 -14 c11 -8 25 -29 31
-47 l11 -33 1 -437 c0 -240 0 -441 -1 -447 -3 -18 2 -468 6 -538 2 -37 1 -67
-3 -67 -4 0 -6 -237 -5 -527 l2 -528 11 -3 10 -4 0 1311 0 1311 -13 0 c-7 0
-17 10 -22 23 l-10 22 -523 3 -524 2 2 -37 c1 -21 2 -631 1 -1355 l-1 -1316
-97 1 -98 2 3 38 3 37 -21 0 -20 0 0 1295 0 1296 18 7 c9 4 18 13 20 20 l2 12
-32 0 -33 0 2 -1330 3 -1329 -10 -25 -9 -25 -242 -1 -241 -1 4 26 c6 29 -8 50
-38 59 l-21 7 -7 -39 -6 -39 -46 -7 c-26 -3 -106 -6 -178 -6 l-132 0 -12 12
c-7 7 -12 22 -12 34 l0 22 20 -5 20 -5 0 16 c0 9 -7 16 -15 16 l-15 0 0 1304
0 1304 -16 6 c-9 3 -303 6 -655 6 l-639 0 0 -14z m468 -1324 l2 -1303 -215 3
-215 3 0 -44 c0 -24 -2 -42 -5 -39 -3 3 -6 601 -5 1329 0 728 0 1329 0 1336 0
6 12 14 28 16 15 2 113 4 217 3 l190 -1 3 -1303z m264 -31 l3 -1339 -59 -6
c-32 -3 -70 -6 -82 -6 l-24 0 0 1345 0 1345 80 0 80 0 2 -1339z m538 40 c0
-712 -3 -1297 -6 -1300 -3 -3 -101 -6 -217 -6 l-212 0 -3 1303 -2 1303 220 -3
221 -3 -1 -1294z m1354 1293 l16 -6 0 -1305 0 -1304 -14 -15 c-8 -8 -27 -14
-41 -14 l-27 0 -5 20 c-3 11 -8 20 -12 20 -5 0 1 2601 7 2608 4 4 61 2 76 -4z" />
    <path d="M3855 1450 l0 -1300 13 0 12 0 0 1285 0 1285 18 0 19 0 0 15 0 15
-31 0 -31 0 0 -1300z" />
    <path d="M1760 1355 l0 -1325 -18 0 -19 0 0 -15 0 -15 31 0 31 0 0 1340 0
1340 -12 0 -13 0 0 -1325z" />
  </g>
  <g transform="translate(0.000000,275.000000) scale(0.100000,-0.100000)" fill="#727272" stroke="none">
    <path d="M31 2726 l-13 -16 17 0 17 0 -12 -15 -12 -15 16 0 c17 0 19 13 7 43
l-7 19 -13 -16z" />
    <path d="M4710 2723 c0 -7 7 -13 15 -13 8 0 15 6 15 13 0 8 -7 14 -15 14 -8 0
-15 -6 -15 -14z" />
    <path d="M4760 1410 l0 -1330 -15 0 c-8 0 -15 -6 -15 -14 l0 -14 18 3 c9 2 23
4 30 4 l12 1 0 1334 0 1334 -15 6 -15 5 0 -1329z" />
    <path d="M5483 2733 l-63 -4 0 -1324 0 -1325 -10 0 c-5 0 -10 -10 -10 -23 l0
-23 41 -2 c22 -2 48 0 57 2 l17 6 -3 1335 -2 1335 20 0 20 0 0 15 c0 8 -1 14
-2 13 -2 -1 -31 -3 -65 -5z" />
    <path d="M5660 2725 c0 -8 7 -15 15 -15 8 0 15 7 15 15 0 8 -7 15 -15 15 -8 0
-15 -7 -15 -15z" />
    <path d="M5712 2729 c2 -7 10 -15 17 -17 l14 -4 -5 13 c-2 7 -10 15 -17 17
l-13 5 4 -14z" />
    <path d="M255 2724 l-10 -4 3 -1335 2 -1335 -20 0 c-11 0 -20 -6 -20 -12 l0
-13 65 3 65 4 0 1324 0 1324 10 0 c6 0 10 10 10 23 l0 23 -47 2 c-27 0 -52 -1
-58 -4z" />
    <path d="M1180 2706 c0 -8 -8 -17 -17 -20 l-16 -7 9 -9 c5 -5 19 -7 32 -4 l22
6 0 24 0 24 -15 0 c-8 0 -15 -6 -15 -14z" />
    <path d="M2134 2698 c3 -13 6 -616 6 -1340 l0 -1318 15 0 15 0 0 1328 c0 730
-4 1332 -8 1337 -4 6 -13 11 -21 13 l-14 3 7 -23z" />
    <path d="M2730 2690 c0 -16 5 -30 10 -30 6 0 10 14 10 30 0 17 -4 30 -10 30
-5 0 -10 -13 -10 -30z" />
    <path d="M3470 1423 c0 -709 4 -1292 8 -1298 4 -5 13 -11 21 -13 l14 -3 -7 23
c-3 13 -6 598 -6 1301 l0 1277 -15 0 -15 0 0 -1287z" />
    <path d="M5751 2694 l1 -19 5 13 c3 7 2 16 -1 19 -3 4 -6 -2 -5 -13z" />
    <path d="M0 2685 c0 -8 5 -15 10 -15 6 0 10 7 10 15 0 8 -4 15 -10 15 -5 0
-10 -7 -10 -15z" />
    <path d="M1740 2685 c0 -8 7 -15 15 -15 8 0 15 7 15 15 0 8 -7 15 -15 15 -8 0
-15 -7 -15 -15z" />
    <path d="M3870 2685 c0 -8 7 -15 15 -15 8 0 15 7 15 15 0 8 -7 15 -15 15 -8 0
-15 -7 -15 -15z" />
    <path d="M4460 2684 c0 -9 5 -14 12 -12 18 6 21 28 4 28 -9 0 -16 -7 -16 -16z" />
    <path d="M4448 163 l-18 -4 0 -25 0 -24 15 0 c8 0 15 6 15 14 0 8 7 17 16 20
8 3 12 10 9 16 -6 10 -9 11 -37 3z" />
    <path d="M3870 145 c0 -8 7 -15 15 -15 8 0 15 7 15 15 0 8 -7 15 -15 15 -8 0
-15 -7 -15 -15z" />
    <path d="M2730 70 c0 -11 5 -20 10 -20 6 0 10 9 10 20 0 11 -4 20 -10 20 -5 0
-10 -9 -10 -20z" />
    <path d="M5740 75 c0 -8 5 -15 10 -15 6 0 10 7 10 15 0 8 -4 15 -10 15 -5 0
-10 -7 -10 -15z" />
    <path d="M1157 73 c-12 -11 -8 -23 8 -23 8 0 15 7 15 15 0 16 -12 20 -23 8z" />
    <path d="M1740 65 c0 -8 7 -15 15 -15 8 0 15 7 15 15 0 8 -7 15 -15 15 -8 0
-15 -7 -15 -15z" />
    <path d="M5700 64 l0 -16 15 12 c8 7 15 14 15 16 0 2 -7 4 -15 4 -8 0 -15 -7
-15 -16z" />
    <path d="M30 35 c7 -9 15 -13 17 -11 7 7 -7 26 -19 26 l-10 0 12 -15z" />
    <path d="M70 35 c0 -8 7 -15 15 -15 8 0 15 7 15 15 0 8 -7 15 -15 15 -8 0 -15
-7 -15 -15z" />
  </g>
  <g transform="translate(0.000000,275.000000) scale(0.100000,-0.100000)" fill="#515151" stroke="none">
    <path d="M41 2731 l-21 -19 26 -6 c29 -8 39 -3 29 13 -3 6 -11 8 -17 5 l-11
-7 6 11 c9 13 43 8 40 -7 -2 -6 4 -11 13 -11 l16 0 -6 16 c-3 9 -6 18 -6 20 0
2 -11 4 -23 4 -13 0 -34 -8 -46 -19z" />
    <path d="M427 2743 c18 -2 50 -2 70 0 21 2 7 4 -32 4 -38 0 -55 -2 -38 -4z" />
    <path d="M571 2745 c3 -2 85 -5 182 -5 l177 -2 0 -17 c0 -9 7 -26 15 -37 l14
-19 1 23 0 23 -10 -6 -10 -6 0 25 0 26 -187 0 c-102 0 -184 -2 -182 -5z" />
    <path d="M1160 2734 l0 -16 14 11 14 12 6 -9 c3 -5 -6 -14 -21 -21 l-26 -12
12 -12 12 -12 10 18 c6 9 14 15 18 12 5 -2 11 4 14 15 3 11 1 18 -3 15 -5 -3
-11 -1 -15 5 -10 16 -35 12 -35 -6z" />
    <path d="M1743 2737 l6 -16 -13 5 -13 5 0 -16 0 -15 18 0 18 0 3 -20 3 -19 13
8 14 8 -16 31 c-9 17 -21 34 -28 38 l-11 7 6 -16z" />
    <path d="M2185 2710 c1 -25 4 -47 5 -50 1 -3 5 11 9 30 l6 35 23 -1 23 -1 -11
11 -10 10 -20 -11 -19 -12 -4 17 c-2 9 -3 -3 -2 -28z" />
    <path d="M2650 2740 c0 -7 3 -10 7 -7 3 4 3 10 0 14 -4 3 -7 0 -7 -7z" />
    <path d="M2680 2730 c0 -11 5 -20 10 -20 6 0 10 9 10 20 0 11 -4 20 -10 20 -5
0 -10 -9 -10 -20z" />
    <path d="M3431 2743 l16 -4 -5 -57 -4 -57 10 10 c5 6 12 34 14 63 l5 52 -26
-1 -26 -1 16 -5z" />
    <path d="M3871 2733 l-1 -23 19 0 c11 0 23 5 26 10 l6 10 -20 0 c-10 0 -22 6
-24 13 -3 6 -6 2 -6 -10z" />
    <path d="M3898 2743 c7 -3 16 -2 19 1 4 3 -2 6 -13 5 l-19 -1 13 -5z" />
    <path d="M4670 2732 l0 -14 15 12 c9 7 19 9 23 5 4 -4 1 -10 -5 -12 -7 -3 -13
-9 -13 -14 0 -6 5 -7 12 -3 l11 7 -7 -12 c-5 -7 -14 -10 -22 -7 l-14 5 0 -25
0 -25 24 18 c14 10 27 25 29 34 6 23 -9 44 -33 45 l-20 1 0 -15z" />
    <path d="M4743 2743 c-20 -7 -15 -23 7 -23 11 0 20 4 20 9 0 13 -12 19 -27 14z" />
    <path d="M4865 2740 c-3 -5 -12 -7 -20 -3 -8 3 -15 3 -15 0 0 -13 30 -14 40
-1 7 8 10 14 7 14 -3 0 -8 -4 -12 -10z" />
    <path d="M4903 2734 c0 -7 3 -13 6 -12 3 0 75 0 158 -1 l153 -1 0 -1319 0
-1319 -12 -5 -13 -5 18 -1 c19 -1 24 -21 5 -21 l-13 0 15 -10 c8 -5 52 -10 98
-10 l82 0 0 10 0 10 -65 0 -65 0 0 1329 0 1329 16 6 c9 3 25 6 36 6 12 0 18 3
15 6 -3 4 -99 6 -213 5 l-206 -2 6 9 c3 5 -1 9 -8 9 -7 0 -13 -6 -13 -13z" />
    <path d="M5395 2743 c-11 -3 -24 -9 -29 -14 l-10 -9 33 0 32 0 -6 9 -5 10 32
4 33 4 -30 0 c-16 0 -39 -1 -50 -4z" />
    <path d="M5620 2735 l-12 -15 25 0 26 0 -5 15 c-4 8 -10 15 -14 15 -4 0 -13
-7 -20 -15z" />
    <path d="M5683 2742 c-17 -11 -2 -29 30 -37 l27 -7 0 15 0 14 -22 -1 -23 -1 3
13 c2 14 1 14 -15 4z" />
    <path d="M185 2730 c-8 -13 58 -20 110 -11 l50 9 -30 1 c-16 1 -51 3 -78 5
-26 2 -49 0 -52 -4z" />
    <path d="M5540 2730 c0 -5 9 -10 21 -10 l20 0 -6 10 c-3 6 -13 10 -21 10 -8 0
-14 -4 -14 -10z" />
    <path d="M360 2720 l0 -10 65 0 65 0 0 -1329 0 -1329 -16 -6 c-9 -3 -25 -6
-36 -6 -12 0 -18 -3 -15 -6 3 -4 99 -6 213 -5 l206 2 -6 -9 c-3 -5 1 -9 8 -9
7 0 13 6 13 13 0 7 -3 13 -6 12 -3 0 -75 0 -158 1 l-153 1 0 1319 0 1319 12 5
13 5 -17 1 c-20 1 -25 21 -5 21 l12 0 -15 10 c-8 5 -52 10 -97 10 l-83 0 0
-10z" />
    <path d="M575 2720 c-3 -5 -1 -10 4 -10 6 0 11 5 11 10 0 6 -2 10 -4 10 -3 0
-8 -4 -11 -10z" />
    <path d="M2730 2719 l0 -11 141 5 c77 3 143 8 147 11 3 3 -61 6 -141 6 l-147
0 0 -11z" />
    <path d="M3123 2723 c53 -2 141 -2 195 0 53 1 9 3 -98 3 -107 0 -151 -2 -97
-3z" />
    <path d="M4450 2720 c0 -5 7 -10 15 -10 8 0 15 5 15 10 0 6 -7 10 -15 10 -8 0
-15 -4 -15 -10z" />
    <path d="M4788 1397 c-2 -733 -2 -1334 -1 -1336 1 -2 9 4 18 12 l15 16 0 1314
0 1315 -15 6 -15 5 -2 -1332z" />
    <path d="M910 2700 c0 -7 3 -10 7 -7 3 4 3 10 0 14 -4 3 -7 0 -7 -7z" />
    <path d="M10 2683 c-1 -5 -2 -231 -3 -505 -1 -273 1 -494 5 -491 5 2 8 -1 8
-6 0 -6 -5 -11 -10 -11 l-11 0 12 -21 11 -21 -10 6 -9 6 3 -258 c3 -141 6
-272 9 -290 l4 -32 -10 5 -9 6 0 -21 0 -21 12 7 11 7 -7 -12 c-4 -6 -7 -215
-7 -464 l1 -452 10 -3 10 -4 0 1267 0 1266 -10 -6 -10 -6 0 15 c0 9 5 15 12
14 6 -2 14 5 16 15 l3 17 -15 0 c-9 0 -16 -3 -16 -7z" />
    <path d="M2660 2680 c0 -7 3 -10 7 -7 3 4 3 10 0 14 -4 3 -7 0 -7 -7z" />
    <path d="M2900 2661 l0 -32 10 6 c10 6 8 40 -3 51 -4 4 -7 -7 -7 -25z" />
    <path d="M5740 2680 l-15 -10 15 -10 15 -9 3 9 c2 6 2 14 0 20 l-3 9 -15 -9z" />
    <path d="M4700 2653 c0 -4 -1 -596 -2 -1316 -2 -719 0 -1307 5 -1307 4 0 5 11
1 24 l-6 24 11 6 11 7 0 1279 0 1279 -10 6 c-5 3 -10 3 -10 -2z" />
    <path d="M5730 1385 l0 -1266 10 6 10 6 0 -15 c0 -9 -5 -15 -12 -14 -6 2 -14
-5 -16 -15 l-4 -19 17 4 17 3 1 502 c1 275 -1 499 -5 496 -5 -2 -8 1 -8 6 0 6
5 11 10 11 l11 0 -12 21 -11 21 10 -6 9 -6 -3 258 c-3 141 -6 272 -9 290 l-4
32 10 -5 9 -6 0 21 0 21 -12 -7 -11 -7 7 12 c4 6 7 215 7 464 l-1 452 -10 3
-10 4 0 -1267z" />
    <path d="M4670 2604 l0 -15 10 6 c6 4 8 11 5 16 -9 14 -15 11 -15 -7z" />
    <path d="M2726 192 c-6 -10 -2 -39 7 -48 4 -4 7 7 7 24 0 32 -4 39 -14 24z" />
    <path d="M3438 138 l-3 -33 -23 1 -23 1 11 -11 10 -10 20 12 20 12 0 -14 c0
-8 4 -18 10 -21 l10 -6 -9 24 c-5 14 -7 34 -4 45 2 11 0 23 -5 26 l-11 6 -3
-32z" />
    <path d="M3862 161 l-14 -8 16 -31 c9 -17 21 -34 28 -38 l11 -7 -6 16 -6 16
13 -5 13 -5 0 16 0 15 -18 0 -18 0 -3 20 -3 19 -13 -8z" />
    <path d="M945 151 c-3 -5 -1 -12 5 -16 l10 -6 0 15 c0 18 -6 21 -15 7z" />
    <path d="M2970 150 c0 -7 3 -10 7 -7 3 4 3 10 0 14 -4 3 -7 0 -7 -7z" />
    <path d="M4670 140 l0 -24 12 12 12 12 -12 12 -12 12 0 -24z" />
    <path d="M4456 134 c-3 -8 -10 -13 -15 -10 -5 3 -11 -3 -14 -14 -3 -11 -1 -18
3 -15 5 3 11 1 15 -5 10 -16 35 -12 35 6 l0 16 -14 -11 -14 -12 -6 9 c-3 5 6
14 20 21 14 6 22 16 19 21 -9 15 -22 12 -29 -6z" />
    <path d="M930 110 c0 -7 3 -10 7 -7 3 4 3 10 0 14 -4 3 -7 0 -7 -7z" />
    <path d="M2185 108 c-2 -7 -5 -34 -8 -61 l-5 -47 346 0 c189 1 342 4 338 7 -4
4 -30 6 -59 4 -28 -1 -50 0 -47 3 3 2 29 6 58 7 77 4 75 19 -2 19 l-66 0 0 11
c0 5 -4 7 -10 4 l-10 -6 -1 18 -1 18 -4 -12 c-3 -7 0 -22 6 -33 l12 -22 -21 7
c-12 3 -21 3 -21 -2 0 -4 -112 -8 -248 -8 l-248 0 4 53 c3 28 2 52 -2 52 -4 0
-8 -6 -11 -12z" />
    <path d="M2628 108 c-6 -3 17 -8 50 -10 l62 -3 0 10 0 10 -51 0 c-28 0 -56 -3
-61 -7z" />
    <path d="M2940 100 c0 -11 5 -20 10 -20 6 0 10 9 10 20 0 11 -4 20 -10 20 -5
0 -10 -9 -10 -20z" />
    <path d="M0 90 l0 -19 15 5 c8 4 15 10 15 14 0 4 -7 10 -15 14 l-15 5 0 -19z" />
    <path d="M2323 103 c53 -2 141 -2 195 0 53 1 9 3 -98 3 -107 0 -151 -2 -97 -3z" />
    <path d="M940 85 l-14 -17 15 -8 14 -9 3 14 c2 9 2 20 0 26 l-4 11 -14 -17z" />
    <path d="M2980 90 c0 -7 3 -10 7 -7 3 4 3 10 0 14 -4 3 -7 0 -7 -7z" />
    <path d="M3866 72 c-3 -5 1 -9 9 -9 8 0 12 4 9 9 -3 4 -7 8 -9 8 -2 0 -6 -4
-9 -8z" />
    <path d="M3907 74 c-3 -3 -3 -13 0 -22 l6 -15 -21 5 c-12 4 -24 3 -26 -1 -3
-4 9 -8 25 -9 l29 -2 0 25 c0 26 -2 29 -13 19z" />
    <path d="M4438 63 c7 -3 16 -2 19 1 4 3 -2 6 -13 5 l-19 -1 13 -5z" />
    <path d="M4716 62 c-3 -5 1 -9 9 -9 8 0 15 4 15 9 0 10 -17 10 -24 0z" />
    <path d="M4750 56 c0 -8 -8 -17 -17 -19 l-18 -5 25 -1 26 -1 0 20 c0 11 -4 20
-8 20 -4 0 -8 -6 -8 -14z" />
    <path d="M4840 60 c0 -7 3 -10 7 -7 3 4 3 10 0 14 -4 3 -7 0 -7 -7z" />
    <path d="M20 54 c1 -15 46 -43 58 -35 16 10 1 28 -31 36 l-27 7 0 -8z m41 -21
l14 -18 -17 14 c-17 13 -22 21 -14 21 2 0 10 -8 17 -17z" />
    <path d="M5682 48 c3 -7 14 -12 26 -11 35 1 38 4 17 13 -29 13 -47 12 -43 -2z" />
    <path d="M930 41 l0 -13 -14 5 -14 6 -19 -22 -18 -22 20 16 c11 9 25 14 32 12
13 -5 28 15 19 24 -3 4 -6 1 -6 -6z" />
    <path d="M3450 39 c0 -6 6 -9 13 -8 6 1 86 1 176 0 l163 -1 -6 -15 -5 -15 342
2 c188 0 328 3 310 5 -17 2 -34 11 -37 19 l-6 15 12 -7 c6 -4 24 -8 40 -9 l28
-3 0 12 0 11 -43 0 -42 -1 1 -17 c1 -9 -2 -14 -7 -11 -5 3 -9 13 -10 22 l0 17
-9 -23 -10 -23 -261 1 -261 1 5 20 5 19 -14 0 -13 0 5 -14 c3 -8 1 -17 -5 -21
l-11 -6 -1 13 c-1 7 -1 17 0 21 1 4 -80 7 -179 7 l-180 -2 0 -9z" />
    <path d="M4630 40 c0 -7 3 -10 7 -7 3 4 3 10 0 14 -4 3 -7 0 -7 -7z" />
    <path d="M4666 41 c-4 -7 -5 -15 -2 -18 9 -9 19 4 14 18 l-4 13 -8 -13z" />
    <path d="M5170 39 c0 -5 5 -7 10 -4 6 3 10 8 10 11 0 2 -4 4 -10 4 -5 0 -10
-5 -10 -11z" />
    <path d="M5455 40 l-40 -7 30 -2 c17 -1 51 -3 78 -5 54 -4 72 8 26 18 -34 7
-35 7 -94 -4z" />
    <path d="M5644 34 c3 -9 6 -20 6 -25 0 -10 33 -12 43 -2 10 9 -23 43 -41 43
l-14 0 6 -16z m31 -4 c3 -5 4 -10 1 -10 -3 0 -8 5 -11 10 -3 6 -4 10 -1 10 3
0 8 -4 11 -10z" />
    <path d="M106 25 c8 -19 18 -19 34 0 l12 15 -25 0 -26 0 5 -15z" />
    <path d="M185 30 c3 -5 13 -10 21 -10 8 0 14 5 14 10 0 6 -9 10 -21 10 l-20 0
6 -10z" />
    <path d="M345 31 c3 -5 -7 -12 -22 -14 -16 -2 -8 -3 17 -1 24 2 49 9 54 14
l10 10 -33 0 -32 0 6 -9z" />
    <path d="M1160 30 c0 -5 7 -10 15 -10 8 0 15 5 15 10 0 6 -7 10 -15 10 -8 0
-15 -4 -15 -10z" />
    <path d="M1725 30 l-6 -10 20 0 c10 0 22 -6 24 -12 3 -7 6 -3 6 10 l1 22 -19
0 c-11 0 -23 -4 -26 -10z" />
    <path d="M3945 30 c3 -5 8 -10 11 -10 3 0 2 5 -1 10 -3 6 -8 10 -11 10 -3 0
-2 -4 1 -10z" />
    <path d="M4500 30 c0 -5 5 -10 10 -10 6 0 10 5 10 10 0 6 -4 10 -10 10 -5 0
-10 -4 -10 -10z" />
    <path d="M4600 30 c0 -7 3 -10 7 -7 3 4 3 10 0 14 -4 3 -7 0 -7 -7z" />
    <path d="M936 15 l-18 -14 21 2 c11 1 21 7 21 14 0 16 0 16 -24 -2z" />
    <path d="M2876 15 l-5 -15 14 0 c8 0 15 7 15 15 0 19 -16 19 -24 0z" />
    <path d="M4820 20 c-14 -4 -90 -8 -169 -9 -80 -1 -147 -4 -150 -6 -2 -3 192
-5 433 -5 l437 0 -5 9 -6 9 -251 1 c-138 1 -254 3 -258 5 -3 2 -17 0 -31 -4z" />
    <path d="M2910 11 l0 -11 293 0 292 0 -13 9 c-7 4 -139 9 -293 10 l-279 2 0
-10z" />
    <path d="M5415 10 l-6 -10 16 0 16 0 -6 10 c-3 6 -8 10 -10 10 -2 0 -7 -4 -10
-10z" />
    <path d="M183 3 c9 -2 25 -2 35 0 9 3 1 5 -18 5 -19 0 -27 -2 -17 -5z" />
    <path d="M1728 3 c7 -3 16 -2 19 1 4 3 -2 6 -13 5 l-19 -1 13 -5z" />
  </g>
  <g transform="translate(0.000000,275.000000) scale(0.100000,-0.100000)" fill="#7b7b7b" stroke="none">
    <path d="M205 2724 l-10 -4 3 -1332 2 -1332 -12 -7 c-21 -13 -2 -21 36 -14
l36 7 0 1323 0 1323 13 5 12 5 -20 1 -20 1 15 10 15 10 -17 0 c-9 0 -22 2 -30
4 -7 3 -17 3 -23 0z" />
    <path d="M4437 2723 c-4 -3 -7 -591 -7 -1305 l0 -1298 13 2 c6 2 15 11 19 21
4 10 11 16 15 14 5 -3 7 553 5 1236 l-2 1241 -13 8 -12 8 17 0 17 0 -2 19 c0
11 -6 19 -11 18 -6 -1 -12 8 -14 21 -3 22 -13 28 -25 15z" />
    <path d="M4750 2720 c0 -5 5 -10 10 -10 6 0 10 5 10 10 0 6 -4 10 -10 10 -5 0
-10 -4 -10 -10z" />
    <path d="M5523 2723 l-23 -4 0 -1325 0 -1324 -12 -1 c-7 0 -4 -4 7 -9 l20 -9
-15 -1 c-8 -1 -2 -6 13 -10 16 -5 34 -7 40 -4 l12 4 -3 1335 -2 1335 10 0 c5
0 10 5 10 10 0 10 -16 11 -57 3z" />
    <path d="M5680 2715 c0 -8 7 -15 15 -15 8 0 15 4 15 9 0 5 -7 11 -15 15 l-15
5 0 -14z" />
    <path d="M3870 1432 l0 -1289 15 0 15 0 0 1289 0 1288 -15 0 -15 0 0 -1288z" />
    <path d="M1176 2687 c-2 -10 -8 -17 -13 -14 l-8 5 3 -1281 2 -1281 13 -8 12
-8 -17 0 -17 0 2 -19 c0 -11 6 -19 11 -18 6 1 12 -8 14 -21 l4 -23 11 4 12 4
3 1340 2 1340 -14 0 c-8 0 -17 -9 -20 -20z" />
    <path d="M2147 2703 c-11 -11 -8 -20 8 -20 8 0 15 6 15 14 0 14 -12 17 -23 6z" />
    <path d="M2739 2708 c-7 -13 -8 -216 -7 -1338 0 -707 0 -1297 0 -1313 -1 -15
3 -27 8 -27 l10 0 0 1340 c0 737 -2 1340 -5 1340 -3 0 -6 -1 -6 -2z" />
    <path d="M5746 2685 l6 -15 -16 6 -16 6 0 -16 c0 -19 11 -21 28 -4 14 14 16
38 2 38 -5 0 -7 -7 -4 -15z" />
    <path d="M1740 1358 l0 -1328 15 0 15 0 0 1328 0 1329 -15 0 -15 0 0 -1329z" />
    <path d="M20 2655 c0 -8 5 -15 10 -15 6 0 10 7 10 15 0 8 -4 15 -10 15 -5 0
-10 -7 -10 -15z" />
    <path d="M3470 133 c0 -8 5 -13 12 -11 18 6 21 25 3 25 -8 0 -15 -7 -15 -14z" />
    <path d="M5720 105 c0 -8 5 -15 10 -15 6 0 10 7 10 15 0 8 -4 15 -10 15 -5 0
-10 -7 -10 -15z" />
    <path d="M10 95 l-13 -16 12 -12 12 -12 -7 18 -6 17 16 -6 16 -6 0 16 c0 20
-14 21 -30 1z" />
    <path d="M4720 70 c0 -5 4 -10 9 -10 6 0 13 5 16 10 l6 10 -15 0 c-9 0 -16 -4
-16 -10z" />
    <path d="M5733 56 l0 -14 14 5 c7 3 13 9 13 14 0 5 -6 9 -13 9 -8 0 -14 -6
-14 -14z" />
    <path d="M50 51 c0 -5 7 -11 15 -15 l15 -5 0 14 c0 8 -7 15 -15 15 -8 0 -15
-4 -15 -9z" />
  </g>
  <g transform="translate(0.000000,275.000000) scale(0.100000,-0.100000)" fill="#5a5a5a" stroke="none">
    <path d="M68 2743 c7 -3 16 -2 19 1 4 3 -2 6 -13 5 l-19 -1 13 -5z" />
    <path d="M103 2733 l1 -23 58 0 c31 0 60 5 63 10 l6 10 -60 0 -59 0 -5 13 c-3
6 -4 2 -4 -10z" />
    <path d="M1185 2740 c3 -5 8 -10 11 -10 3 0 2 5 -1 10 -3 6 -8 10 -11 10 -3 0
-2 -4 1 -10z" />
    <path d="M1734 2726 l0 -24 18 -11 18 -11 0 15 c0 8 -4 15 -10 15 -5 0 -9 3
-9 8 3 17 -2 32 -9 32 -4 0 -8 -11 -8 -24z" />
    <path d="M4424 2738 l-7 -11 11 7 c12 7 16 16 8 16 -3 0 -8 -5 -12 -12z" />
    <path d="M4726 2735 c4 -8 11 -15 16 -15 l10 0 -12 15 c-7 8 -14 15 -16 15 -2
0 -1 -7 2 -15z" />
    <path d="M5660 2743 c0 -7 5 -13 11 -13 5 0 7 -4 4 -10 -3 -5 -2 -10 4 -10 5
0 16 -6 24 -14 l14 -15 22 6 c28 7 21 29 -9 25 l-23 -2 13 15 12 15 -10 0 c-5
0 -13 -7 -16 -16 l-6 -16 -20 23 -19 24 -1 -12z" />
    <path d="M350 2720 c0 -5 7 -10 16 -10 l15 0 -6 10 c-3 6 -10 10 -16 10 -5 0
-9 -4 -9 -10z" />
    <path d="M1160 2715 c0 -8 7 -15 15 -15 8 0 15 4 15 9 0 5 -7 11 -15 15 l-15
5 0 -14z" />
    <path d="M3885 2720 l-6 -10 16 0 16 0 -6 10 c-3 6 -8 10 -10 10 -2 0 -7 -4
-10 -10z" />
    <path d="M4436 2722 c-2 -4 4 -9 15 -9 l19 -2 -5 10 c-7 11 -22 12 -29 1z" />
    <path d="M4778 1395 l-3 -1335 10 3 10 4 3 1331 2 1332 -10 0 -10 0 -2 -1335z" />
    <path d="M5273 2722 l-13 -8 -2 -1337 -3 -1337 43 0 42 0 0 1345 0 1345 -27 0
c-16 0 -34 -4 -40 -8z" />
    <path d="M420 1375 l0 -1345 28 0 c15 0 33 4 39 8 l13 8 2 1337 3 1337 -42 0
-43 0 0 -1345z" />
    <path d="M1201 2704 l1 -19 5 13 c3 7 2 16 -1 19 -3 4 -6 -2 -5 -13z" />
    <path d="M2900 2704 l0 -15 10 6 c6 4 8 11 5 16 -9 14 -15 11 -15 -7z" />
    <path d="M5 2700 c-5 -8 24 -30 39 -30 13 0 5 16 -14 27 l-19 13 -6 -10z" />
    <path d="M4702 2691 l-13 -8 12 -29 13 -29 3 23 c3 12 3 29 1 37 l-3 14 -13
-8z" />
    <path d="M5743 2655 c0 -8 4 -12 9 -9 5 3 6 10 3 15 -9 13 -12 11 -12 -6z" />
    <path d="M15 1651 c-3 -5 -1 -12 5 -16 l10 -6 0 15 c0 18 -6 21 -15 7z" />
    <path d="M19 1538 c-5 -17 -4 -50 3 -54 4 -3 8 9 8 25 0 17 -2 31 -5 31 -3 0
-5 -1 -6 -2z" />
    <path d="M5730 1249 c0 -18 3 -29 7 -25 10 10 11 46 1 52 -4 3 -8 -9 -8 -27z" />
    <path d="M5730 1114 l0 -15 10 6 c6 4 8 11 5 16 -9 14 -15 11 -15 -7z" />
    <path d="M3870 135 c0 -8 5 -15 10 -15 6 0 9 -3 9 -7 -3 -18 2 -33 9 -33 4 0
8 11 8 24 l0 24 -18 11 -18 11 0 -15z" />
    <path d="M4431 124 l1 -19 5 13 c3 7 2 16 -1 19 -3 4 -6 -2 -5 -13z" />
    <path d="M4450 121 c0 -5 7 -11 15 -15 l15 -5 0 14 c0 8 -7 15 -15 15 -8 0
-15 -4 -15 -9z" />
    <path d="M4705 121 c-3 -5 -1 -12 5 -16 l10 -6 0 15 c0 18 -6 21 -15 7z" />
    <path d="M5 111 c-3 -5 -2 -12 3 -15 5 -3 9 1 9 9 0 17 -3 19 -12 6z" />
    <path d="M4445 90 c3 -5 8 -10 11 -10 3 0 2 5 -1 10 -3 6 -8 10 -11 10 -3 0
-2 -4 1 -10z" />
    <path d="M4700 86 c0 -2 7 -9 15 -16 l15 -12 0 16 c0 9 -7 16 -15 16 -8 0 -15
-2 -15 -4z" />
    <path d="M5710 82 c0 -5 11 -14 25 -20 l25 -12 0 10 c0 5 -9 14 -19 20 -24 12
-31 13 -31 2z" />
    <path d="M21 71 c-17 -11 -5 -32 14 -24 l15 5 -6 -16 -6 -16 11 0 c6 0 10 3
10 8 -4 21 3 22 21 1 l19 -24 1 13 c0 6 -5 12 -11 12 -5 0 -8 4 -4 9 3 5 -4
12 -15 16 -11 3 -20 11 -20 16 0 11 -11 11 -29 0z" />
    <path d="M2900 50 c0 -5 -8 -10 -17 -10 l-17 0 10 -10 c14 -14 44 -2 44 16 0
8 -4 14 -10 14 -5 0 -10 -4 -10 -10z" />
    <path d="M5385 40 c3 -5 10 -10 16 -10 5 0 9 5 9 10 0 6 -7 10 -16 10 l-15 0
6 -10z" />
    <path d="M5535 40 l-6 -10 60 0 61 0 0 -10 0 -10 -162 -3 -163 -3 181 -1 180
-2 15 10 14 9 -27 -4 -28 -5 -1 12 c-1 7 -1 15 0 20 2 11 -117 8 -124 -3z" />
    <path d="M5724 38 l-7 -11 11 7 c12 7 16 16 8 16 -3 0 -8 -5 -12 -12z" />
    <path d="M1179 27 l11 -11 10 10 10 10 -22 1 -21 2 12 -12z" />
    <path d="M1735 30 c4 -6 11 -8 16 -5 14 9 11 15 -7 15 l-15 0 6 -10z" />
    <path d="M2727 20 c-7 -26 9 -26 23 0 l11 20 -14 0 c-8 0 -17 -9 -20 -20z" />
    <path d="M1204 8 l-7 -11 11 7 c12 7 16 16 8 16 -3 0 -8 -5 -12 -12z" />
    <path d="M2690 10 c0 -7 3 -10 7 -7 3 4 3 10 0 14 -4 3 -7 0 -7 -7z" />
    <path d="M2849 7 c5 -5 19 -7 32 -5 l24 4 -33 5 -33 6 10 -10z" />
    <path d="M4366 8 c3 -5 10 -6 15 -3 13 9 11 12 -6 12 -8 0 -12 -4 -9 -9z" />
    <path d="M3558 3 c45 -2 119 -2 165 0 45 1 8 3 -83 3 -91 0 -128 -2 -82 -3z" />
    <path d="M3853 3 c4 -3 10 -3 14 0 3 4 0 7 -7 7 -7 0 -10 -3 -7 -7z" />
    <path d="M3923 3 c4 -3 10 -3 14 0 3 4 0 7 -7 7 -7 0 -10 -3 -7 -7z" />
    <path d="M4473 3 c9 -2 23 -2 30 0 6 3 -1 5 -18 5 l-30 0 18 -5z" />
    <path d="M4653 3 c4 -3 10 -3 14 0 3 4 0 7 -7 7 -7 0 -10 -3 -7 -7z" />
    <path d="M4743 3 c4 -3 10 -3 14 0 3 4 0 7 -7 7 -7 0 -10 -3 -7 -7z" />
    <path d="M5263 3 c9 -2 25 -2 35 0 9 3 1 5 -18 5 -19 0 -27 -2 -17 -5z" />
  </g>
  <g transform="translate(0.000000,275.000000) scale(0.100000,-0.100000)" fill="#8c8c8c" stroke="none">
    <path d="M5693 2743 c4 -3 10 -3 14 0 3 4 0 7 -7 7 -7 0 -10 -3 -7 -7z" />
    <path d="M5633 2732 l-33 -3 0 -1344 0 -1343 40 -4 c40 -4 54 3 80 36 l15 19
-27 -6 -27 -7 -1 1274 0 1274 9 4 c5 1 12 15 16 29 l7 26 -24 24 -23 24 -32
-3z" />
    <path d="M68 2715 c-7 -5 -20 -19 -28 -29 l-15 -19 27 6 27 7 1 -1274 0 -1274
-9 -4 c-5 -1 -12 -15 -16 -29 l-7 -26 24 -24 23 -24 33 3 32 3 0 1344 0 1343
-40 4 c-21 2 -45 -1 -52 -7z" />
    <path d="M4725 2721 c-3 -6 -1 -11 4 -11 l11 0 0 -1310 0 -1310 -15 0 -14 0 4
-12 c3 -7 16 -14 30 -14 l25 -2 -2 1331 -3 1332 -17 3 c-9 2 -19 -2 -23 -7z" />
    <path d="M1163 2706 c5 -16 27 -19 27 -3 0 7 -7 14 -15 14 -9 0 -14 -5 -12
-11z" />
    <path d="M3482 2708 c6 -18 28 -21 28 -4 0 9 -7 16 -16 16 -9 0 -14 -5 -12
-12z" />
    <path d="M3890 2706 c0 -9 7 -16 16 -16 17 0 14 22 -4 28 -7 2 -12 -3 -12 -12z" />
    <path d="M1740 2697 c0 -8 6 -14 14 -14 l14 0 -5 14 c-3 7 -9 13 -14 13 -5 0
-9 -6 -9 -13z" />
    <path d="M2130 2693 c0 -7 4 -13 9 -13 5 0 11 6 14 13 l5 14 -14 0 c-8 0 -14
-6 -14 -14z" />
    <path d="M2890 1380 l0 -1330 -75 0 -75 0 0 -10 0 -10 84 0 84 0 4 10 c2 5 2
608 0 1340 l-2 1330 -10 0 -10 0 0 -1330z" />
    <path d="M4446 2685 c-6 -16 13 -55 25 -55 4 0 9 7 13 15 3 8 1 15 -4 15 -6 0
-10 9 -10 20 0 24 -15 27 -24 5z" />
    <path d="M5720 2648 l0 -20 12 4 c16 6 18 35 2 35 l-14 0 0 -19z" />
    <path d="M26 2651 c-4 -7 -5 -15 -2 -18 9 -9 19 4 14 18 l-4 13 -8 -13z" />
    <path d="M3487 137 l-5 -14 14 0 c8 0 14 6 14 14 0 7 -4 13 -9 13 -5 0 -11 -6
-14 -13z" />
    <path d="M3877 133 c7 -17 23 -17 23 0 0 8 -6 14 -14 14 l-14 0 5 -14z" />
    <path d="M4450 128 c0 -8 7 -15 15 -15 18 0 15 19 -3 25 -7 2 -12 -3 -12 -10z" />
    <path d="M19 128 c0 -2 -2 -10 -4 -19 l-3 -16 14 0 c8 0 14 9 14 19 0 10 -4
18 -10 18 -5 0 -10 -1 -11 -2z" />
    <path d="M5720 114 l0 -15 10 6 c6 3 10 10 10 16 0 5 -4 9 -10 9 -5 0 -10 -7
-10 -16z" />
    <path d="M1156 105 c-3 -8 -1 -15 4 -15 6 0 10 -9 10 -20 0 -24 15 -27 24 -5
6 16 -13 55 -25 55 -4 0 -9 -7 -13 -15z" />
    <path d="M1722 48 c6 -18 28 -21 28 -4 0 9 -7 16 -16 16 -9 0 -14 -5 -12 -12z" />
    <path d="M2130 46 c0 -9 7 -16 16 -16 9 0 14 5 12 12 -6 18 -28 21 -28 4z" />
    <path d="M53 15 c0 -8 4 -12 9 -9 5 3 6 10 3 15 -9 13 -12 11 -12 -6z" />
  </g>
  <g transform="translate(0.000000,275.000000) scale(0.100000,-0.100000)" fill="#636363" stroke="none">
    <path d="M74 2715 c-4 -8 -11 -12 -17 -8 l-10 6 7 -11 c10 -16 14 -15 26 8 6
11 8 20 5 20 -3 0 -8 -7 -11 -15z" />
    <path d="M4780 2720 c0 -7 3 -10 7 -7 3 4 3 10 0 14 -4 3 -7 0 -7 -7z" />
    <path d="M5328 1402 c-2 -731 -2 -1336 0 -1345 l3 -17 39 0 c21 0 42 4 45 10
l6 10 -15 0 -16 0 0 1314 0 1315 15 15 c8 8 15 17 15 20 0 3 -20 6 -45 6 l-45
0 -2 -1328z" />
    <path d="M345 2710 l-6 -10 15 0 16 0 0 -1314 0 -1315 -15 -15 c-8 -8 -15 -17
-15 -20 0 -3 20 -6 45 -6 l45 0 2 1328 c2 731 2 1336 0 1345 l-3 17 -39 0
c-21 0 -42 -4 -45 -10z" />
    <path d="M1176 2705 c-3 -9 -10 -14 -14 -11 -5 3 -9 -1 -9 -9 0 -8 5 -13 11
-12 12 2 29 37 22 44 -2 2 -6 -3 -10 -12z" />
    <path d="M2150 2711 c0 -6 5 -13 10 -16 l10 -6 0 15 c0 9 -4 16 -10 16 -5 0
-10 -4 -10 -9z" />
    <path d="M3872 1428 c2 -711 4 -1084 5 -828 7 1229 7 2120 1 2120 -5 0 -7
-582 -6 -1292z" />
    <path d="M4430 1425 c0 -714 2 -1296 5 -1293 7 6 7 2580 0 2586 -3 3 -5 -579
-5 -1293z" />
    <path d="M4460 2697 c0 -8 7 -14 15 -14 8 0 15 6 15 14 0 7 -7 13 -15 13 -8 0
-15 -6 -15 -13z" />
    <path d="M5700 2700 c0 -5 5 -10 10 -10 6 0 10 -6 10 -13 0 -8 7 -14 15 -14
l15 0 -15 17 c-8 9 -12 20 -8 23 3 4 -1 7 -10 7 -9 0 -17 -4 -17 -10z" />
    <path d="M1200 2693 c-2 -770 1 -2658 5 -2661 3 -3 5 596 5 1331 0 736 -2
1337 -5 1337 -3 0 -5 -3 -5 -7z" />
    <path d="M1758 1360 c-2 -732 0 -1330 5 -1330 4 0 7 599 7 1330 0 732 -2 1330
-5 1330 -3 0 -6 -599 -7 -1330z" />
    <path d="M25 2671 c-3 -5 -1 -12 5 -16 l10 -6 0 15 c0 18 -6 21 -15 7z" />
    <path d="M5734 2638 l-7 -11 11 7 c7 4 12 9 12 12 0 8 -9 4 -16 -8z" />
    <path d="M4460 149 c0 -4 -3 -16 -6 -26 l-6 -18 12 18 c6 9 15 15 19 13 4 -3
8 1 8 8 0 7 -6 13 -14 13 -7 0 -13 -4 -13 -8z" />
    <path d="M3470 126 c0 -9 5 -16 10 -16 6 0 10 4 10 9 0 6 -4 13 -10 16 l-10 6
0 -15z" />
    <path d="M14 118 l-7 -11 11 7 c7 4 12 9 12 12 0 8 -9 4 -16 -8z" />
    <path d="M5720 94 l0 -15 10 6 c6 4 8 11 5 16 -9 14 -15 11 -15 -7z" />
    <path d="M25 80 c8 -9 12 -20 8 -23 -3 -4 1 -7 10 -7 10 0 17 5 17 10 0 6 -4
10 -10 10 -5 0 -10 6 -10 13 0 8 -7 14 -15 14 l-15 0 15 -17z" />
    <path d="M4780 85 c0 -9 -4 -14 -9 -10 -5 3 -12 1 -16 -5 l-6 -10 14 0 c8 0
20 6 26 14 l12 14 -11 7 -10 6 0 -16z" />
    <path d="M1150 53 c0 -7 7 -13 15 -13 8 0 15 6 15 13 0 8 -7 14 -15 14 -8 0
-15 -6 -15 -14z" />
    <path d="M5680 48 l-11 -23 14 17 c8 10 18 14 22 10 5 -4 5 -1 1 6 -4 6 -9 12
-11 12 -2 0 -9 -10 -15 -22z" />
    <path d="M2737 43 c-4 -3 -7 -11 -7 -17 l0 -10 12 12 c6 6 9 14 7 17 -3 3 -9
2 -12 -2z" />
    <path d="M2895 40 c3 -5 11 -10 16 -10 6 0 7 5 4 10 -3 6 -11 10 -16 10 -6 0
-7 -4 -4 -10z" />
    <path d="M5645 10 c-3 -5 -1 -10 4 -10 6 0 11 5 11 10 0 6 -2 10 -4 10 -3 0
-8 -4 -11 -10z" />
  </g>
  <g transform="translate(0.000000,275.000000) scale(0.100000,-0.100000)" fill="#828282" stroke="none">
    <path d="M5707 2739 c7 -7 15 -10 18 -7 3 3 -2 9 -12 12 l-18 7 12 -12z" />
    <path d="M5660 2731 c0 -6 4 -12 8 -15 5 -3 9 1 9 9 0 8 -4 15 -9 15 -4 0 -8
-4 -8 -9z" />
    <path d="M3895 2720 c-21 -9 -20 -9 6 -15 l16 -3 0 14 c0 8 -1 14 -1 13 -1 0
-10 -4 -21 -9z" />
    <path d="M4744 2719 l-7 -12 12 7 11 7 -2 -1329 c-2 -732 0 -1328 5 -1325 4 2
7 600 7 1328 l0 1324 -9 6 c-5 3 -13 0 -17 -6z" />
    <path d="M5563 2722 l-13 -8 -2 -1327 -3 -1327 10 0 c6 0 3 -5 -5 -10 l-15
-10 38 0 37 0 0 14 c0 8 6 17 13 19 l12 5 -12 1 -12 1 -1 1319 0 1320 22 4 23
4 -40 1 c-22 1 -46 -2 -52 -6z" />
    <path d="M95 2710 c3 -5 8 -10 11 -10 2 0 4 5 4 10 0 6 -5 10 -11 10 -5 0 -7
-4 -4 -10z" />
    <path d="M150 2706 c0 -8 -6 -17 -12 -19 l-13 -5 12 -1 12 -1 1 -1319 0 -1320
-22 -4 -23 -4 40 -1 c22 -1 46 2 52 6 l13 8 2 1327 3 1327 -10 0 c-5 0 -3 5 5
10 l15 10 -37 0 -38 0 0 -14z" />
    <path d="M2890 2710 c0 -5 5 -10 10 -10 6 0 10 5 10 10 0 6 -4 10 -10 10 -5 0
-10 -4 -10 -10z" />
    <path d="M4705 2710 c3 -5 10 -10 16 -10 5 0 9 5 9 10 0 6 -7 10 -16 10 l-15
0 6 -10z" />
    <path d="M1720 2700 c0 -5 6 -10 14 -10 8 0 18 5 21 10 l6 10 -20 0 c-12 0
-21 -4 -21 -10z" />
    <path d="M5690 2701 c0 -5 7 -15 17 -22 l16 -14 4 12 c3 7 5 16 6 19 1 4 -8 9
-20 10 -13 2 -23 0 -23 -5z" />
    <path d="M1180 2675 l0 -14 15 5 c8 4 15 7 15 9 0 2 -7 5 -15 9 l-15 5 0 -14z" />
    <path d="M4440 2679 c0 -4 7 -20 15 -35 13 -25 20 -26 16 -1 0 4 4 7 9 7 6 0
10 4 10 9 0 5 -8 8 -17 7 -10 -2 -21 2 -25 8 -4 6 -8 8 -8 5z" />
    <path d="M4442 161 l-14 -8 16 -6 16 -6 0 14 c0 17 -1 17 -18 6z" />
    <path d="M3885 130 l-6 -10 20 0 c12 0 21 5 21 10 0 6 -6 10 -14 10 -8 0 -18
-4 -21 -10z" />
    <path d="M1169 125 c-1 -5 -1 -13 0 -17 0 -5 -3 -8 -9 -8 -5 0 -10 -4 -10 -9
0 -6 9 -8 20 -6 l20 4 0 -11 c0 -6 2 -9 5 -6 3 3 -1 18 -10 34 -8 16 -15 25
-16 19z" />
    <path d="M30 80 c0 -19 5 -25 23 -27 20 -3 22 8 5 25 -15 15 -28 16 -28 2z" />
    <path d="M5650 50 c0 -5 5 -10 11 -10 5 0 7 5 4 10 -3 6 -8 10 -11 10 -2 0 -4
-4 -4 -10z" />
    <path d="M83 35 c0 -8 4 -15 9 -15 10 0 10 17 0 24 -5 3 -9 -1 -9 -9z" />
    <path d="M1723 35 l0 -12 19 5 c20 5 17 15 -6 18 -7 1 -13 -4 -13 -11z" />
    <path d="M5650 10 c0 -6 7 -10 15 -10 8 0 15 2 15 4 0 2 -7 6 -15 10 -8 3 -15
1 -15 -4z" />
  </g>
  <g transform="translate(0.000000,275.000000) scale(0.100000,-0.100000)" fill="#939393" stroke="none">
    <path d="M14 2708 l-7 -11 11 7 c7 4 12 9 12 12 0 8 -9 4 -16 -8z" />
    <path d="M96 2707 c3 -10 9 -15 12 -12 3 3 0 11 -7 18 l-12 12 7 -18z" />
    <path d="M2890 2681 c0 -23 4 -40 9 -37 10 6 9 61 -2 72 -4 4 -7 -12 -7 -35z" />
    <path d="M3890 2710 c0 -7 3 -10 7 -7 3 4 3 10 0 14 -4 3 -7 0 -7 -7z" />
    <path d="M4450 2706 c0 -8 5 -18 10 -21 l10 -6 0 20 c0 12 -4 21 -10 21 -5 0
-10 -6 -10 -14z" />
    <path d="M4707 2703 c3 -7 14 -13 24 -13 l19 0 0 15 0 15 -24 -2 -24 -2 5 -13z" />
    <path d="M5687 2693 l17 -28 -22 19 -22 19 0 -16 c0 -10 4 -17 9 -17 5 0 11
-7 14 -14 l6 -15 -13 5 c-8 3 -17 0 -22 -7 l-7 -12 11 7 12 7 2 -1258 c2 -692
0 -1266 -5 -1275 l-7 -18 12 -19 12 -19 20 15 21 16 -3 503 -3 504 10 0 c6 0
11 7 11 15 0 8 -4 15 -10 15 l-10 0 0 65 0 65 10 0 c6 0 10 9 10 20 0 11 -4
20 -10 20 l-10 0 0 155 0 155 10 0 c6 0 10 7 10 15 0 8 -4 15 -10 15 l-10 0 0
40 0 40 10 0 c6 0 10 14 10 30 0 17 -5 30 -10 30 l-11 0 2 456 1 455 -18 20
c-26 28 -37 23 -17 -8z" />
    <path d="M5733 2705 c0 -8 7 -15 15 -15 7 0 12 5 10 12 -6 18 -25 21 -25 3z" />
    <path d="M55 2691 l-20 -16 3 -502 3 -503 -11 0 c-5 0 -10 -7 -10 -15 0 -8 5
-15 10 -15 l10 0 0 -65 0 -65 -10 0 c-5 0 -10 -9 -10 -20 0 -11 5 -20 10 -20
l10 0 0 -155 0 -155 -10 0 c-5 0 -10 -7 -10 -15 0 -8 5 -15 10 -15 l10 0 0
-40 0 -40 -10 0 c-5 0 -10 -13 -10 -30 0 -16 5 -30 10 -30 l11 0 -2 -456 -1
-455 18 -20 c26 -28 37 -23 17 8 l-17 28 22 -19 22 -19 0 16 c0 10 -4 17 -9
17 -5 0 -11 7 -14 14 l-6 15 13 -5 c8 -3 17 0 22 7 l7 12 -11 -7 -12 -7 -2
1258 c-2 692 1 1266 5 1276 l8 17 -13 19 -13 19 -20 -17z" />
    <path d="M3487 2693 c3 -7 9 -13 14 -13 5 0 9 6 9 13 0 8 -6 14 -14 14 l-14 0
5 -14z" />
    <path d="M1170 1389 l0 -1310 10 6 10 6 0 1305 0 1304 -10 0 -10 0 0 -1311z" />
    <path d="M1730 1400 l0 -1300 10 0 10 0 0 1300 0 1300 -10 0 -10 0 0 -1300z" />
    <path d="M2130 2686 c0 -9 5 -16 10 -16 6 0 10 4 10 9 0 6 -4 13 -10 16 l-10
6 0 -15z" />
    <path d="M4457 2663 c-4 -3 -7 -575 -7 -1270 l0 -1263 10 0 10 0 0 1270 c0
699 -1 1270 -3 1270 -2 0 -7 -3 -10 -7z" />
    <path d="M3890 1390 l0 -1260 10 0 10 0 0 1260 0 1260 -10 0 -10 0 0 -1260z" />
    <path d="M3490 151 c0 -6 5 -13 10 -16 l10 -6 0 15 c0 9 -4 16 -10 16 -5 0
-10 -4 -10 -9z" />
    <path d="M4730 110 l0 -40 10 0 10 0 0 40 0 40 -10 0 -10 0 0 -40z" />
    <path d="M2890 70 l0 -20 -26 0 -25 0 5 -9 c8 -12 30 -9 48 7 8 6 18 8 23 4 4
-4 2 3 -4 16 -6 12 -14 22 -16 22 -3 0 -5 -9 -5 -20z" />
    <path d="M10 61 c0 -6 4 -12 8 -15 5 -3 9 1 9 9 0 8 -4 15 -9 15 -4 0 -8 -4
-8 -9z" />
    <path d="M1170 51 c0 -12 5 -21 10 -21 6 0 10 6 10 14 0 8 -4 18 -10 21 l-10
6 0 -20z" />
    <path d="M2130 57 c0 -8 6 -14 14 -14 l14 0 -5 14 c-3 7 -9 13 -14 13 -5 0 -9
-6 -9 -13z" />
    <path d="M5650 61 c0 -6 4 -13 10 -16 l10 -6 -6 15 c-7 18 -14 21 -14 7z" />
    <path d="M1740 40 c0 -7 3 -10 7 -7 3 4 3 10 0 14 -4 3 -7 0 -7 -7z" />
  </g>
  <g transform="translate(0.000000,275.000000) scale(0.100000,-0.100000)" fill="#e7e7e7" stroke="none">
    <path d="M2778 2713 l-38 -4 0 -1333 0 -1333 74 -1 74 -1 6 22 c3 12 6 608 6
1325 l0 1303 -14 15 c-14 14 -32 15 -108 7z" />
  </g>
  <g transform="translate(0.000000,275.000000) scale(0.100000,-0.100000)" fill="#6a6a6a" stroke="none">
    <path d="M3470 2710 l0 -24 12 12 12 12 -12 12 -12 12 0 -24z" />
    <path d="M5398 2723 l-18 -4 0 -1319 c0 -725 -3 -1326 -6 -1334 l-6 -16 33 0
34 0 -15 10 -15 10 15 0 15 0 -3 1322 -2 1322 12 8 13 8 -20 -1 c-11 -1 -28
-3 -37 -6z" />
    <path d="M5727 2716 l-6 -15 14 6 c8 3 12 9 9 14 -7 12 -11 11 -17 -5z" />
    <path d="M2735 2710 c3 -5 8 -10 11 -10 2 0 4 5 4 10 0 6 -5 10 -11 10 -5 0
-7 -4 -4 -10z" />
    <path d="M4785 1395 c0 -731 1 -1029 2 -662 2 368 2 966 0 1330 -1 364 -2 64
-2 -668z" />
    <path d="M340 2700 l15 -10 -15 0 -15 0 3 -1322 2 -1322 -12 -8 -13 -8 15 0
c8 0 25 3 37 6 l23 6 0 1318 c0 726 3 1326 6 1334 l6 16 -33 0 -34 0 15 -10z" />
    <path d="M4430 2620 c0 -7 3 -10 7 -7 3 4 3 10 0 14 -4 3 -7 0 -7 -7z" />
    <path d="M1200 130 c0 -7 3 -10 7 -7 3 4 3 10 0 14 -4 3 -7 0 -7 -7z" />
    <path d="M4719 63 l-14 -18 17 13 17 14 12 -8 12 -7 -7 11 c-10 17 -21 15 -37
-5z" />
    <path d="M24 48 l-7 -11 11 7 c12 7 16 16 8 16 -3 0 -8 -5 -12 -12z" />
    <path d="M2154 49 c-3 -6 -1 -16 5 -22 l11 -11 0 22 c0 24 -5 28 -16 11z" />
  </g>
  <g transform="translate(0.000000,275.000000) scale(0.100000,-0.100000)" fill="#2f2f2f" stroke="none">
    <path d="M952 1378 c-1 -758 1 -1378 6 -1378 6 0 6 1368 -1 2370 -1 212 -3
-235 -5 -992z" />
    <path d="M1791 2725 c0 -16 -2 -636 -4 -1378 l-2 -1347 10 0 10 0 -3 1335 -2
1335 10 0 10 0 -1 43 -1 42 -8 -30 -7 -30 -5 30 -5 30 -2 -30z" />
    <path d="M1830 2740 c0 -7 3 -10 7 -7 3 4 3 10 0 14 -4 3 -7 0 -7 -7z" />
    <path d="M2094 2728 l11 -18 -13 -20 -12 -20 15 0 c8 0 15 -6 15 -12 l0 -13 9
14 c5 7 14 11 20 7 l11 -7 -6 31 -7 30 18 -7 18 -6 -7 11 c-8 14 -36 16 -36 4
0 -5 -7 -17 -16 -28 l-15 -19 11 23 c6 12 8 22 4 22 -3 0 -1 7 6 15 l12 15
-25 -2 -25 -2 12 -18z" />
    <path d="M3460 2741 c0 -5 5 -13 10 -16 6 -3 10 -2 10 4 0 5 -4 13 -10 16 -5
3 -10 2 -10 -4z" />
    <path d="M3838 1455 l2 -1295 -10 0 -10 0 1 -42 1 -43 8 30 8 30 1 -32 1 -33
-14 0 c-8 0 -17 8 -19 18 l-5 17 -1 -21 -1 -22 28 -4 27 -4 0 1348 0 1348 -10
0 -10 0 3 -1295z" />
    <path d="M4667 1398 c2 -743 5 -1354 8 -1356 3 -3 5 605 5 1351 0 747 -3 1357
-7 1357 -5 0 -7 -608 -6 -1352z" />
    <path d="M1156 2732 c-2 -4 -1 -14 5 -22 l9 -15 0 23 c0 23 -5 28 -14 14z" />
    <path d="M5733 2724 c9 -11 14 -24 10 -27 -3 -4 -1 -7 5 -7 19 0 14 15 -10 36
l-23 19 18 -21z" />
    <path d="M4467 2723 c-12 -11 -8 -23 8 -23 8 0 15 7 15 15 0 16 -12 20 -23 8z" />
    <path d="M2206 2710 l12 -12 211 2 211 1 0 -10 0 -11 -202 -2 -203 -3 208 -5
207 -5 0 27 0 27 -227 1 -228 1 11 -11z" />
    <path d="M3423 2680 c0 -25 2 -35 4 -22 2 12 2 32 0 45 -2 12 -4 2 -4 -23z" />
    <path d="M3500 2711 c0 -5 -3 -17 -7 -26 l-6 -17 21 11 c25 13 29 41 7 41 -8
0 -15 -4 -15 -9z" />
    <path d="M2205 2680 c3 -5 8 -10 11 -10 3 0 2 5 -1 10 -3 6 -8 10 -11 10 -3 0
-2 -4 1 -10z" />
    <path d="M1143 2673 c4 -3 10 -3 14 0 3 4 0 7 -7 7 -7 0 -10 -3 -7 -7z" />
    <path d="M3511 2653 c-1 -17 16 -25 25 -12 l7 12 -11 -7 c-5 -3 -13 0 -15 6
l-5 13 -1 -12z" />
    <path d="M2115 1385 c0 -693 1 -975 2 -627 2 349 2 916 0 1260 -1 345 -2 60
-2 -633z" />
    <path d="M3525 1405 c0 -671 1 -944 2 -607 2 338 2 887 0 1220 -1 334 -2 58
-2 -613z" />
    <path d="M2213 150 c0 -25 2 -35 4 -22 2 12 2 32 0 45 -2 12 -4 2 -4 -23z" />
    <path d="M3521 171 l-1 -13 -15 5 -14 6 6 -30 6 -29 -18 7 -18 6 7 -11 c8 -14
36 -16 36 -4 0 5 7 17 16 28 l15 19 -11 -22 c-6 -13 -8 -23 -4 -23 3 0 1 -7
-6 -15 l-12 -15 25 2 25 2 -12 18 -11 18 13 20 12 20 -14 0 c-8 0 -17 6 -19
13 l-5 12 -1 -14z" />
    <path d="M2990 138 l0 -27 227 -1 228 -1 -11 11 -12 12 -211 -2 -211 -1 0 10
0 11 203 2 202 3 -208 5 -207 5 0 -27z" />
    <path d="M3425 150 c3 -5 8 -10 11 -10 3 0 2 5 -1 10 -3 6 -8 10 -11 10 -3 0
-2 -4 1 -10z" />
    <path d="M4483 153 c4 -3 10 -3 14 0 3 4 0 7 -7 7 -7 0 -10 -3 -7 -7z" />
    <path d="M4470 109 l0 -20 10 6 c5 3 7 12 3 20 -7 21 -13 19 -13 -6z" />
    <path d="M2104 109 l-7 -12 11 7 c5 3 13 0 15 -6 l5 -13 1 12 c1 17 -16 25
-25 12z" />
    <path d="M2127 69 c-20 -12 -23 -39 -3 -39 7 0 16 10 19 22 4 12 5 23 4 24 -1
2 -10 -2 -20 -7z" />
    <path d="M4390 55 c0 -2 7 -8 15 -15 l15 -12 0 14 c0 8 -7 15 -15 15 -8 0 -15
-1 -15 -2z" />
    <path d="M1150 34 c0 -9 5 -14 12 -12 18 6 21 28 4 28 -9 0 -16 -7 -16 -16z" />
    <path d="M2160 21 c0 -5 5 -13 10 -16 6 -3 10 -2 10 4 0 5 -4 13 -10 16 -5 3
-10 2 -10 -4z" />
    <path d="M5704 18 l-7 -11 11 7 c7 4 12 9 12 12 0 8 -9 4 -16 -8z" />
    <path d="M38 3 c7 -3 16 -2 19 1 4 3 -2 6 -13 5 l-19 -1 13 -5z" />
    <path d="M5673 3 c4 -3 10 -3 14 0 3 4 0 7 -7 7 -7 0 -10 -3 -7 -7z" />
  </g>
  <g transform="translate(0.000000,275.000000) scale(0.100000,-0.100000)" fill="#979797" stroke="none">
    <path d="M4462 2723 c-6 -2 -10 -9 -6 -14 8 -14 21 -11 21 6 0 8 -1 15 -1 14
-1 0 -7 -3 -14 -6z" />
    <path d="M15 2700 c3 -5 8 -10 11 -10 3 0 2 5 -1 10 -3 6 -8 10 -11 10 -3 0
-2 -4 1 -10z" />
    <path d="M1175 2700 c-3 -5 -1 -10 4 -10 6 0 11 5 11 10 0 6 -2 10 -4 10 -3 0
-8 -4 -11 -10z" />
    <path d="M1720 2701 c0 -5 5 -13 10 -16 6 -3 10 -2 10 4 0 5 -4 13 -10 16 -5
3 -10 2 -10 -4z" />
    <path d="M3890 2700 c0 -5 5 -10 11 -10 5 0 7 5 4 10 -3 6 -8 10 -11 10 -2 0
-4 -4 -4 -10z" />
    <path d="M4729 2697 c-2 -6 -3 -587 -1 -1290 l2 -1278 10 6 10 6 0 1279 0
1279 -9 5 c-5 3 -11 0 -12 -7z" />
    <path d="M5705 2680 c10 -11 20 -18 23 -15 7 6 -18 35 -31 35 -5 0 -2 -9 8
-20z" />
    <path d="M73 2683 c4 -3 10 -3 14 0 3 4 0 7 -7 7 -7 0 -10 -3 -7 -7z" />
    <path d="M3491 2674 l1 -19 5 13 c3 7 2 16 -1 19 -3 4 -6 -2 -5 -13z" />
    <path d="M2140 2670 c0 -7 3 -10 7 -7 3 4 3 10 0 14 -4 3 -7 0 -7 -7z" />
    <path d="M3890 2661 c0 -11 5 -23 10 -26 l10 -6 0 25 c0 14 -4 26 -10 26 -5 0
-10 -9 -10 -19z" />
    <path d="M5690 2661 c0 -5 4 -13 10 -16 l10 -6 0 -1255 c0 -691 2 -1260 6
-1265 3 -5 9 -7 15 -4 l9 6 0 1259 -1 1258 -24 16 c-14 9 -25 12 -25 7z" />
    <path d="M27 2644 c-4 -4 -7 -573 -7 -1265 l1 -1257 24 -16 c14 -9 25 -12 25
-7 0 5 -4 13 -10 16 l-10 6 0 1257 0 1256 -8 8 c-5 5 -11 5 -15 2z" />
    <path d="M3490 160 c0 -7 3 -10 7 -7 3 4 3 10 0 14 -4 3 -7 0 -7 -7z" />
    <path d="M3900 141 c0 -5 5 -13 10 -16 6 -3 10 -2 10 4 0 5 -4 13 -10 16 -5 3
-10 2 -10 -4z" />
    <path d="M4450 129 c0 -5 5 -7 10 -4 6 3 10 8 10 11 0 2 -4 4 -10 4 -5 0 -10
-5 -10 -11z" />
    <path d="M1730 96 c0 -14 5 -26 10 -26 6 0 10 9 10 19 0 11 -4 23 -10 26 l-10
6 0 -25z" />
    <path d="M30 93 c0 -13 29 -38 35 -31 3 3 -4 13 -15 23 -11 10 -20 13 -20 8z" />
    <path d="M2141 74 l1 -19 5 13 c3 7 2 16 -1 19 -3 4 -6 -2 -5 -13z" />
    <path d="M4730 80 c0 -5 5 -10 11 -10 5 0 7 5 4 10 -3 6 -8 10 -11 10 -2 0 -4
-4 -4 -10z" />
    <path d="M5673 73 c4 -3 10 -3 14 0 3 4 0 7 -7 7 -7 0 -10 -3 -7 -7z" />
    <path d="M1735 50 c3 -5 8 -10 11 -10 2 0 4 5 4 10 0 6 -5 10 -11 10 -5 0 -7
-4 -4 -10z" />
    <path d="M2890 49 c0 -4 6 -9 13 -12 l14 -5 0 12 c0 7 -6 13 -14 13 -7 0 -13
-4 -13 -8z" />
    <path d="M1163 36 l0 -14 14 5 c7 3 10 9 7 14 -8 14 -21 11 -21 -5z" />
    <path d="M2736 34 l-6 -17 15 13 c17 14 19 20 6 20 -5 0 -12 -7 -15 -16z" />
    <path d="M43 23 c4 -3 10 -3 14 0 3 4 0 7 -7 7 -7 0 -10 -3 -7 -7z" />
  </g>
  <g transform="translate(0.000000,275.000000) scale(0.100000,-0.100000)" fill="#414141" stroke="none">
    <path d="M1210 2740 c0 -7 3 -10 7 -7 3 4 3 10 0 14 -4 3 -7 0 -7 -7z" />
    <path d="M3460 2741 c0 -6 4 -13 10 -16 l10 -6 -6 15 c-7 18 -14 21 -14 7z" />
    <path d="M4413 2735 c0 -8 4 -12 9 -9 5 3 6 10 3 15 -9 13 -12 11 -12 -6z" />
    <path d="M4714 2738 l-7 -11 11 7 c7 4 12 9 12 12 0 8 -9 4 -16 -8z" />
    <path d="M5663 2733 c4 -3 10 -3 14 0 3 4 0 7 -7 7 -7 0 -10 -3 -7 -7z" />
    <path d="M85 2720 c3 -5 8 -10 11 -10 3 0 2 5 -1 10 -3 6 -8 10 -11 10 -3 0
-2 -4 1 -10z" />
    <path d="M1716 2722 c-2 -4 0 -14 6 -22 l10 -15 -5 17 -6 17 12 5 12 4 -12 1
c-6 1 -14 -3 -17 -7z" />
    <path d="M2140 2726 c0 -2 7 -9 15 -16 l15 -12 0 10 c0 5 -7 12 -15 16 -8 3
-15 4 -15 2z" />
    <path d="M2196 2723 c-3 -3 -6 -612 -6 -1351 0 -740 2 -1343 5 -1340 3 2 5
606 5 1340 l0 1336 12 4 12 4 -11 7 c-5 4 -13 4 -17 0z" />
    <path d="M2235 2720 l-7 -11 194 1 c106 0 199 1 205 0 l13 0 3 -1302 2 -1303
0 1310 0 1310 -202 3 -202 2 -6 -10z" />
    <path d="M2995 1415 l0 -1310 199 -3 200 -2 10 10 11 11 -195 -1 c-107 0 -201
-1 -207 0 l-13 0 -3 1303 -2 1302 0 -1310z" />
    <path d="M3441 1435 c-2 -710 -3 -1296 -2 -1303 1 -6 -3 -12 -9 -12 -6 0 -8
-5 -4 -11 l6 -11 9 9 9 9 -3 1305 -2 1304 -4 -1290z" />
    <path d="M4473 2713 c-18 -7 -16 -20 2 -20 8 0 15 6 15 14 0 7 -1 13 -2 12 -2
0 -9 -3 -15 -6z" />
    <path d="M1156 2702 c-3 -5 1 -9 9 -9 8 0 12 4 9 9 -3 4 -7 8 -9 8 -2 0 -6 -4
-9 -8z" />
    <path d="M5728 2698 c5 -5 16 -8 23 -6 l13 4 -23 7 -24 6 11 -11z" />
    <path d="M9 2683 l-14 -18 18 14 c9 7 17 15 17 17 0 8 -8 3 -21 -13z" />
    <path d="M3900 2685 c0 -8 7 -15 15 -15 l14 0 -5 15 c-4 8 -10 15 -15 15 -5 0
-9 -7 -9 -15z" />
    <path d="M2120 2680 c0 -7 3 -10 7 -7 3 4 3 10 0 14 -4 3 -7 0 -7 -7z" />
    <path d="M4690 2680 c0 -7 3 -10 7 -7 3 4 3 10 0 14 -4 3 -7 0 -7 -7z" />
    <path d="M5744 2668 l-7 -11 11 7 c12 7 16 16 8 16 -3 0 -8 -5 -12 -12z" />
    <path d="M3900 2644 c0 -9 5 -14 12 -12 18 6 21 28 4 28 -9 0 -16 -7 -16 -16z" />
    <path d="M3510 150 c0 -7 3 -10 7 -7 3 4 3 10 0 14 -4 3 -7 0 -7 -7z" />
    <path d="M3913 128 l6 -17 -12 -5 -12 -4 12 -1 c18 -1 23 13 11 29 l-10 15 5
-17z" />
    <path d="M4466 128 c3 -5 10 -6 15 -3 13 9 11 12 -6 12 -8 0 -12 -4 -9 -9z" />
    <path d="M3470 121 c0 -5 7 -12 16 -15 l17 -6 -13 15 c-14 17 -20 19 -20 6z" />
    <path d="M1717 113 c-12 -11 -8 -23 8 -23 8 0 15 7 15 15 0 16 -12 20 -23 8z" />
    <path d="M4 88 l-7 -11 11 7 c12 7 16 16 8 16 -3 0 -8 -5 -12 -12z" />
    <path d="M4416 83 l-7 -18 12 12 c7 7 10 15 7 18 -3 3 -9 -2 -12 -12z" />
    <path d="M4705 90 c-3 -5 -1 -10 4 -10 6 0 11 5 11 10 0 6 -2 10 -4 10 -3 0
-8 -4 -11 -10z" />
    <path d="M3905 80 c3 -5 8 -10 11 -10 3 0 2 5 -1 10 -3 6 -8 10 -11 10 -3 0
-2 -4 1 -10z" />
    <path d="M5739 73 l-14 -18 18 14 c16 13 21 21 13 21 -2 0 -10 -8 -17 -17z" />
    <path d="M930 70 c0 -7 3 -10 7 -7 3 4 3 10 0 14 -4 3 -7 0 -7 -7z" />
    <path d="M1716 65 c8 -19 24 -19 24 0 0 8 -7 15 -15 15 l-14 0 5 -15z" />
    <path d="M3464 67 c3 -10 6 -21 6 -23 0 -2 85 -4 189 -4 l189 0 11 14 12 14
-11 7 -10 6 0 -15 0 -16 -185 0 -184 0 -11 18 -12 17 6 -18z" />
    <path d="M10 66 c0 -2 7 -7 16 -10 l15 -6 -6 10 c-6 10 -25 14 -25 6z" />
    <path d="M1150 44 l0 -13 15 5 c8 4 15 9 15 13 0 4 -7 8 -15 8 -8 0 -15 -6
-15 -13z" />
    <path d="M3910 49 c0 -5 5 -7 10 -4 6 3 10 8 10 11 0 2 -4 4 -10 4 -5 0 -10
-5 -10 -11z" />
    <path d="M4474 48 l-7 -11 11 7 c12 7 16 16 8 16 -3 0 -8 -5 -12 -12z" />
    <path d="M5665 40 c3 -5 8 -10 11 -10 3 0 2 5 -1 10 -3 6 -8 10 -11 10 -3 0
-2 -4 1 -10z" />
    <path d="M5714 28 l-7 -11 11 7 c7 4 12 9 12 12 0 8 -9 4 -16 -8z" />
    <path d="M83 23 c4 -3 10 -3 14 0 3 4 0 7 -7 7 -7 0 -10 -3 -7 -7z" />
    <path d="M1215 21 c-3 -5 -2 -12 3 -15 5 -3 9 1 9 9 0 17 -3 19 -12 6z" />
    <path d="M2166 17 c3 -10 9 -15 12 -12 3 3 0 11 -7 18 l-12 12 7 -18z" />
    <path d="M2730 20 c0 -5 5 -10 11 -10 5 0 7 5 4 10 -3 6 -8 10 -11 10 -2 0 -4
-4 -4 -10z" />
  </g>
  <g transform="translate(0.000000,275.000000) scale(0.100000,-0.100000)" fill="#3a3a3a" stroke="none">
    <path d="M1153 2735 c0 -8 4 -12 9 -9 4 3 8 9 8 15 0 5 -4 9 -8 9 -5 0 -9 -7
-9 -15z" />
    <path d="M2110 2740 c0 -7 3 -10 7 -7 3 4 3 10 0 14 -4 3 -7 0 -7 -7z" />
    <path d="M3851 2734 l1 -19 5 13 c3 7 2 16 -1 19 -3 4 -6 -2 -5 -13z" />
    <path d="M3913 2743 c4 -3 10 -3 14 0 3 4 0 7 -7 7 -7 0 -10 -3 -7 -7z" />
    <path d="M4473 2743 c4 -3 10 -3 14 0 3 4 0 7 -7 7 -7 0 -10 -3 -7 -7z" />
    <path d="M1714 2718 l-7 -11 11 7 c12 7 16 16 8 16 -3 0 -8 -5 -12 -12z" />
    <path d="M3475 1420 c0 -723 1 -1019 2 -658 2 362 2 954 0 1315 -1 362 -2 66
-2 -657z" />
    <path d="M3915 2721 c3 -5 1 -12 -5 -16 l-10 -6 0 -1279 0 -1279 9 -6 c5 -3
13 0 17 6 l7 12 -9 -6 -9 -5 0 1253 c0 689 3 1251 8 1248 4 -2 7 5 7 16 0 12
-5 21 -12 21 l-12 0 12 12 c15 15 16 38 1 38 -5 0 -8 -4 -4 -9z" />
    <path d="M4475 2720 c3 -5 8 -10 11 -10 2 0 4 5 4 10 0 6 -5 10 -11 10 -5 0
-7 -4 -4 -10z" />
    <path d="M2165 1370 c0 -745 1 -1050 2 -678 2 373 2 983 0 1355 -1 373 -2 68
-2 -677z" />
    <path d="M2303 2713 c59 -2 154 -2 210 0 56 1 8 3 -108 3 -115 0 -161 -2 -102
-3z" />
    <path d="M2623 2713 c4 -3 10 -3 14 0 3 4 0 7 -7 7 -7 0 -10 -3 -7 -7z" />
    <path d="M3512 2700 c0 -14 2 -19 5 -12 2 6 2 18 0 25 -3 6 -5 1 -5 -13z" />
    <path d="M2100 2700 c0 -7 3 -10 7 -7 3 4 3 10 0 14 -4 3 -7 0 -7 -7z" />
    <path d="M2121 2694 l1 -19 5 13 c3 7 2 16 -1 19 -3 4 -6 -2 -5 -13z" />
    <path d="M1714 2689 l-7 -12 9 6 9 5 0 -1293 c0 -711 -3 -1291 -7 -1288 -5 2
-8 -5 -8 -16 0 -12 5 -21 12 -21 l12 0 -12 -12 c-15 -15 -16 -38 -1 -38 5 0 8
4 4 9 -3 5 -1 12 5 16 l10 6 0 1319 0 1319 -9 6 c-5 3 -13 0 -17 -6z" />
    <path d="M1801 2684 l1 -19 5 13 c3 7 2 16 -1 19 -3 4 -6 -2 -5 -13z" />
    <path d="M3530 2650 c0 -7 3 -10 7 -7 3 4 3 10 0 14 -4 3 -7 0 -7 -7z" />
    <path d="M3831 144 l1 -19 5 13 c3 7 2 16 -1 19 -3 4 -6 -2 -5 -13z" />
    <path d="M3511 134 l1 -19 5 13 c3 7 2 16 -1 19 -3 4 -6 -2 -5 -13z" />
    <path d="M3530 130 c0 -7 3 -10 7 -7 3 4 3 10 0 14 -4 3 -7 0 -7 -7z" />
    <path d="M3003 113 c4 -3 10 -3 14 0 3 4 0 7 -7 7 -7 0 -10 -3 -7 -7z" />
    <path d="M3133 113 c59 -2 154 -2 210 0 56 1 8 3 -108 3 -115 0 -161 -2 -102
-3z" />
    <path d="M3914 108 l-7 -11 11 7 c12 7 16 16 8 16 -3 0 -8 -5 -12 -12z" />
    <path d="M2100 100 c0 -7 3 -10 7 -7 3 4 3 10 0 14 -4 3 -7 0 -7 -7z" />
    <path d="M4477 103 c-10 -9 -9 -23 1 -23 5 0 9 7 9 15 0 17 -1 18 -10 8z" />
    <path d="M3520 90 c0 -7 3 -10 7 -7 3 4 3 10 0 14 -4 3 -7 0 -7 -7z" />
    <path d="M3917 83 c-10 -9 -9 -33 1 -33 4 0 8 9 8 20 0 23 0 22 -9 13z" />
    <path d="M3851 64 l1 -19 5 13 c3 7 2 16 -1 19 -3 4 -6 -2 -5 -13z" />
    <path d="M2122 50 c0 -14 2 -19 5 -12 2 6 2 18 0 25 -3 6 -5 1 -5 -13z" />
    <path d="M4475 60 c3 -5 8 -10 11 -10 2 0 4 5 4 10 0 6 -5 10 -11 10 -5 0 -7
-4 -4 -10z" />
    <path d="M4365 50 c3 -5 8 -10 11 -10 2 0 4 5 4 10 0 6 -5 10 -11 10 -5 0 -7
-4 -4 -10z" />
    <path d="M4625 50 c4 -6 11 -8 16 -5 14 9 11 15 -7 15 l-15 0 6 -10z" />
    <path d="M4665 50 c3 -5 8 -10 11 -10 3 0 2 5 -1 10 -3 6 -8 10 -11 10 -3 0
-2 -4 1 -10z" />
    <path d="M1150 30 c0 -5 5 -10 11 -10 5 0 7 5 4 10 -3 6 -8 10 -11 10 -2 0 -4
-4 -4 -10z" />
    <path d="M1781 14 l1 -19 5 13 c3 7 2 16 -1 19 -3 4 -6 -2 -5 -13z" />
    <path d="M1153 3 c4 -3 10 -3 14 0 3 4 0 7 -7 7 -7 0 -10 -3 -7 -7z" />
    <path d="M1713 3 c4 -3 10 -3 14 0 3 4 0 7 -7 7 -7 0 -10 -3 -7 -7z" />
  </g>
  <g transform="translate(0.000000,275.000000) scale(0.100000,-0.100000)" fill="#151515" stroke="none">
    <path d="M1126 2728 c-7 -36 -4 -55 11 -55 l13 0 -12 14 -11 13 16 -6 17 -6
-11 31 c-6 17 -13 31 -15 31 -2 0 -6 -10 -8 -22z" />
    <path d="M1230 2723 c0 -16 -1 -634 -3 -1376 l-2 -1347 14 0 13 0 -6 17 -7 17
20 -18 19 -17 6 9 c3 6 -1 13 -9 16 l-15 5 0 1333 c0 733 0 1345 0 1361 l0 27
-15 0 -15 0 0 -27z m30 -39 c0 -8 -4 -14 -10 -14 -5 0 -10 9 -10 21 l0 20 10
-6 c6 -3 10 -13 10 -21z" />
    <path d="M1693 2742 l-12 -8 17 -11 18 -10 0 18 c0 21 -5 23 -23 11z" />
    <path d="M3922 2724 c-1 -13 2 -24 7 -24 5 0 11 -7 14 -14 l6 -15 -15 6 -14 5
0 -21 0 -21 19 0 20 0 -2 39 -1 40 -11 -6 c-5 -3 -4 0 3 8 17 18 15 25 -6 26
l-18 1 -2 -24z" />
    <path d="M4356 2742 c-3 -6 1 -13 9 -16 l15 -5 0 -1317 -1 -1316 13 -16 13
-16 -12 7 c-6 4 -14 4 -17 -1 -2 -4 5 -8 17 -8 l22 0 0 1348 0 1348 -14 0 -13
0 6 -17 7 -17 -20 18 -19 17 -6 -9z m44 -2603 l0 -20 -10 6 c-5 3 -10 13 -10
21 0 8 5 14 10 14 6 0 10 -9 10 -21z" />
    <path d="M4482 2719 l-2 -30 14 -15 c8 -7 17 -14 19 -14 3 0 4 18 4 39 -1 21
-5 37 -9 34 -5 -2 -8 1 -8 6 0 6 -4 11 -8 11 -4 0 -9 -14 -10 -31z" />
    <path d="M4619 2730 l-14 -9 28 3 c32 3 43 11 18 13 -9 1 -24 -2 -32 -7z" />
    <path d="M1685 2710 c3 -5 8 -10 11 -10 3 0 2 5 -1 10 -3 6 -8 10 -11 10 -3 0
-2 -4 1 -10z" />
    <path d="M1686 2681 c-4 -5 1 -8 9 -7 21 3 31 16 12 16 -9 0 -18 -4 -21 -9z" />
    <path d="M4480 2660 c0 -7 3 -10 7 -7 3 4 3 10 0 14 -4 3 -7 0 -7 -7z" />
    <path d="M4503 2643 c4 -3 10 -3 14 0 3 4 0 7 -7 7 -7 0 -10 -3 -7 -7z" />
    <path d="M3924 148 c-3 -4 2 -8 10 -8 8 0 17 4 20 8 3 5 -2 9 -10 9 -8 0 -17
-4 -20 -9z" />
    <path d="M4502 143 l11 -13 -16 6 -17 6 12 -33 11 -33 -11 -4 c-21 -7 -13 -18
13 -18 l24 0 -8 11 c-5 5 -7 28 -6 51 l3 41 -14 0 -14 0 12 -14z" />
    <path d="M3945 120 c3 -5 8 -10 11 -10 3 0 2 5 -1 10 -3 6 -8 10 -11 10 -3 0
-2 -4 1 -10z" />
    <path d="M3924 99 c0 -21 5 -23 23 -11 l12 8 -17 11 -18 10 0 -18z" />
    <path d="M1123 103 c4 -3 10 -3 14 0 3 4 0 7 -7 7 -7 0 -10 -3 -7 -7z" />
    <path d="M1683 71 l1 -40 11 6 c5 3 4 0 -2 -8 -18 -18 -16 -25 5 -26 l18 -1 2
24 c1 13 -2 24 -7 24 -5 0 -11 7 -14 14 l-6 15 15 -6 14 -5 0 21 0 21 -19 0
-20 0 2 -39z" />
    <path d="M1150 90 c0 -7 3 -10 7 -7 3 4 3 10 0 14 -4 3 -7 0 -7 -7z" />
    <path d="M1123 51 c1 -21 5 -37 10 -34 4 2 7 -1 7 -6 0 -6 4 -11 8 -11 4 0 9
14 10 31 l2 30 -14 15 c-8 7 -17 14 -19 14 -3 0 -4 -18 -4 -39z" />
    <path d="M3932 67 l-11 -13 24 -2 24 -2 -5 15 c-7 18 -18 19 -32 2z" />
    <path d="M4603 67 c0 -8 6 -14 14 -14 l13 0 -11 14 c-6 7 -12 13 -14 13 -1 0
-2 -6 -2 -13z" />
    <path d="M4647 67 l-5 -14 13 0 13 0 -5 14 c-3 7 -6 13 -8 13 -2 0 -5 -6 -8
-13z" />
    <path d="M974 18 c-5 -7 44 -3 52 5 3 3 -7 4 -21 3 -15 0 -29 -4 -31 -8z" />
  </g>
  <g transform="translate(0.000000,275.000000) scale(0.100000,-0.100000)" fill="#e5e5e5" stroke="none">
    <path d="M2740 2709 l0 -11 56 4 56 4 -5 -23 -4 -23 31 1 31 2 -22 4 -23 4 1
22 c0 12 3 16 6 10 7 -18 33 -16 33 2 l0 15 -80 0 -80 0 0 -11z" />
    <path d="M2743 1385 l2 -1310 58 0 57 0 1 -15 0 -15 9 20 9 20 0 -22 c1 -28
21 -31 21 -3 0 11 -4 20 -10 20 l-10 0 0 1269 0 1269 13 5 12 5 -15 11 -15 10
-5 -1287 -5 -1287 -3 1288 -2 1287 -57 2 -58 1 45 7 45 7 -42 1 -41 2 -5 13
c-3 6 -5 -577 -4 -1298z m107 -29 l0 -1281 -10 15 -10 15 0 -12 0 -13 -40 0
-40 0 0 1280 0 1281 50 -2 50 -3 0 -1280z" />
    <path d="M2835 1365 c0 -693 1 -975 2 -627 2 349 2 916 0 1260 -1 345 -2 60
-2 -633z" />
    <path d="M2749 49 l-14 -9 48 0 c26 0 47 4 47 9 0 12 -63 12 -81 0z" />
    <path d="M2840 50 c0 -7 3 -10 7 -7 3 4 3 10 0 14 -4 3 -7 0 -7 -7z" />
  </g>
  <g transform="translate(0.000000,275.000000) scale(0.100000,-0.100000)" fill="#a1a1a1" stroke="none">
    <path d="M4720 1415 l0 -1305 10 0 10 0 0 1305 0 1305 -10 0 -10 0 0 -1305z" />
    <path d="M4460 2700 c0 -7 3 -10 7 -7 3 4 3 10 0 14 -4 3 -7 0 -7 -7z" />
    <path d="M1170 2685 c0 -8 2 -15 4 -15 2 0 6 7 10 15 3 8 1 15 -4 15 -6 0 -10
-7 -10 -15z" />
    <path d="M3890 2686 c0 -8 5 -18 10 -21 l10 -6 0 20 c0 12 -4 21 -10 21 -5 0
-10 -6 -10 -14z" />
    <path d="M5700 2690 c0 -7 3 -10 7 -7 3 4 3 10 0 14 -4 3 -7 0 -7 -7z" />
    <path d="M1730 2674 l0 -15 10 6 c6 4 8 11 5 16 -9 14 -15 11 -15 -7z" />
    <path d="M2145 1375 c0 -715 1 -1006 2 -647 2 360 2 945 0 1300 -1 356 -2 62
-2 -653z" />
    <path d="M3495 1415 c0 -693 1 -975 2 -627 2 349 2 916 0 1260 -1 345 -2 60
-2 -633z" />
    <path d="M5730 1740 c0 -7 3 -10 7 -7 3 4 3 10 0 14 -4 3 -7 0 -7 -7z" />
    <path d="M5730 1680 c0 -7 3 -10 7 -7 3 4 3 10 0 14 -4 3 -7 0 -7 -7z" />
    <path d="M20 1670 c0 -7 3 -10 7 -7 3 4 3 10 0 14 -4 3 -7 0 -7 -7z" />
    <path d="M20 1590 c0 -7 3 -10 7 -7 3 4 3 10 0 14 -4 3 -7 0 -7 -7z" />
    <path d="M5730 1170 c0 -7 3 -10 7 -7 3 4 3 10 0 14 -4 3 -7 0 -7 -7z" />
    <path d="M5730 1090 c0 -7 3 -10 7 -7 3 4 3 10 0 14 -4 3 -7 0 -7 -7z" />
    <path d="M20 1080 c0 -7 3 -10 7 -7 3 4 3 10 0 14 -4 3 -7 0 -7 -7z" />
    <path d="M20 1020 c0 -7 3 -10 7 -7 3 4 3 10 0 14 -4 3 -7 0 -7 -7z" />
    <path d="M3895 161 c-3 -5 -1 -12 5 -16 l10 -6 0 15 c0 18 -6 21 -15 7z" />
    <path d="M4456 145 c-3 -8 -1 -15 4 -15 6 0 10 7 10 15 0 8 -2 15 -4 15 -2 0
-6 -7 -10 -15z" />
    <path d="M4710 91 c0 -5 7 -11 15 -15 l15 -5 0 14 c0 8 -7 15 -15 15 -8 0 -15
-4 -15 -9z" />
    <path d="M1730 71 c0 -12 5 -21 10 -21 6 0 10 6 10 14 0 8 -4 18 -10 21 l-10
6 0 -20z" />
    <path d="M50 70 c0 -7 3 -10 7 -7 3 4 3 10 0 14 -4 3 -7 0 -7 -7z" />
    <path d="M1170 50 c0 -7 3 -10 7 -7 3 4 3 10 0 14 -4 3 -7 0 -7 -7z" />
  </g>
  <g transform="translate(0.000000,275.000000) scale(0.100000,-0.100000)" fill="#a7a7a7" stroke="none">
    <path d="M4716 2701 c-4 -7 -5 -15 -2 -18 9 -9 19 4 14 18 l-4 13 -8 -13z" />
    <path d="M3900 2680 c0 -7 3 -10 7 -7 3 4 3 10 0 14 -4 3 -7 0 -7 -7z" />
    <path d="M1175 1375 c0 -721 1 -1014 2 -652 2 362 2 952 0 1310 -1 359 -2 63
-2 -658z" />
    <path d="M4465 1415 c0 -698 1 -983 2 -632 2 351 2 923 0 1270 -1 348 -2 61
-2 -638z" />
    <path d="M4710 1374 l0 -1275 15 -16 16 -15 -5 48 c-3 27 -5 608 -5 1292 l-1
1242 -10 0 -10 0 0 -1276z" />
    <path d="M1730 70 c0 -7 3 -10 7 -7 3 4 3 10 0 14 -4 3 -7 0 -7 -7z" />
  </g>
  <g transform="translate(0.000000,275.000000) scale(0.100000,-0.100000)" fill="#1f1f1f" stroke="none">
    <path d="M1238 1605 c1 -632 3 -1217 5 -1300 1 -82 3 413 4 1100 1 688 -2
1273 -5 1300 -4 28 -6 -467 -4 -1100z" />
    <path d="M1252 2725 l0 -30 5 18 c2 9 2 23 0 30 -3 6 -5 -1 -5 -18z" />
    <path d="M1701 2734 l1 -19 5 13 c3 7 2 16 -1 19 -3 4 -6 -2 -5 -13z" />
    <path d="M4390 2740 c0 -7 3 -10 7 -7 3 4 3 10 0 14 -4 3 -7 0 -7 -7z" />
    <path d="M4660 2739 c0 -5 5 -7 10 -4 6 3 10 8 10 11 0 2 -4 4 -10 4 -5 0 -10
-5 -10 -11z" />
    <path d="M4358 2733 c7 -3 16 -2 19 1 4 3 -2 6 -13 5 l-19 -1 13 -5z" />
    <path d="M4633 2733 c4 -3 10 -3 14 0 3 4 0 7 -7 7 -7 0 -10 -3 -7 -7z" />
    <path d="M1120 2720 c0 -7 3 -10 7 -7 3 4 3 10 0 14 -4 3 -7 0 -7 -7z" />
    <path d="M1138 2705 c-3 -13 -2 -22 2 -20 11 7 20 45 10 45 -4 0 -10 -11 -12
-25z" />
    <path d="M3920 2713 l0 -18 8 10 c4 6 11 13 16 18 l9 7 -16 0 -17 0 0 -17z" />
    <path d="M4481 2703 l1 -28 8 25 7 25 5 -35 5 -35 1 38 2 37 -15 0 -15 0 1
-27z" />
    <path d="M4390 2710 c0 -7 3 -10 7 -7 3 4 3 10 0 14 -4 3 -7 0 -7 -7z" />
    <path d="M3935 2680 c-4 -17 -5 -34 -2 -36 2 -3 7 10 11 27 8 42 0 50 -9 9z" />
    <path d="M1695 2680 c3 -5 8 -10 11 -10 2 0 4 5 4 10 0 6 -5 10 -11 10 -5 0
-7 -4 -4 -10z" />
    <path d="M4393 2655 l0 -40 4 23 c2 12 2 30 0 40 -3 9 -5 -1 -4 -23z" />
    <path d="M3950 2650 c0 -7 3 -10 7 -7 3 4 3 10 0 14 -4 3 -7 0 -7 -7z" />
    <path d="M4395 1336 c0 -693 -3 -1247 -7 -1230 l-7 29 2 -28 c1 -15 6 -27 12
-27 5 1 13 -7 17 -17 l8 -18 -7 25 c-4 14 -10 588 -13 1275 l-6 1250 1 -1259z" />
    <path d="M3930 150 c0 -5 5 -10 11 -10 5 0 7 5 4 10 -3 6 -8 10 -11 10 -2 0
-4 -4 -4 -10z" />
    <path d="M4493 133 c-3 -10 -8 -21 -10 -25 -2 -5 0 -8 5 -8 5 0 12 11 14 25 6
29 0 33 -9 8z" />
    <path d="M1243 95 l0 -40 4 23 c2 12 2 30 0 40 -3 9 -5 -1 -4 -23z" />
    <path d="M4510 110 c0 -7 3 -10 7 -7 3 4 3 10 0 14 -4 3 -7 0 -7 -7z" />
    <path d="M1680 100 c0 -7 3 -10 7 -7 3 4 3 10 0 14 -4 3 -7 0 -7 -7z" />
    <path d="M1696 79 c-8 -42 0 -50 9 -9 4 17 5 34 2 36 -2 3 -7 -10 -11 -27z" />
    <path d="M3930 96 c0 -8 4 -17 9 -20 l9 -6 -5 20 c-6 23 -13 26 -13 6z" />
    <path d="M1132 58 l-2 -38 15 0 15 0 -1 28 -1 27 -8 -25 -7 -25 -5 35 -5 35
-1 -37z" />
    <path d="M4500 80 c0 -7 3 -10 7 -7 3 4 3 10 0 14 -4 3 -7 0 -7 -7z" />
    <path d="M4480 60 c0 -7 3 -10 7 -7 3 4 3 10 0 14 -4 3 -7 0 -7 -7z" />
    <path d="M4664 58 l-7 -11 11 7 c12 7 16 16 8 16 -3 0 -8 -5 -12 -12z" />
    <path d="M4063 53 c59 -2 155 -2 215 0 59 1 10 3 -108 3 -118 0 -167 -2 -107
-3z" />
    <path d="M4543 53 c15 -2 37 -2 50 0 12 2 0 4 -28 4 -27 0 -38 -2 -22 -4z" />
    <path d="M4628 53 c7 -3 16 -2 19 1 4 3 -2 6 -13 5 l-19 -1 13 -5z" />
    <path d="M1240 40 c0 -7 3 -10 7 -7 3 4 3 10 0 14 -4 3 -7 0 -7 -7z" />
    <path d="M1702 35 l-13 -15 16 0 c8 0 15 7 15 15 0 18 -2 18 -18 0z" />
    <path d="M955 10 l-6 -10 15 0 c9 0 16 5 16 10 0 6 -4 10 -9 10 -6 0 -13 -4
-16 -10z" />
    <path d="M993 13 c4 -3 10 -3 14 0 3 4 0 7 -7 7 -7 0 -10 -3 -7 -7z" />
    <path d="M1240 10 c0 -7 3 -10 7 -7 3 4 3 10 0 14 -4 3 -7 0 -7 -7z" />
    <path d="M1268 13 c7 -3 16 -2 19 1 4 3 -2 6 -13 5 l-19 -1 13 -5z" />
  </g>
  <g transform="translate(0.000000,275.000000) scale(0.100000,-0.100000)" fill="#b1b1b1" stroke="none">
    <path d="M4461 2684 l1 -19 5 13 c3 7 2 16 -1 19 -3 4 -6 -2 -5 -13z" />
    <path d="M4718 2694 c-5 -4 -8 -21 -8 -38 l0 -30 11 11 c6 6 9 23 7 38 -2 15
-6 23 -10 19z" />
    <path d="M1735 1375 c0 -721 1 -1014 2 -652 2 362 2 952 0 1310 -1 359 -2 63
-2 -658z" />
    <path d="M3905 1415 c0 -698 1 -983 2 -632 2 351 2 923 0 1270 -1 348 -2 61
-2 -638z" />
    <path d="M4710 154 l0 -15 10 6 c6 4 8 11 5 16 -9 14 -15 11 -15 -7z" />
    <path d="M4710 116 c0 -9 5 -16 10 -16 6 0 10 4 10 9 0 6 -4 13 -10 16 l-10 6
0 -15z" />
    <path d="M1171 64 l1 -19 5 13 c3 7 2 16 -1 19 -3 4 -6 -2 -5 -13z" />
  </g>
  <g transform="translate(0.000000,275.000000) scale(0.100000,-0.100000)" fill="#b9b9b9" stroke="none">
    <path d="M2740 2713 c0 -5 24 -7 52 -5 95 5 104 9 26 11 -43 0 -78 -2 -78 -6z" />
    <path d="M4715 2638 c-3 -7 -4 -580 -3 -1273 l3 -1260 5 1273 c3 699 4 1272 2
1272 -1 0 -5 -6 -7 -12z" />
  </g>
  <g transform="translate(0.000000,275.000000) scale(0.100000,-0.100000)" fill="#d6d6d6" stroke="none">
    <path d="M2740 2710 c0 -7 3 -10 7 -7 3 4 3 10 0 14 -4 3 -7 0 -7 -7z" />
    <path d="M2883 2713 c4 -3 10 -3 14 0 3 4 0 7 -7 7 -7 0 -10 -3 -7 -7z" />
  </g>
</svg>