<?xml version="1.0" standalone="yes"?>
<svg xmlns="http://www.w3.org/2000/svg" width="2000" height="2000">
<path style="fill:#323232; stroke:none;" d="M0 0L0 2000L2000 2000L2000 0L0 0z"/>
<path style="fill:#ffffff; stroke:none;" d="M966 104.424C955.154 105.848 943.923 105.341 933 106.089C919.322 107.026 905.64 108.705 892 110.166C847.183 114.967 802.392 124.363 759 136.424C547.573 195.196 363.39 332.715 244.692 517C158.122 651.406 111.926 806.938 104.961 966C104.061 986.548 103.137 1007.38 104.039 1028C111.387 1195.8 161.379 1360.45 256.344 1500C328.367 1605.84 421.372 1694.77 530 1762.42C606.412 1810.01 692.274 1847.29 780 1868.12C889.819 1894.19 1002.96 1902.45 1115 1887.72C1221.9 1873.66 1327.03 1841.05 1422 1789.69C1504.63 1745 1580.98 1687.95 1645.96 1620C1799.07 1459.88 1889.56 1244.51 1894.99 1023C1900.83 784.385 1810 550.595 1644.96 378C1604.76 335.954 1559.67 298.035 1512 264.72C1433.91 210.146 1347.19 168.64 1256 141.28C1184.16 119.726 1108.94 106.821 1034 104.985C1011.8 104.442 988.146 101.517 966 104.424z"/>
<path style="fill:#000000; stroke:none;" d="M867 587L867 867L587 867L587 1136L867 1136L867 1416L1136 1416L1136 1136L1416 1136L1416 867L1136 867L1136 587L867 587z"/>
</svg>
