<svg width="276.000000pt" height="573.000000pt" viewBox="0 0 276.000000 573.000000" xmlns="http://www.w3.org/2000/svg">
  <g transform="translate(0.000000,573.000000) scale(0.100000,-0.100000)" fill="#333333" stroke="none">
    <path d="M0 5683 l1 -48 13 31 c8 18 19 35 25 38 19 12 12 26 -14 26 l-25 0 0
-47z" />
    <path d="M2690 5724 c0 -9 55 -74 63 -74 4 0 7 18 7 40 l0 40 -35 0 c-19 0
-35 -2 -35 -6z" />
    <path d="M2700 4560 l0 -90 -35 0 -35 0 0 -15 0 -15 28 0 c15 0 37 3 50 6 l22
6 0 99 0 99 -15 0 -15 0 0 -90z" />
    <path d="M0 4455 l0 -15 25 0 25 0 0 15 0 15 -25 0 -25 0 0 -15z" />
    <path d="M2700 4150 l0 -260 15 0 15 0 0 260 0 260 -15 0 -15 0 0 -260z" />
    <path d="M0 3895 l0 -15 25 0 25 0 0 15 0 15 -25 0 -25 0 0 -15z" />
    <path d="M2600 3895 c0 -8 7 -15 15 -15 8 0 15 7 15 15 0 8 -7 15 -15 15 -8 0
-15 -7 -15 -15z" />
    <path d="M13 3843 l-13 -5 0 -199 0 -199 15 0 c9 0 18 7 21 15 l6 15 1299 0
1299 0 0 -16 0 -15 38 3 37 3 3 196 2 197 -22 6 c-27 7 -2667 7 -2685 -1z" />
    <path d="M2754 3650 c0 -113 2 -159 3 -102 2 56 2 148 0 205 -1 56 -3 10 -3
-103z" />
    <path d="M20 3200 l0 -230 1315 0 1315 0 0 230 0 230 -1315 0 -1315 0 0 -230z" />
    <path d="M30 2410 l0 -230 1355 0 1355 0 0 15 0 15 -40 0 -40 0 0 215 0 215
-1315 0 -1315 0 0 -230z" />
    <path d="M0 1965 l0 -205 1364 0 c750 0 1371 3 1380 6 l16 6 0 199 0 199 -15
0 c-9 0 -18 -7 -21 -15 l-6 -15 -1339 0 -1339 0 0 15 0 15 -20 0 -20 0 0 -205z" />
    <path d="M50 1715 c0 -8 7 -15 15 -15 8 0 15 7 15 15 0 8 -7 15 -15 15 -8 0
-15 -7 -15 -15z" />
    <path d="M2710 1715 l0 -15 25 0 25 0 0 15 0 15 -25 0 -25 0 0 -15z" />
    <path d="M10 1155 l0 -15 20 0 20 0 0 15 0 15 -20 0 -20 0 0 -15z" />
    <path d="M2710 1155 l0 -15 25 0 25 0 0 15 0 15 -25 0 -25 0 0 -15z" />
    <path d="M2717 45 c-21 -20 -37 -38 -37 -40 0 -3 18 -5 40 -5 l40 0 0 40 c0
22 -2 40 -3 40 -2 0 -20 -16 -40 -35z" />
    <path d="M0 35 l0 -35 30 0 c17 0 30 3 30 8 -1 9 -47 62 -55 62 -3 0 -5 -16
-5 -35z" />
  </g>
  <g transform="translate(0.000000,573.000000) scale(0.100000,-0.100000)" fill="#1a1a1a" stroke="none">
    <path d="M2754 4575 c0 -55 1 -76 3 -47 2 29 2 74 0 100 -2 26 -3 2 -3 -53z" />
    <path d="M0 4555 l0 -105 12 3 c7 1 19 8 28 16 l15 15 3 -17 4 -17 1324 0
1324 1 0 12 c1 7 2 53 3 102 l1 90 -1357 3 -1357 2 0 -105z" />
    <path d="M0 4160 l0 -250 27 -11 28 -11 17 11 17 11 6 -10 6 -10 1305 0 1304
1 0 12 c0 7 0 116 1 242 0 127 -2 238 -6 248 l-7 17 -1349 0 -1349 0 0 -250z
m2677 213 c-4 -3 -10 -3 -14 0 -3 4 0 7 7 7 7 0 10 -3 7 -7z" />
    <path d="M2754 4160 c0 -135 2 -190 3 -122 2 67 2 177 0 245 -1 67 -3 12 -3
-123z" />
    <path d="M18 1713 l-18 -4 0 -255 0 -254 1380 0 1380 0 0 254 0 254 -31 6 -32
6 -13 -10 -12 -11 -7 11 -6 10 -1312 -1 c-722 -1 -1320 -3 -1329 -6z" />
    <path d="M0 1052 l0 -107 1380 3 1380 2 0 105 0 105 -12 -2 c-7 -2 -19 -9 -28
-17 l-15 -15 -3 17 -4 17 -1349 0 -1349 0 0 -108z" />
  </g>
  <g transform="translate(0.000000,573.000000) scale(0.100000,-0.100000)" fill="#4c4c4c" stroke="none">
    <path d="M50 5717 c0 -7 -10 -17 -22 -22 l-23 -10 -3 -517 -2 -518 1351 0
c743 0 1354 -2 1359 -5 4 -2 7 -45 8 -95 l0 -90 -16 -1 c-10 -1 -21 -2 -27 -4
-5 -1 -16 -3 -22 -3 -7 -1 -13 -9 -13 -17 l0 -15 -1300 0 -1301 0 -7 18 c-4 9
-13 18 -19 19 l-13 3 0 -33 0 -32 1359 2 1359 2 1 -251 1 -250 -34 6 -34 7
-11 -32 c-6 -18 -11 -33 -11 -34 0 -1 17 -5 39 -9 l38 -6 7 -46 c3 -26 6 -106
6 -179 l0 -133 -12 -9 c-7 -5 -23 -10 -35 -11 l-22 -1 5 14 c3 7 1 16 -5 20
l-11 6 -6 -15 -6 -16 -1302 0 -1302 0 -12 -12 -12 -12 0 -643 0 -642 15 5 15
6 -6 -15 c-3 -8 -1 -18 5 -22 l11 -6 6 15 6 16 1338 0 c736 0 1345 3 1354 6
l16 6 0 1747 0 1747 -28 34 -28 33 -12 -7 c-17 -10 -15 -35 2 -42 l15 -6 6
-51 c7 -59 6 -50 5 -253 l-1 -152 -31 -6 c-17 -3 -622 -6 -1344 -6 l-1314 0 0
73 c-1 39 -1 140 -2 223 l-1 152 14 19 c8 11 29 25 48 31 l34 12 428 0 429 0
0 10 0 10 -465 0 -465 0 0 -13z m2624 -943 l16 -6 0 -30 0 -30 -20 -5 c-11 -3
-20 -8 -20 -12 0 -5 -2611 1 -2617 7 -6 5 -3 69 4 75 8 9 2615 9 2637 1z m-39
-1357 l10 -4 0 -214 0 -214 -1307 -3 -1308 -2 0 218 c0 120 2 221 4 223 5 5
2586 1 2601 -4z m94 -649 l1 -38 -1350 0 -1350 0 0 75 0 75 1342 2 1343 3 7
-40 c3 -22 7 -57 7 -77z m-79 -353 l0 -215 42 0 c23 0 39 -2 36 -5 -7 -8
-2680 -6 -2687 1 -8 8 -14 401 -7 419 l5 15 1306 0 1305 0 0 -215z" />
    <path d="M1003 5718 l4 -13 36 1 c21 0 129 1 242 2 l205 2 0 10 0 10 -246 0
-246 0 5 -12z" />
    <path d="M1500 5720 c0 -5 16 -10 35 -10 19 0 35 5 35 10 0 6 -16 10 -35 10
-19 0 -35 -4 -35 -10z" />
    <path d="M1620 5718 l0 -13 527 2 528 2 3 11 4 10 -531 0 -531 0 0 -12z" />
    <path d="M0 3864 l0 -32 43 3 c23 2 610 4 1305 4 l1262 1 0 10 0 10 -1290 0
-1290 0 0 18 0 19 -15 0 -15 0 0 -33z" />
    <path d="M1378 1772 l-1308 -2 0 -10 0 -10 1330 0 1330 0 0 -18 0 -19 15 0 15
0 0 33 0 32 -37 -1 c-21 -1 -626 -3 -1345 -5z" />
    <path d="M0 1735 l0 -35 14 0 c8 0 19 14 25 31 6 18 11 34 11 35 0 2 -11 4
-25 4 l-25 0 0 -35z" />
    <path d="M17 1212 l-17 -3 0 -35 0 -34 20 12 c11 7 20 18 20 25 l0 13 1340 0
1341 0 7 -17 c4 -10 13 -19 20 -21 l12 -2 0 32 0 33 -1363 0 c-750 0 -1371 -1
-1380 -3z" />
    <path d="M0 512 l0 -449 24 -28 24 -28 11 7 c16 10 14 36 -3 42 l-15 6 -6 51
c-7 59 -6 50 -5 253 l1 152 31 6 c17 3 622 6 1344 6 l1314 0 0 -72 c1 -40 1
-141 2 -224 l1 -152 -14 -19 c-8 -11 -29 -25 -48 -31 l-34 -12 -428 0 -429 0
0 -10 0 -10 460 0 461 0 5 15 c4 8 13 15 20 15 8 0 17 7 20 15 4 8 10 12 15 9
l9 -5 0 455 0 456 -1380 0 -1380 0 0 -448z" />
    <path d="M74 21 c-2 -2 -4 -8 -4 -13 l0 -8 530 0 530 0 0 13 0 12 -526 0
c-289 0 -528 -2 -530 -4z" />
    <path d="M1468 23 l-208 -3 0 -10 0 -10 246 0 246 0 -4 13 -5 12 -34 0 c-19 1
-127 -1 -241 -2z" />
    <path d="M1180 10 c0 -5 16 -10 35 -10 19 0 35 5 35 10 0 6 -16 10 -35 10 -19
0 -35 -4 -35 -10z" />
  </g>
  <g transform="translate(0.000000,573.000000) scale(0.100000,-0.100000)" fill="#727272" stroke="none">
    <path d="M2670 5720 c0 -5 7 -10 15 -10 8 0 15 5 15 10 0 6 -7 10 -15 10 -8 0
-15 -4 -15 -10z" />
    <path d="M15 5699 c-4 -6 -5 -13 -2 -16 7 -7 27 6 27 18 0 12 -17 12 -25 -2z" />
    <path d="M2680 5685 c0 -8 7 -15 16 -15 l16 0 -12 15 c-7 8 -14 15 -16 15 -2
0 -4 -7 -4 -15z" />
    <path d="M10 5645 c0 -8 7 -15 15 -15 8 0 15 7 15 15 0 8 -7 15 -15 15 -8 0
-15 -7 -15 -15z" />
    <path d="M18 5455 l4 -65 1329 0 1329 0 0 -10 c0 -5 10 -10 23 -10 l23 0 2 41
c2 22 0 48 -2 57 l-6 17 -1340 -3 -1340 -2 0 20 c0 11 -6 20 -12 20 l-13 0 3
-65z" />
    <path d="M16 4755 l-5 -15 1334 0 1335 0 0 -15 c0 -8 6 -15 14 -15 l14 0 -3
18 c-2 9 -4 23 -4 30 l-1 12 -1339 0 -1339 0 -6 -15z" />
    <path d="M13 4705 c0 -8 6 -15 14 -15 7 0 13 7 13 15 0 8 -6 15 -13 15 -8 0
-14 -7 -14 -15z" />
    <path d="M50 4456 c0 -9 7 -16 16 -16 17 0 14 22 -4 28 -7 2 -12 -3 -12 -12z" />
    <path d="M2597 4463 c-3 -5 -3 -19 0 -31 l5 -22 24 0 24 0 0 15 c0 8 -5 15
-11 15 -7 0 -17 7 -24 17 l-12 16 -6 -10z" />
    <path d="M50 3865 c0 -8 7 -15 15 -15 8 0 15 7 15 15 0 8 -7 15 -15 15 -8 0
-15 -7 -15 -15z" />
    <path d="M2600 3865 c0 -8 7 -15 15 -15 8 0 15 7 15 15 0 8 -7 15 -15 15 -8 0
-15 -7 -15 -15z" />
    <path d="M1343 3483 l-1303 -3 0 -15 0 -15 1293 0 c710 0 1297 4 1302 8 6 4
11 13 13 20 1 6 1 11 0 10 -2 -2 -589 -4 -1305 -5z" />
    <path d="M30 2730 c0 -5 14 -10 30 -10 17 0 30 5 30 10 0 6 -13 10 -30 10 -16
0 -30 -4 -30 -10z" />
    <path d="M2670 2730 c0 -5 9 -10 20 -10 11 0 20 5 20 10 0 6 -9 10 -20 10 -11
0 -20 -4 -20 -10z" />
    <path d="M45 2152 c-5 -4 -11 -11 -12 -17 l-1 -10 1344 3 1344 2 0 15 0 15
-1332 0 c-733 0 -1337 -4 -1343 -8z" />
    <path d="M50 1745 c0 -8 7 -15 15 -15 8 0 15 7 15 15 0 8 -7 15 -15 15 -8 0
-15 -7 -15 -15z" />
    <path d="M2680 1745 c0 -8 7 -15 15 -15 8 0 15 7 15 15 0 8 -7 15 -15 15 -8 0
-15 -7 -15 -15z" />
    <path d="M30 1185 c0 -8 6 -15 14 -15 8 0 17 -8 20 -17 l7 -16 9 9 c5 5 7 19
4 32 l-6 22 -24 0 -24 0 0 -15z" />
    <path d="M2682 1158 c6 -18 28 -21 28 -4 0 9 -7 16 -16 16 -9 0 -14 -5 -12
-12z" />
    <path d="M22 319 c-2 -22 0 -48 2 -57 l6 -17 1340 3 1340 2 0 -20 c0 -11 6
-20 13 -20 l12 0 -3 65 -4 65 -1329 0 -1329 0 0 10 c0 6 -10 10 -23 10 l-23 0
-2 -41z" />
    <path d="M2710 85 c0 -8 7 -15 15 -15 8 0 15 7 15 15 0 8 -7 15 -15 15 -8 0
-15 -7 -15 -15z" />
    <path d="M27 51 l-19 -7 16 -13 16 -13 0 17 0 17 15 -12 15 -12 0 16 c0 17
-13 19 -43 7z" />
    <path d="M2715 39 c-11 -17 1 -21 15 -4 l12 15 -10 0 c-6 0 -14 -5 -17 -11z" />
    <path d="M50 10 c0 -5 7 -10 15 -10 8 0 15 5 15 10 0 6 -7 10 -15 10 -8 0 -15
-4 -15 -10z" />
  </g>
  <g transform="translate(0.000000,573.000000) scale(0.100000,-0.100000)" fill="#7b7b7b" stroke="none">
    <path d="M50 5719 c0 -5 5 -7 10 -4 l10 6 0 -15 c0 -9 7 -16 15 -16 18 0 19
12 3 28 -15 15 -38 16 -38 1z" />
    <path d="M2690 5717 c0 -8 7 -14 15 -14 l15 0 -11 14 c-6 7 -13 13 -15 13 -2
0 -4 -6 -4 -13z" />
    <path d="M2653 5713 c-18 -7 -16 -23 2 -23 8 0 15 7 15 15 0 8 -1 15 -2 14 -2
0 -9 -3 -15 -6z" />
    <path d="M27 5673 c-12 -11 -8 -23 8 -23 8 0 15 7 15 15 0 16 -12 20 -23 8z" />
    <path d="M13 5533 l-7 -17 12 -4 c7 -2 12 -12 12 -23 l0 -19 1329 0 1329 0 5
-12 5 -13 1 19 1 20 15 -20 14 -19 1 32 c0 17 -2 37 -5 45 l-5 13 -1340 -3
-1340 -2 0 10 c0 16 -20 11 -27 -7z" />
    <path d="M15 4740 c3 -5 10 -10 16 -10 5 0 9 5 9 10 0 6 -7 10 -16 10 l-15 0
6 -10z" />
    <path d="M2680 4715 c0 -16 16 -20 24 -6 3 5 -1 11 -9 15 l-15 5 0 -14z" />
    <path d="M63 4456 c1 -6 -8 -12 -21 -14 l-23 -4 4 -11 4 -12 1306 -3 1307 -2
-2 12 c-2 7 -11 16 -21 20 -10 4 -16 11 -14 15 3 5 -556 7 -1241 5 l-1246 -2
-8 -13 -8 -12 0 17 0 17 -19 -2 c-11 0 -19 -6 -18 -11z" />
    <path d="M30 3865 l0 -15 1293 0 1294 0 0 15 0 15 -1294 0 -1293 0 0 -15z" />
    <path d="M2613 3465 c0 -8 7 -15 15 -15 7 0 12 5 10 12 -6 18 -25 21 -25 3z" />
    <path d="M45 2730 l6 -10 1252 -1 c689 -1 1275 -2 1302 -3 28 -1 58 2 69 7
l18 9 11 -11 c15 -15 27 -14 27 4 l0 15 -1346 0 -1345 0 6 -10z" />
    <path d="M42 2148 c6 -18 25 -21 25 -3 0 8 -7 15 -14 15 -8 0 -13 -5 -11 -12z" />
    <path d="M63 1745 l0 -15 1334 0 1333 0 0 15 0 15 -1333 0 -1334 0 0 -15z" />
    <path d="M42 1188 c2 -7 11 -16 21 -20 10 -4 16 -11 14 -15 -3 -5 574 -7 1281
-5 l1286 2 8 13 8 12 0 -17 0 -17 19 2 c11 0 19 6 18 11 -1 6 8 12 21 14 l23
4 -4 11 -4 12 -1346 3 -1347 2 2 -12z" />
    <path d="M20 253 c0 -17 2 -37 5 -45 l5 -13 1337 3 1337 2 7 -11 c4 -6 12 -8
18 -5 14 9 15 36 1 36 -5 0 -10 9 -10 20 l0 20 -1329 0 -1329 0 -5 13 -5 12
-1 -19 -1 -20 -15 20 -14 19 -1 -32z" />
    <path d="M2700 64 c0 -9 5 -14 12 -12 18 6 21 28 4 28 -9 0 -16 -7 -16 -16z" />
    <path d="M80 25 l0 -14 15 5 c8 4 15 10 15 15 0 5 -7 9 -15 9 -8 0 -15 -7 -15
-15z" />
    <path d="M2650 31 c0 -5 7 -14 15 -21 l16 -13 12 13 12 13 -12 -7 -13 -7 0 15
c0 9 -7 16 -15 16 -8 0 -15 -4 -15 -9z" />
  </g>
  <g transform="translate(0.000000,573.000000) scale(0.100000,-0.100000)" fill="#949494" stroke="none">
    <path d="M34 5719 c-3 -6 0 -15 7 -20 l14 -9 -15 -10 c-8 -5 -16 -18 -16 -30
l-1 -20 21 -5 c11 -2 34 -7 50 -10 l29 -6 8 13 9 13 0 -12 c0 -15 27 -17 32
-3 l3 10 1231 0 1231 0 27 -10 c15 -5 34 -10 42 -10 l14 0 0 30 0 31 -15 5
c-8 4 -15 12 -15 20 l0 13 -492 2 c-809 3 -2081 -1 -2110 -7 l-28 -6 0 16 c0
18 -16 21 -26 5z" />
    <path d="M21 4728 c1 -22 14 -49 24 -49 10 0 23 27 24 49 l1 12 -25 0 -25 0 1
-12z" />
    <path d="M80 4725 l0 -15 1304 0 1304 0 6 15 5 15 -1309 0 -1310 0 0 -15z" />
    <path d="M20 4441 l0 -18 25 5 c14 2 25 8 25 13 0 5 -3 9 -7 10 -5 0 -16 2
-25 4 l-18 3 0 -17z" />
    <path d="M80 4438 l0 -13 1267 2 c698 2 1271 3 1276 3 4 0 7 5 7 10 l0 10
-1275 0 -1275 0 0 -12z" />
    <path d="M20 3875 c0 -17 2 -18 24 -9 23 9 20 24 -4 24 l-20 0 0 -15z" />
    <path d="M90 3880 l0 -10 1259 0 c693 0 1266 -3 1275 -6 l16 -6 0 16 0 16
-1275 0 -1275 0 0 -10z" />
    <path d="M40 3475 l0 -13 20 5 c11 3 20 7 20 8 0 1 -9 5 -20 8 l-20 5 0 -13z" />
    <path d="M2605 3480 l-6 -10 16 0 16 0 -6 10 c-3 6 -8 10 -10 10 -2 0 -7 -4
-10 -10z" />
    <path d="M34 2891 c-13 -13 1 -21 36 -21 l40 0 0 14 0 13 -36 -1 c-19 0 -37
-3 -40 -5z" />
    <path d="M2688 2892 c-25 -5 -23 -22 2 -22 l20 0 0 -21 0 -21 12 4 c6 2 12 14
13 26 l2 22 -13 0 c-7 0 -14 4 -16 8 -1 4 -11 6 -20 4z" />
    <path d="M2712 2738 c6 -18 28 -21 28 -4 0 9 -7 16 -16 16 -9 0 -14 -5 -12
-12z" />
    <path d="M2696 2141 l-20 -8 22 -5 22 -6 0 14 c0 8 -1 14 -2 13 -2 0 -12 -4
-22 -8z" />
    <path d="M55 2130 c4 -6 11 -8 16 -5 14 9 11 15 -7 15 l-15 0 6 -10z" />
    <path d="M40 1736 l0 -16 1315 0 1315 0 0 10 0 10 -1299 0 c-715 0 -1306 3
-1315 6 l-16 6 0 -16z" />
    <path d="M2713 1743 c-20 -8 -15 -23 7 -23 l20 0 0 15 c0 15 -6 17 -27 8z" />
    <path d="M60 1182 c-5 -2 -10 -8 -10 -13 l0 -9 1315 0 1315 0 0 13 0 12 -1305
0 c-718 0 -1309 -1 -1315 -3z" />
    <path d="M2713 1183 c-21 -4 -33 -22 -15 -24 4 0 15 -2 25 -4 l17 -3 0 19 c0
10 -1 18 -2 18 -2 -1 -13 -4 -25 -6z" />
    <path d="M30 90 l0 -31 15 -5 c8 -4 15 -12 15 -20 l0 -13 493 -2 c797 -3 2090
1 2111 7 l18 6 8 -12 8 -13 12 8 12 8 -13 8 -14 9 15 10 c8 5 16 18 16 30 l1
20 -21 5 c-11 2 -34 7 -50 10 l-29 6 -8 -13 -9 -13 0 13 c0 14 -27 16 -32 2
l-3 -10 -1231 0 -1231 0 -27 10 c-15 5 -34 10 -42 10 l-14 0 0 -30z" />
    <path d="M30 31 c0 -6 4 -13 10 -16 l10 -6 -6 15 c-7 18 -14 21 -14 7z" />
  </g>
  <g transform="translate(0.000000,573.000000) scale(0.100000,-0.100000)" fill="#515151" stroke="none">
    <path d="M70 5711 l0 -13 15 12 15 12 0 -11 0 -11 461 0 460 1 -3 10 -3 10
-473 2 -472 2 0 -14z" />
    <path d="M1026 5717 l5 -13 323 -1 324 0 -4 12 -5 12 -282 -4 c-155 -2 -295
-5 -310 -8 l-28 -5 6 10 6 10 -20 0 -20 0 5 -13z" />
    <path d="M1687 5713 l5 -13 475 0 474 0 -6 10 -6 10 15 0 c9 0 16 -4 16 -9 0
-5 7 -12 16 -15 l15 -6 -3 16 -3 16 -501 1 -501 2 4 -12z" />
    <path d="M24 5688 l1 -23 -12 2 -12 3 6 -16 6 -16 18 23 c22 29 24 49 5 49
l-13 0 1 -22z" />
    <path d="M2707 5688 c-3 -12 -3 -26 1 -32 3 -6 5 -20 3 -30 l-3 -19 18 7 17 7
9 -13 9 -13 -3 35 c-2 19 -7 34 -13 33 -5 -2 -10 -7 -10 -12 0 -5 -3 -12 -6
-15 -3 -4 -5 10 -4 29 2 41 -10 56 -18 23z" />
    <path d="M10 5620 l-15 -9 18 -18 17 -17 0 27 c0 15 -1 27 -2 27 -2 0 -10 -5
-18 -10z" />
    <path d="M13 5535 c-3 -9 -3 -18 -1 -21 3 -3 8 4 11 16 6 23 -1 27 -10 5z" />
    <path d="M2720 5469 c0 -45 2 -80 4 -78 3 2 7 37 9 77 l5 72 -9 6 -9 5 0 -82z" />
    <path d="M2748 5424 c-2 -19 0 -37 4 -40 4 -3 8 13 8 35 0 23 -2 41 -4 41 -2
0 -6 -16 -8 -36z" />
    <path d="M6 5390 c2 -24 9 -49 14 -54 l10 -10 0 33 0 32 -9 -6 c-5 -3 -12 7
-14 22 -2 16 -3 8 -1 -17z" />
    <path d="M2710 5305 l0 -65 -1334 0 -1334 0 -6 16 c-3 9 -6 25 -6 36 0 12 -3
18 -6 15 -4 -3 -6 -99 -5 -213 l2 -206 -9 6 c-5 3 -9 -1 -9 -8 0 -7 6 -13 13
-13 7 0 13 3 12 6 0 3 0 75 1 158 l1 153 1324 0 1324 0 5 -12 5 -13 1 18 c1
19 21 24 21 5 l0 -13 10 15 c5 8 10 52 10 98 l0 82 -10 0 -10 0 0 -65z" />
    <path d="M2745 5330 c-4 -6 -5 -48 -4 -93 1 -45 2 -161 1 -257 -1 -200 7 -492
14 -499 2 -2 4 190 4 427 0 238 -2 432 -4 432 -3 0 -8 -5 -11 -10z" />
    <path d="M2710 5150 c0 -5 5 -10 11 -10 5 0 7 5 4 10 -3 6 -8 10 -11 10 -2 0
-4 -4 -4 -10z" />
    <path d="M7 4841 c6 -7 9 -20 6 -27 -3 -8 -3 -14 0 -14 3 0 7 6 10 14 l6 15
-17 12 -17 13 12 -13z" />
    <path d="M2693 4813 c4 -3 10 -3 14 0 3 4 0 7 -7 7 -7 0 -10 -3 -7 -7z" />
    <path d="M25 4780 l-6 -10 1338 -2 c736 -2 1340 -2 1343 0 2 2 -2 7 -10 12
l-15 10 -1322 0 -1322 0 -6 -10z" />
    <path d="M9 4750 c0 -3 -2 -26 -3 -52 l-3 -48 15 0 14 0 -12 15 c-7 9 -9 19
-5 23 4 4 10 1 12 -5 3 -7 9 -13 13 -13 l9 0 -11 33 c-10 30 -27 57 -29 47z
m18 -47 c-4 -3 -10 -3 -14 0 -3 4 0 7 7 7 7 0 10 -3 7 -7z" />
    <path d="M2690 4738 c0 -4 6 -8 14 -8 8 0 17 -8 19 -17 l5 -18 1 25 1 26 -20
0 c-11 0 -20 -4 -20 -8z" />
    <path d="M2697 4713 c-4 -3 -2 -12 4 -20 l11 -13 -14 0 c-8 0 -19 5 -24 10
l-10 10 -1282 -2 c-705 -2 -1282 -6 -1282 -10 0 -4 592 -9 1315 -10 723 -2
1315 0 1315 3 0 4 -7 10 -16 13 -8 3 -12 10 -9 16 7 11 2 13 -8 3z" />
    <path d="M54 4675 l1 -25 23 0 23 0 -18 25 c-10 13 -21 25 -24 25 -4 0 -6 -11
-5 -25z" />
    <path d="M135 4660 l-6 -10 16 0 16 0 -6 10 c-3 6 -8 10 -10 10 -2 0 -7 -4
-10 -10z" />
    <path d="M2605 4660 l-6 -10 21 0 21 0 -6 10 c-3 6 -10 10 -15 10 -5 0 -12 -4
-15 -10z" />
    <path d="M2710 4650 c0 -5 7 -10 15 -10 8 0 15 5 15 10 0 6 -7 10 -15 10 -8 0
-15 -4 -15 -10z" />
    <path d="M2713 4613 c4 -3 10 -3 14 0 3 4 0 7 -7 7 -7 0 -10 -3 -7 -7z" />
    <path d="M2718 4583 c7 -3 16 -2 19 1 4 3 -2 6 -13 5 l-19 -1 13 -5z" />
    <path d="M2715 4490 l-6 -10 15 0 c9 0 16 5 16 10 0 6 -4 10 -9 10 -6 0 -13
-4 -16 -10z" />
    <path d="M2614 4459 l-7 -12 17 -9 c9 -5 14 -13 11 -17 -2 -5 4 -11 15 -14 11
-3 18 -1 15 3 -3 5 -1 11 5 15 14 8 13 35 -1 35 l-11 0 5 -15 c4 -8 2 -17 -3
-20 -5 -3 -12 6 -16 20 -7 27 -18 32 -30 14z" />
    <path d="M21 4444 l1 -19 5 13 c3 7 2 16 -1 19 -3 4 -6 -2 -5 -13z" />
    <path d="M2720 4420 l7 -39 -11 -6 c-6 -3 -1 -3 12 -1 l22 4 -6 -9 c-3 -5 -12
-9 -20 -9 -17 0 -19 -16 -2 -26 l11 -7 -8 13 -8 13 14 -5 14 -5 2 -262 2 -263
-19 5 -20 5 0 -14 0 -13 14 5 c8 3 17 1 21 -5 l6 -11 -13 -1 c-7 -1 -17 -1
-21 0 -4 1 -7 -80 -7 -179 l2 -180 9 0 c6 0 9 6 8 13 -1 6 -1 86 0 176 l1 163
15 -6 15 -5 -2 347 c-1 191 -3 330 -5 310 -2 -21 -8 -38 -13 -38 -5 0 -7 16
-5 35 l3 35 -13 0 -12 0 7 -40z" />
    <path d="M2691 4424 l1 -19 5 13 c3 7 2 16 -1 19 -3 4 -6 -2 -5 -13z" />
    <path d="M0 4390 c0 -7 3 -10 7 -7 3 4 3 10 0 14 -4 3 -7 0 -7 -7z" />
    <path d="M2720 3930 l-15 -10 12 0 c6 0 15 5 18 10 8 12 4 12 -15 0z" />
    <path d="M2 3895 l0 -30 5 18 c2 9 2 23 0 30 -3 6 -5 -1 -5 -18z" />
    <path d="M20 3883 c0 -12 -6 -24 -12 -26 -7 -3 -3 -6 9 -6 l23 -1 -3 20 c-4
28 -17 37 -17 13z" />
    <path d="M2630 3880 l0 -20 -21 0 -20 0 6 -10 c10 -16 41 -11 66 11 l24 21
-17 -6 -17 -5 6 15 5 14 -16 0 -16 0 0 -20z" />
    <path d="M2685 3890 c3 -5 13 -6 22 -3 l16 6 -5 -21 c-4 -12 -3 -24 1 -26 4
-3 8 9 9 25 l2 29 -25 0 -26 0 6 -10z" />
    <path d="M2685 3861 c-3 -5 -2 -12 3 -15 5 -3 9 1 9 9 0 17 -3 19 -12 6z" />
    <path d="M2748 3458 c-3 -7 -6 -138 -7 -290 l-2 -278 10 0 11 0 0 290 c0 160
-2 290 -4 290 -2 0 -6 -6 -8 -12z" />
    <path d="M1 3421 l1 -26 5 16 4 16 57 -5 57 -4 -10 10 c-5 5 -34 12 -62 14
l-53 5 1 -26z" />
    <path d="M2662 3439 c-13 -5 -28 -6 -33 -3 -6 3 -18 2 -27 -2 l-17 -7 35 -6
35 -6 -1 -23 -1 -23 11 11 10 10 -12 20 -12 20 14 0 c8 0 18 5 21 10 7 12 7
12 -23 -1z" />
    <path d="M24 3200 c0 -107 2 -151 3 -97 2 53 2 141 0 195 -1 53 -3 9 -3 -98z" />
    <path d="M20 2862 l0 -142 11 0 11 0 -5 136 c-3 75 -8 139 -11 142 -3 3 -6
-58 -6 -136z" />
    <path d="M2663 2963 c4 -3 10 -3 14 0 3 4 0 7 -7 7 -7 0 -10 -3 -7 -7z" />
    <path d="M2603 2953 c4 -3 10 -3 14 0 3 4 0 7 -7 7 -7 0 -10 -3 -7 -7z" />
    <path d="M2640 2930 c0 -5 9 -10 20 -10 11 0 20 5 20 10 0 6 -9 10 -20 10 -11
0 -20 -4 -20 -10z" />
    <path d="M76 2891 c2 -3 14 -6 25 -8 l20 -3 -6 9 c-3 6 -14 9 -25 8 -10 -1
-17 -3 -14 -6z" />
    <path d="M2730 2876 c0 -2 7 -6 15 -10 8 -3 15 -1 15 4 0 6 -7 10 -15 10 -8 0
-15 -2 -15 -4z" />
    <path d="M2722 2792 l1 -67 -24 -12 c-13 -7 -18 -13 -11 -13 7 0 22 5 34 11
l20 11 -7 -21 c-3 -12 -3 -21 2 -21 4 0 8 -112 8 -248 l0 -248 -55 4 -55 4 10
-10 c6 -5 34 -12 63 -14 l52 -5 0 345 c-1 189 -4 342 -7 338 -4 -4 -6 -30 -4
-59 1 -28 0 -50 -3 -47 -2 3 -6 29 -7 58 -4 78 -17 73 -17 -6z" />
    <path d="M2573 2713 c4 -3 10 -3 14 0 3 4 0 7 -7 7 -7 0 -10 -3 -7 -7z" />
    <path d="M2648 2674 c-2 -25 0 -51 4 -57 l8 -12 0 58 c0 31 -2 57 -4 57 -2 0
-6 -21 -8 -46z" />
    <path d="M0 2680 c0 -5 9 -10 20 -10 11 0 20 5 20 10 0 6 -9 10 -20 10 -11 0
-20 -4 -20 -10z" />
    <path d="M63 2653 c4 -3 10 -3 14 0 3 4 0 7 -7 7 -7 0 -10 -3 -7 -7z" />
    <path d="M3 2643 c4 -3 10 -3 14 0 3 4 0 7 -7 7 -7 0 -10 -3 -7 -7z" />
    <path d="M2654 2410 c0 -107 2 -151 3 -97 2 53 2 141 0 195 -1 53 -3 9 -3 -98z" />
    <path d="M14 2225 c-4 -8 -1 -22 5 -29 l12 -14 -18 -5 c-10 -2 2 -3 27 -2 25
1 47 4 50 5 3 1 -11 5 -30 9 l-35 6 1 23 c1 26 -4 28 -12 7z" />
    <path d="M22 1754 c-12 -8 -22 -20 -22 -26 l0 -10 15 12 15 13 -6 -17 -6 -16
16 0 16 0 0 20 0 20 21 0 20 0 -6 10 c-9 15 -37 12 -63 -6z" />
    <path d="M2723 1740 c4 -28 17 -37 17 -12 0 11 6 23 13 25 6 3 2 6 -10 6 l-23
1 3 -20z" />
    <path d="M2751 1724 l1 -19 5 13 c3 7 2 16 -1 19 -3 4 -6 -2 -5 -13z" />
    <path d="M15 1200 c3 -5 1 -11 -5 -15 -14 -8 -13 -35 1 -35 l11 0 -5 15 c-4 8
-2 17 3 20 5 3 12 -6 16 -20 7 -27 18 -32 30 -14 l7 12 -17 9 c-9 5 -14 13
-11 17 2 5 -4 11 -15 14 -11 3 -18 1 -15 -3z" />
    <path d="M2731 1164 l1 -19 5 13 c3 7 2 16 -1 19 -3 4 -6 -2 -5 -13z" />
    <path d="M45 950 l6 -10 -25 0 -26 0 0 -187 c0 -102 2 -184 5 -182 2 3 5 85 5
182 l2 177 17 0 c9 0 26 7 37 15 l19 14 -23 1 -23 0 6 -10z" />
    <path d="M2605 950 c4 -6 11 -8 16 -5 14 9 11 15 -7 15 l-15 0 6 -10z" />
    <path d="M2670 945 c7 -8 16 -15 20 -15 4 0 10 7 14 15 l5 15 -26 0 -25 0 12
-15z" />
    <path d="M2741 943 c7 -10 14 -20 16 -22 1 -2 1 6 0 18 l-1 21 -14 0 -14 0 13
-17z" />
    <path d="M2643 933 c4 -3 10 -3 14 0 3 4 0 7 -7 7 -7 0 -10 -3 -7 -7z" />
    <path d="M2719 932 c7 -5 11 -14 8 -20 -4 -5 3 -18 16 -28 l22 -19 -15 19 c-8
10 -15 26 -15 34 0 8 -7 17 -15 19 l-15 5 14 -10z" />
    <path d="M43 913 c4 -3 10 -3 14 0 3 4 0 7 -7 7 -7 0 -10 -3 -7 -7z" />
    <path d="M2722 851 c0 -3 0 -75 -1 -158 l-1 -153 -1324 0 -1324 0 -5 12 -5 13
-1 -17 c-1 -20 -21 -25 -21 -5 l0 12 -10 -15 c-5 -8 -10 -52 -10 -97 l0 -83
10 0 10 0 0 65 0 65 1334 0 1334 0 6 -16 c3 -9 6 -25 6 -36 0 -12 3 -18 6 -15
4 3 6 99 5 213 l-2 206 9 -6 c5 -3 9 1 9 8 0 7 -6 13 -13 13 -7 0 -13 -3 -12
-6z" />
    <path d="M25 580 c3 -5 8 -10 11 -10 2 0 4 5 4 10 0 6 -5 10 -11 10 -5 0 -7
-4 -4 -10z" />
    <path d="M3 465 c0 -38 2 -53 4 -32 2 20 2 52 0 70 -2 17 -4 1 -4 -38z" />
    <path d="M2720 371 l0 -32 9 6 c5 3 12 -7 14 -22 2 -16 3 -8 1 17 -2 24 -9 49
-14 54 l-10 10 0 -33z" />
    <path d="M20 313 c-1 -16 -2 -49 -4 -76 -2 -26 0 -50 5 -53 l9 -5 0 80 c0 45
-2 81 -5 81 -3 0 -5 -12 -5 -27z" />
    <path d="M2752 200 c0 -19 2 -27 5 -17 2 9 2 25 0 35 -3 9 -5 1 -5 -18z" />
    <path d="M2727 201 l-6 -24 11 11 c5 5 8 16 6 23 l-4 13 -7 -23z" />
    <path d="M2720 127 l0 -26 15 5 c8 4 15 10 15 14 0 4 -7 13 -15 20 l-15 12 0
-25z" />
    <path d="M13 113 c-18 -7 -16 -49 4 -68 l16 -17 9 16 c5 9 6 21 3 26 -9 14
-27 1 -19 -13 l7 -12 -8 8 c-13 12 -15 36 -3 44 l11 6 -8 -13 -8 -13 11 7 c13
8 16 36 5 35 -5 0 -14 -3 -20 -6z" />
    <path d="M2717 66 c-30 -45 -16 -65 15 -22 l16 23 -7 12 -8 12 -16 -25z m23 0
c0 -2 -8 -10 -17 -17 l-18 -14 14 18 c13 16 21 21 21 13z" />
    <path d="M62 24 l3 -16 501 -1 501 -2 -4 13 -5 12 -475 0 -474 0 6 -10 6 -10
-15 0 c-9 0 -16 4 -16 9 0 5 -7 12 -16 15 l-15 6 3 -16z" />
    <path d="M1076 15 l5 -12 282 4 c155 2 295 5 310 8 l28 5 -6 -10 -6 -10 20 0
20 0 -5 13 -4 13 -324 0 -324 1 4 -12z" />
    <path d="M1732 19 l3 -10 473 -2 472 -2 0 14 0 13 -15 -12 -15 -12 0 11 0 11
-461 0 -460 -1 3 -10z" />
  </g>
  <g transform="translate(0.000000,573.000000) scale(0.100000,-0.100000)" fill="#5a5a5a" stroke="none">
    <path d="M86 5722 c-3 -5 1 -9 9 -9 8 0 12 4 9 9 -3 4 -7 8 -9 8 -2 0 -6 -4
-9 -8z" />
    <path d="M2687 5724 c-4 -4 -7 -17 -7 -28 l1 -21 10 18 c11 19 8 43 -4 31z" />
    <path d="M36 5696 l7 -21 -17 14 -16 13 0 -10 c0 -16 31 -24 46 -11 16 13 9
36 -12 36 l-14 0 6 -21z" />
    <path d="M1520 5710 c0 -5 5 -10 11 -10 5 0 7 5 4 10 -3 6 -8 10 -11 10 -2 0
-4 -4 -4 -10z" />
    <path d="M1635 5710 c-3 -5 -1 -10 4 -10 6 0 11 5 11 10 0 6 -2 10 -4 10 -3 0
-8 -4 -11 -10z" />
    <path d="M2715 5700 c3 -5 8 -10 11 -10 3 0 2 5 -1 10 -3 6 -8 10 -11 10 -3 0
-2 -4 1 -10z" />
    <path d="M2745 5650 l4 -20 -12 -1 c-7 -1 -15 -1 -19 0 -12 2 -9 -117 2 -124
l10 -6 0 60 0 61 10 0 10 0 3 -162 3 -163 1 182 1 183 -8 5 c-5 3 -7 -4 -5
-15z" />
    <path d="M10 5645 l-12 -15 10 0 c5 0 12 7 16 15 3 8 4 15 2 15 -2 0 -9 -7
-16 -15z" />
    <path d="M2710 5364 l0 -15 10 6 c6 3 10 10 10 16 0 5 -4 9 -10 9 -5 0 -10 -7
-10 -16z" />
    <path d="M20 5283 c0 -16 4 -34 8 -40 l8 -13 1342 -2 1342 -3 0 43 0 42 -1350
0 -1350 0 0 -27z" />
    <path d="M2752 5250 c0 -19 2 -27 5 -17 2 9 2 25 0 35 -3 9 -5 1 -5 -18z" />
    <path d="M20 4770 l0 -10 1340 -2 1340 -3 -3 10 -4 10 -1336 3 -1337 2 0 -10z" />
    <path d="M2750 4730 c0 -7 3 -10 7 -7 3 4 3 10 0 14 -4 3 -7 0 -7 -7z" />
    <path d="M10 4715 l-13 -15 17 6 c9 3 16 10 16 15 0 13 -6 11 -20 -6z" />
    <path d="M2670 4694 l0 -16 15 12 c8 7 15 14 15 16 0 2 -7 4 -15 4 -8 0 -15
-7 -15 -16z" />
    <path d="M56 4685 l6 -16 22 7 c11 3 25 10 31 15 l9 9 -37 0 -36 0 5 -15z" />
    <path d="M2635 4690 c4 -6 11 -8 16 -5 14 9 11 15 -7 15 l-15 0 6 -10z" />
    <path d="M2750 4640 c0 -7 3 -10 7 -7 3 4 3 10 0 14 -4 3 -7 0 -7 -7z" />
    <path d="M2752 4465 l0 -30 5 18 c2 9 2 23 0 30 -3 6 -5 -1 -5 -18z" />
    <path d="M1 4464 l1 -19 5 13 c3 7 2 16 -1 19 -3 4 -6 -2 -5 -13z" />
    <path d="M2630 4446 c0 -9 5 -16 10 -16 6 0 10 4 10 9 0 6 -4 13 -10 16 l-10
6 0 -15z" />
    <path d="M20 4431 c0 -6 4 -13 10 -16 l10 -6 -6 15 c-7 18 -14 21 -14 7z" />
    <path d="M2664 4428 l-7 -11 11 7 c12 7 16 16 8 16 -3 0 -8 -5 -12 -12z" />
    <path d="M3 4399 c-2 -23 3 -25 10 -4 4 8 3 16 -1 19 -4 3 -9 -4 -9 -15z" />
    <path d="M2628 4413 c7 -3 16 -2 19 1 4 3 -2 6 -13 5 l-19 -1 13 -5z" />
    <path d="M2743 4355 c0 -8 4 -12 9 -9 5 3 6 10 3 15 -9 13 -12 11 -12 -6z" />
    <path d="M1 3904 l1 -19 5 13 c3 7 2 16 -1 19 -3 4 -6 -2 -5 -13z" />
    <path d="M2750 3910 c0 -7 3 -10 7 -7 3 4 3 10 0 14 -4 3 -7 0 -7 -7z" />
    <path d="M25 3881 c-3 -5 -2 -12 3 -15 5 -3 9 1 9 9 0 17 -3 19 -12 6z" />
    <path d="M2621 3868 l-11 -18 15 0 c8 0 15 5 15 10 0 6 3 9 8 9 17 -3 32 2 32
9 0 4 -11 8 -24 8 l-24 0 -11 -18z" />
    <path d="M2750 3840 c0 -7 3 -10 7 -7 3 4 3 10 0 14 -4 3 -7 0 -7 -7z" />
    <path d="M2754 3620 c0 -91 2 -128 3 -82 2 45 2 119 0 165 -1 45 -3 8 -3 -83z" />
    <path d="M36 2892 c-3 -5 1 -9 9 -9 8 0 12 4 9 9 -3 4 -7 8 -9 8 -2 0 -6 -4
-9 -8z" />
    <path d="M2700 2891 c0 -5 7 -12 16 -15 22 -9 24 -8 18 9 -7 16 -34 21 -34 6z" />
    <path d="M2748 2857 l-6 -29 10 10 c6 6 8 18 6 28 l-4 19 -6 -28z" />
    <path d="M2723 2735 c0 -7 9 -16 19 -18 10 -3 18 -1 18 4 0 4 -8 13 -18 18
l-19 10 0 -14z" />
    <path d="M2743 2683 c4 -3 10 -3 14 0 3 4 0 7 -7 7 -7 0 -10 -3 -7 -7z" />
    <path d="M40 1750 c0 -5 -3 -9 -7 -9 -18 3 -33 -2 -33 -9 0 -4 11 -8 24 -8
l24 0 11 18 11 18 -15 0 c-8 0 -15 -4 -15 -10z" />
    <path d="M2723 1735 c0 -8 4 -12 9 -9 5 3 6 10 3 15 -9 13 -12 11 -12 -6z" />
    <path d="M2745 1200 c3 -5 8 -10 11 -10 3 0 2 5 -1 10 -3 6 -8 10 -11 10 -3 0
-2 -4 1 -10z" />
    <path d="M38 1193 c7 -3 16 -2 19 1 4 3 -2 6 -13 5 l-19 -1 13 -5z" />
    <path d="M2726 1187 c3 -10 9 -15 12 -12 3 3 0 11 -7 18 l-12 12 7 -18z" />
    <path d="M4 1178 l-7 -11 11 7 c7 4 12 9 12 12 0 8 -9 4 -16 -8z" />
    <path d="M30 1171 c0 -6 5 -13 10 -16 l10 -6 0 15 c0 9 -4 16 -10 16 -5 0 -10
-4 -10 -9z" />
    <path d="M30 463 l0 -43 1350 0 1350 0 0 28 c0 15 -4 33 -8 39 l-8 13 -1342 2
-1342 3 0 -42z" />
    <path d="M26 371 c-4 -7 -5 -15 -2 -18 9 -9 19 4 14 18 l-4 13 -8 -13z" />
    <path d="M20 171 l0 -59 -13 -5 c-6 -3 -2 -4 11 -4 l22 1 0 58 c0 31 -4 60
-10 63 l-10 6 0 -60z" />
    <path d="M2726 84 l-6 -17 15 13 c17 14 19 20 6 20 -5 0 -12 -7 -15 -16z" />
    <path d="M1 74 l1 -19 5 13 c3 7 2 16 -1 19 -3 4 -6 -2 -5 -13z" />
    <path d="M2692 48 c-14 -14 -4 -38 13 -32 l14 6 -6 14 -5 14 16 -6 c9 -3 16
-2 16 3 0 13 -35 14 -48 1z" />
    <path d="M53 31 l-13 -20 10 -6 c11 -7 24 18 18 35 -2 6 -9 1 -15 -9z" />
    <path d="M1100 19 c0 -5 5 -7 10 -4 6 3 10 8 10 11 0 2 -4 4 -10 4 -5 0 -10
-5 -10 -11z" />
    <path d="M1215 20 c3 -5 8 -10 11 -10 2 0 4 5 4 10 0 6 -5 10 -11 10 -5 0 -7
-4 -4 -10z" />
    <path d="M2646 8 c3 -5 10 -6 15 -3 13 9 11 12 -6 12 -8 0 -12 -4 -9 -9z" />
  </g>
  <g transform="translate(0.000000,573.000000) scale(0.100000,-0.100000)" fill="#8b8b8b" stroke="none">
    <path d="M83 5705 c0 -7 6 -12 14 -11 19 3 21 19 2 21 -9 2 -16 -3 -16 -10z" />
    <path d="M2633 5703 c4 -3 10 -3 14 0 3 4 0 7 -7 7 -7 0 -10 -3 -7 -7z" />
    <path d="M2680 5681 c0 -5 8 -12 17 -15 l16 -7 -21 -15 -22 -15 -17 8 c-10 4
-586 7 -1281 5 l-1263 -2 7 -12 7 -11 -12 7 c-7 5 -10 14 -7 22 3 7 0 16 -7
20 -7 4 -9 4 -5 -1 8 -9 -16 -35 -33 -35 l-12 0 17 19 17 19 -10 6 c-5 4 -15
-3 -21 -14 -6 -11 -16 -20 -23 -20 l-13 0 4 -35 4 -35 1269 -1 c698 -1 1304
-1 1347 -2 l77 -1 6 42 5 42 -18 20 c-20 22 -28 25 -28 11z m27 -58 c-4 -3
-10 -3 -14 0 -3 4 0 7 7 7 7 0 10 -3 7 -7z" />
    <path d="M0 5670 c0 -7 3 -10 7 -7 3 4 3 10 0 14 -4 3 -7 0 -7 -7z" />
    <path d="M23 4734 c-3 -8 0 -21 7 -27 l13 -12 -6 17 -6 18 1292 0 c711 0 1311
0 1335 0 l42 0 0 10 0 10 -1335 0 -1336 0 -6 -16z" />
    <path d="M2670 4705 l0 -14 15 5 c8 4 12 10 9 15 -8 14 -24 10 -24 -6z" />
    <path d="M90 4460 c0 -6 -10 -10 -22 -10 l-22 0 18 -17 18 -18 5 13 c3 6 11
12 19 12 19 0 18 16 -1 24 -8 3 -15 1 -15 -4z" />
    <path d="M2625 4450 c-8 -13 -1 -24 14 -19 l10 4 -8 14 -8 13 -8 -12z" />
    <path d="M36 3891 c-3 -5 1 -11 9 -15 l15 -5 0 14 c0 16 -16 20 -24 6z" />
    <path d="M2620 3865 l-13 -15 17 6 c9 3 16 10 16 15 0 13 -6 11 -20 -6z" />
    <path d="M30 3475 c0 -8 5 -15 10 -15 6 0 10 7 10 15 0 8 -4 15 -10 15 -5 0
-10 -7 -10 -15z" />
    <path d="M2610 3486 c0 -2 8 -10 18 -17 l17 -14 -14 18 c-13 16 -21 21 -21 13z" />
    <path d="M2700 2892 c0 -4 -596 -6 -1325 -5 l-1324 3 -6 -10 -6 -10 1335 0
1336 0 0 -71 0 -70 10 6 11 7 -3 74 -2 73 -13 5 c-7 3 -13 2 -13 -2z" />
    <path d="M40 2146 c0 -2 8 -10 18 -17 l17 -14 -14 18 c-13 16 -21 21 -21 13z" />
    <path d="M2710 2135 c0 -8 5 -15 10 -15 6 0 10 7 10 15 0 8 -4 15 -10 15 -5 0
-10 -7 -10 -15z" />
    <path d="M50 1750 c-8 -5 -12 -12 -9 -15 4 -3 12 1 19 10 14 17 11 19 -10 5z" />
    <path d="M2700 1725 c0 -16 16 -20 24 -6 3 5 -1 11 -9 15 l-15 5 0 -14z" />
    <path d="M2670 1180 c0 -5 -7 -10 -15 -10 -8 0 -15 -4 -15 -9 0 -5 7 -11 15
-15 8 -3 15 -1 15 4 0 6 10 10 21 10 l21 0 -12 15 c-14 17 -30 20 -30 5z" />
    <path d="M36 1165 c4 -8 10 -12 15 -9 14 8 10 24 -6 24 l-14 0 5 -15z" />
    <path d="M35 160 c-2 -3 -5 -22 -6 -42 l-3 -38 17 -21 c10 -11 21 -18 25 -14
4 3 -1 11 -11 17 l-19 10 21 14 21 15 17 -8 c10 -4 586 -7 1281 -5 l1263 2 -7
12 -7 11 12 -7 c7 -5 10 -14 7 -22 -3 -7 0 -16 7 -20 7 -4 9 -4 5 1 -8 9 16
35 33 35 l12 0 -17 -19 -17 -19 10 -6 c5 -4 15 3 21 14 6 11 16 20 23 20 l13
0 -4 35 -4 35 -1267 1 c-696 0 -1301 2 -1344 2 -44 1 -80 0 -82 -3z m22 -57
c-4 -3 -10 -3 -14 0 -3 4 0 7 7 7 7 0 10 -3 7 -7z" />
    <path d="M2736 62 c-3 -5 1 -9 9 -9 8 0 12 4 9 9 -3 4 -7 8 -9 8 -2 0 -6 -4
-9 -8z" />
    <path d="M2634 28 c-3 -4 -4 -8 -2 -9 25 -6 35 -5 35 5 0 14 -25 17 -33 4z" />
    <path d="M103 23 c4 -3 10 -3 14 0 3 4 0 7 -7 7 -7 0 -10 -3 -7 -7z" />
  </g>
  <g transform="translate(0.000000,573.000000) scale(0.100000,-0.100000)" fill="#636363" stroke="none">
    <path d="M70 5705 c-7 -8 -16 -12 -21 -9 -5 3 -9 -2 -9 -10 0 -9 5 -16 10 -16
6 0 10 5 10 10 0 6 6 10 13 10 8 0 14 7 14 15 0 8 -1 15 -2 15 -2 0 -8 -7 -15
-15z" />
    <path d="M105 5710 c3 -5 8 -10 11 -10 3 0 2 5 -1 10 -3 6 -8 10 -11 10 -3 0
-2 -4 1 -10z" />
    <path d="M2715 5650 c3 -5 8 -10 11 -10 3 0 2 5 -1 10 -3 6 -8 10 -11 10 -3 0
-2 -4 1 -10z" />
    <path d="M2745 5620 c3 -5 8 -10 11 -10 2 0 4 5 4 10 0 6 -5 10 -11 10 -5 0
-7 -4 -4 -10z" />
    <path d="M20 5345 l0 -45 1333 -2 c733 -2 1341 -2 1350 0 l17 3 0 39 c0 21 -5
42 -10 45 l-10 6 0 -15 0 -16 -1319 0 -1320 0 -15 15 c-8 8 -17 15 -20 15 -3
0 -6 -20 -6 -45z" />
    <path d="M2665 4770 l-6 -10 16 0 c9 0 14 -4 10 -9 -3 -5 -1 -12 5 -16 l10 -6
0 14 c0 8 -6 20 -14 26 l-14 12 -7 -11z" />
    <path d="M23 4763 c4 -3 10 -3 14 0 3 4 0 7 -7 7 -7 0 -10 -3 -7 -7z" />
    <path d="M40 4455 c0 -8 6 -15 13 -15 8 0 14 7 14 15 0 8 -6 15 -14 15 -7 0
-13 -7 -13 -15z" />
    <path d="M2603 4453 c0 -7 4 -13 8 -13 4 0 16 -3 26 -6 l18 -6 -18 12 c-9 6
-15 15 -13 19 3 4 -1 8 -8 8 -7 0 -13 -6 -13 -14z" />
    <path d="M48 4418 c-13 -3 564 -6 1282 -6 718 0 1300 1 1295 4 -17 7 -2552 10
-2577 2z" />
    <path d="M30 3858 c0 -5 584 -7 1298 -6 713 2 1088 4 832 5 -1228 7 -2130 7
-2130 1z" />
    <path d="M2625 3460 l-6 -10 15 0 c9 0 16 5 16 10 0 6 -4 10 -9 10 -6 0 -13
-4 -16 -10z" />
    <path d="M2717 2893 c-4 -3 -7 -11 -7 -17 l0 -10 12 12 c6 6 9 14 7 17 -3 3
-9 2 -12 -2z" />
    <path d="M2717 2729 c7 -7 15 -10 18 -7 3 3 -2 9 -12 12 l-18 7 12 -12z" />
    <path d="M30 2150 c0 -5 4 -10 9 -10 6 0 13 5 16 10 l6 10 -15 0 c-9 0 -16 -4
-16 -10z" />
    <path d="M535 1753 c1269 -7 2195 -7 2195 0 0 4 -602 6 -1337 5 -736 -2 -1122
-4 -858 -5z" />
    <path d="M52 1195 c6 -7 2670 -7 2676 0 3 3 -599 5 -1338 5 -739 0 -1341 -2
-1338 -5z" />
    <path d="M43 1170 c9 -6 15 -15 13 -19 -3 -4 1 -8 8 -8 7 0 13 6 13 14 0 7 -4
13 -8 13 -4 0 -16 3 -26 6 l-18 6 18 -12z" />
    <path d="M2693 1155 c0 -8 6 -15 14 -15 7 0 13 7 13 15 0 8 -6 15 -13 15 -8 0
-14 -7 -14 -15z" />
    <path d="M47 432 l-17 -3 0 -39 c0 -21 5 -42 10 -45 l10 -6 0 15 0 16 1319 0
1320 0 15 -15 c8 -8 17 -15 20 -15 3 0 6 20 6 45 l0 45 -1333 2 c-733 2 -1341
2 -1350 0z" />
    <path d="M25 80 c3 -5 8 -10 11 -10 3 0 2 5 -1 10 -3 6 -8 10 -11 10 -3 0 -2
-4 1 -10z" />
    <path d="M2690 50 c0 -5 -6 -10 -13 -10 -8 0 -14 -7 -14 -15 l0 -15 17 15 c9
8 20 12 23 8 4 -3 7 1 7 10 0 10 -4 17 -10 17 -5 0 -10 -4 -10 -10z" />
    <path d="M2635 20 c3 -5 8 -10 11 -10 3 0 2 5 -1 10 -3 6 -8 10 -11 10 -3 0
-2 -4 1 -10z" />
  </g>
  <g transform="translate(0.000000,573.000000) scale(0.100000,-0.100000)" fill="#828282" stroke="none">
    <path d="M47 5702 c-3 -6 -2 -17 2 -38 1 -9 31 16 31 26 0 11 -28 21 -33 12z
m18 -12 c3 -5 4 -10 1 -10 -3 0 -8 5 -11 10 -3 6 -4 10 -1 10 3 0 8 -4 11 -10z" />
    <path d="M6 5683 l-7 -18 12 12 c7 7 10 15 7 18 -3 3 -9 -2 -12 -12z" />
    <path d="M10 5640 c0 -5 5 -10 11 -10 5 0 7 5 4 10 -3 6 -8 10 -11 10 -2 0 -4
-4 -4 -10z" />
    <path d="M2746 5635 c-3 -8 -1 -15 4 -15 6 0 10 7 10 15 0 8 -2 15 -4 15 -2 0
-6 -7 -10 -15z" />
    <path d="M2710 5630 c0 -7 3 -10 7 -7 3 4 3 10 0 14 -4 3 -7 0 -7 -7z" />
    <path d="M22 5585 c-1 -22 2 -46 6 -52 l8 -13 1332 -2 1332 -3 0 10 c0 6 5 3
10 -5 l10 -15 0 39 0 38 -15 -6 -15 -5 0 17 0 17 -8 -12 -7 -11 -50 -2 c-28
-1 -622 -1 -1322 -1 l-1272 1 -4 23 -4 22 -1 -40z" />
    <path d="M27 4743 c-3 -5 597 -8 1333 -8 736 0 1336 3 1333 8 -2 4 -602 7
-1333 7 -731 0 -1331 -3 -1333 -7z" />
    <path d="M30 4695 c0 -8 2 -15 4 -15 2 0 6 7 10 15 3 8 1 15 -4 15 -6 0 -10
-7 -10 -15z" />
    <path d="M83 4455 l0 -15 24 0 24 0 -6 10 c-4 6 -11 8 -16 5 -5 -4 -9 -1 -9 4
0 6 -4 11 -8 11 -5 0 -9 -7 -9 -15z" />
    <path d="M73 4423 c4 -3 10 -3 14 0 3 4 0 7 -7 7 -7 0 -10 -3 -7 -7z" />
    <path d="M2600 4420 c0 -7 3 -10 7 -7 3 4 3 10 0 14 -4 3 -7 0 -7 -7z" />
    <path d="M26 3888 c3 -5 10 -6 15 -3 13 9 11 12 -6 12 -8 0 -12 -4 -9 -9z" />
    <path d="M2620 3893 c0 -5 4 -14 9 -21 l8 -14 6 21 5 21 -14 0 c-8 0 -14 -3
-14 -7z" />
    <path d="M30 2880 c0 -5 5 -10 11 -10 5 0 7 5 4 10 -3 6 -8 10 -11 10 -2 0 -4
-4 -4 -10z" />
    <path d="M37 1731 l-5 -21 14 0 c16 0 18 9 5 28 l-8 14 -6 -21z" />
    <path d="M2716 1722 c-3 -5 1 -9 9 -9 8 0 12 4 9 9 -3 4 -7 8 -9 8 -2 0 -6 -4
-9 -8z" />
    <path d="M70 1190 c0 -7 3 -10 7 -7 3 4 3 10 0 14 -4 3 -7 0 -7 -7z" />
    <path d="M2673 1183 c4 -3 10 -3 14 0 3 4 0 7 -7 7 -7 0 -10 -3 -7 -7z" />
    <path d="M2635 1160 c4 -6 11 -8 16 -5 5 4 9 1 9 -4 0 -6 4 -11 8 -11 5 0 9 7
9 15 l0 15 -24 0 -24 0 6 -10z" />
    <path d="M30 186 l0 -38 15 6 15 5 0 -17 0 -17 8 12 7 11 50 2 c28 1 622 1
1322 1 l1272 -1 4 -23 4 -22 1 40 c1 22 -2 46 -6 52 l-8 13 -1332 2 -1332 3 0
-10 c0 -5 -5 -3 -10 5 l-10 15 0 -39z" />
    <path d="M30 100 c0 -7 3 -10 7 -7 3 4 3 10 0 14 -4 3 -7 0 -7 -7z" />
    <path d="M2725 90 c3 -5 8 -10 11 -10 2 0 4 5 4 10 0 6 -5 10 -11 10 -5 0 -7
-4 -4 -10z" />
    <path d="M2679 53 l-14 -16 12 -4 c20 -7 27 -4 29 12 3 22 -12 27 -27 8z m16
-13 c3 -5 4 -10 1 -10 -3 0 -8 5 -11 10 -3 6 -4 10 -1 10 3 0 8 -4 11 -10z" />
  </g>
  <g transform="translate(0.000000,573.000000) scale(0.100000,-0.100000)" fill="#e5e5e5" stroke="none">
    <path d="M1372 2883 l-1342 -3 0 -75 0 -75 1345 0 1345 0 0 80 c0 44 -1 79 -2
78 -2 -2 -607 -4 -1346 -5z" />
  </g>
  <g transform="translate(0.000000,573.000000) scale(0.100000,-0.100000)" fill="#6a6a6a" stroke="none">
    <path d="M26 5711 c-3 -5 1 -11 9 -14 l14 -6 -6 15 c-6 16 -10 17 -17 5z" />
    <path d="M20 5410 c0 -8 3 -25 6 -37 l6 -23 1323 0 c728 0 1331 -3 1339 -6
l16 -6 0 33 0 34 -10 -15 -10 -15 0 15 0 15 -1327 -3 -1327 -2 -8 12 -8 13 0
-15z" />
    <path d="M693 4763 c367 -2 967 -2 1335 0 367 1 66 2 -668 2 -734 0 -1035 -1
-667 -2z" />
    <path d="M2680 4716 c0 -2 8 -10 18 -17 l17 -14 -14 18 c-13 16 -21 21 -21 13z" />
    <path d="M123 4413 c4 -3 10 -3 14 0 3 4 0 7 -7 7 -7 0 -10 -3 -7 -7z" />
    <path d="M25 3460 l-6 -10 21 0 21 0 -6 10 c-3 6 -10 10 -15 10 -5 0 -12 -4
-15 -10z" />
    <path d="M30 2729 c0 -5 5 -7 10 -4 6 3 10 8 10 11 0 2 -4 4 -10 4 -5 0 -10
-5 -10 -11z" />
    <path d="M2708 2148 l12 -12 12 12 12 12 -24 0 -24 0 12 -12z" />
    <path d="M2623 1193 c4 -3 10 -3 14 0 3 4 0 7 -7 7 -7 0 -10 -3 -7 -7z" />
    <path d="M40 359 l0 -34 10 15 10 15 0 -15 0 -15 1327 3 1327 2 8 -12 8 -13 0
15 c0 8 -3 25 -6 37 l-6 23 -1323 0 c-728 0 -1331 3 -1339 6 l-16 6 0 -33z" />
    <path d="M2705 30 c3 -5 8 -10 11 -10 3 0 2 5 -1 10 -3 6 -8 10 -11 10 -3 0
-2 -4 1 -10z" />
  </g>
  <g transform="translate(0.000000,573.000000) scale(0.100000,-0.100000)" fill="#171717" stroke="none">
    <path d="M5 4640 c-2 -3 3 -16 11 -30 l15 -25 -6 23 -6 22 1340 0 1341 0 0
-11 c0 -5 -5 -7 -11 -3 l-11 6 11 -21 c7 -11 13 -21 14 -21 1 0 2 15 3 33 l0
32 -1349 0 c-742 0 -1350 -2 -1352 -5z" />
    <path d="M2690 4531 l0 -40 -43 3 -43 3 -1 -19 -2 -20 15 18 16 19 -6 -17 c-6
-22 10 -33 18 -13 7 18 37 20 55 3 l14 -13 -8 15 c-5 8 -8 33 -6 57 1 24 0 43
-3 43 -3 0 -6 -18 -6 -39z" />
    <path d="M6 4485 c-3 -9 -6 -18 -6 -19 0 -1 15 -3 34 -4 19 -1 37 2 41 8 3 5
12 10 18 10 l12 0 -12 -8 c-10 -6 1252 -6 2152 1 193 1 -209 3 -892 5 -684 1
-1243 6 -1243 10 0 11 -40 13 -60 2 l-17 -9 -10 10 -10 10 -7 -16z" />
    <path d="M2665 4460 c-3 -5 -1 -10 4 -10 6 0 11 5 11 10 0 6 -2 10 -4 10 -3 0
-8 -4 -11 -10z" />
    <path d="M0 4388 c0 -5 585 -9 1300 -9 715 -1 1303 -2 1308 -4 4 -1 24 -5 45
-9 l38 -8 -3 -218 -3 -218 9 5 c5 4 6 1 2 -5 -3 -6 -1 -14 5 -18 l12 -7 -7 11
-7 12 12 0 11 0 -11 13 -11 14 1 205 c1 113 -2 211 -5 217 l-7 11 16 -6 15 -6
-5 13 -5 14 -1355 0 c-745 0 -1355 -3 -1355 -7z" />
    <path d="M10 4355 c-14 -17 0 -21 16 -5 l10 10 1303 -2 c716 -2 1292 0 1279 4
-13 3 -602 6 -1309 7 l-1287 1 -12 -15z" />
    <path d="M5 3922 c-3 -8 -5 -17 -5 -22 0 -13 29 -5 51 13 27 23 36 21 14 -3
l-18 -20 38 0 39 0 -11 11 c-6 6 -9 18 -6 25 l5 14 -51 -2 -51 -3 -5 -13z m45
4 c0 -2 -7 -7 -16 -10 l-15 -6 6 10 c6 10 25 14 25 6z" />
    <path d="M2604 3914 l0 -21 42 1 42 0 -10 21 c-14 26 -23 34 -15 13 l6 -16
-22 -6 c-12 -3 -26 -1 -31 4 l-10 10 16 0 c9 0 19 3 21 8 3 4 -5 7 -17 7 l-22
0 0 -21z" />
    <path d="M11 1711 l-13 -9 12 -18 12 -19 -6 17 -5 16 22 6 c12 3 26 1 31 -4
l10 -10 -16 0 c-9 0 -19 -3 -21 -7 -3 -5 5 -8 17 -8 l22 0 0 21 0 20 -25 2
c-15 1 -32 -2 -40 -7z" />
    <path d="M2647 1709 c6 -6 9 -18 6 -26 l-5 -14 48 3 c48 3 64 11 64 35 0 15
-27 10 -51 -10 -27 -23 -36 -21 -14 3 l18 20 -38 0 -39 0 11 -11z m88 -19 c-3
-5 -12 -10 -18 -10 l-12 0 15 10 c19 12 23 12 15 0z" />
    <path d="M2734 1260 l-10 -10 -1343 2 c-738 2 -1332 0 -1319 -4 13 -3 620 -6
1349 -7 l1327 -1 12 15 c14 17 0 21 -16 5z" />
    <path d="M0 1236 l0 -16 18 0 c9 0 630 -1 1379 -3 750 -1 1363 1 1363 6 0 4
-602 7 -1337 8 -736 0 -1345 2 -1353 4 -8 1 -27 6 -42 10 l-28 7 0 -16z" />
    <path d="M0 1149 c0 -5 5 -7 10 -4 5 3 10 8 10 11 0 2 -4 4 -10 4 -5 0 -10 -5
-10 -11z" />
    <path d="M36 1145 c-3 -8 -13 -15 -22 -15 -31 0 -4 -14 29 -15 l33 -2 1 20 2
19 -15 -18 -16 -19 6 17 c6 22 -10 33 -18 13z" />
    <path d="M2750 1153 l0 -10 -29 5 -29 4 -6 -11 c-4 -6 -13 -11 -19 -11 l-12 0
12 8 c10 6 -1276 6 -2217 -1 -201 -1 212 -3 918 -5 705 -1 1282 -6 1282 -10 0
-11 40 -13 60 -2 l17 9 10 -10 11 -11 7 22 c4 12 4 24 1 27 -3 4 -6 2 -6 -4z" />
    <path d="M2735 1003 l6 -23 -1373 -2 -1373 -3 1378 -5 c759 -3 1380 -3 1382 0
2 3 -3 16 -11 30 l-15 25 6 -22z" />
  </g>
  <g transform="translate(0.000000,573.000000) scale(0.100000,-0.100000)" fill="#404040" stroke="none">
    <path d="M44 5711 c0 -11 4 -17 8 -15 10 7 10 34 0 34 -4 0 -8 -9 -8 -19z" />
    <path d="M75 5720 c3 -5 8 -10 11 -10 3 0 2 5 -1 10 -3 6 -8 10 -11 10 -3 0
-2 -4 1 -10z" />
    <path d="M2670 5726 c0 -2 8 -10 18 -17 l17 -14 -14 18 c-13 16 -21 21 -21 13z" />
    <path d="M2725 5690 c3 -5 8 -10 11 -10 3 0 2 5 -1 10 -3 6 -8 10 -11 10 -3 0
-2 -4 1 -10z" />
    <path d="M10 5640 c0 -7 3 -10 7 -7 3 4 3 10 0 14 -4 3 -7 0 -7 -7z" />
    <path d="M2714 5638 l-7 -11 11 7 c12 7 16 16 8 16 -3 0 -8 -5 -12 -12z" />
    <path d="M5 4700 c3 -5 8 -10 11 -10 3 0 2 5 -1 10 -3 6 -8 10 -11 10 -3 0 -2
-4 1 -10z" />
    <path d="M2665 4690 c3 -5 8 -10 11 -10 2 0 4 5 4 10 0 6 -5 10 -11 10 -5 0
-7 -4 -4 -10z" />
    <path d="M63 4673 c4 -3 10 -3 14 0 3 4 0 7 -7 7 -7 0 -10 -3 -7 -7z" />
    <path d="M2700 4650 c0 -5 5 -10 10 -10 6 0 10 5 10 10 0 6 -4 10 -10 10 -5 0
-10 -4 -10 -10z" />
    <path d="M36 4455 c4 -8 9 -15 13 -15 4 0 8 7 8 15 0 8 -6 15 -13 15 l-13 0 5
-15z" />
    <path d="M2700 4460 c0 -5 5 -10 11 -10 5 0 7 5 4 10 -3 6 -8 10 -11 10 -2 0
-4 -4 -4 -10z" />
    <path d="M2624 4448 l-7 -11 11 7 c12 7 16 16 8 16 -3 0 -8 -5 -12 -12z" />
    <path d="M6 4402 c-3 -5 1 -9 9 -9 8 0 12 4 9 9 -3 4 -7 8 -9 8 -2 0 -6 -4 -9
-8z" />
    <path d="M2663 4403 c4 -3 10 -3 14 0 3 4 0 7 -7 7 -7 0 -10 -3 -7 -7z" />
    <path d="M2685 3896 l-20 -14 28 5 c15 3 24 9 21 14 -7 12 -7 12 -29 -5z" />
    <path d="M45 3890 c3 -5 22 -10 41 -10 19 0 34 5 34 10 l0 10 -41 0 -40 0 6
-10z" />
    <path d="M2620 3892 c0 -4 9 -8 20 -8 11 0 20 4 20 8 0 4 -9 8 -20 8 -11 0
-20 -4 -20 -8z" />
    <path d="M2685 3840 l-6 -10 15 0 15 0 -2 -187 -2 -188 -19 2 -18 1 9 -9 c5
-5 17 -7 26 -3 l17 6 0 188 0 188 -14 11 -14 12 -7 -11z" />
    <path d="M2605 3501 c-3 -5 -1 -12 5 -16 l10 -6 0 15 c0 18 -6 21 -15 7z" />
    <path d="M2660 3499 c0 -5 5 -7 10 -4 6 3 10 8 10 11 0 2 -4 4 -10 4 -5 0 -10
-5 -10 -11z" />
    <path d="M2640 3465 l-12 -15 10 0 c12 0 26 19 19 26 -2 2 -10 -2 -17 -11z" />
    <path d="M10 3450 l-15 -10 12 0 c6 0 15 5 18 10 8 12 4 12 -15 0z" />
    <path d="M717 3453 c348 -2 918 -2 1265 0 348 1 64 2 -632 2 -696 0 -980 -1
-633 -2z" />
    <path d="M32 3425 c2 -3 590 -5 1306 -5 l1302 0 0 -11 c0 -5 5 -7 10 -4 6 4 8
11 5 16 l-6 9 -1311 0 c-721 0 -1309 -2 -1306 -5z" />
    <path d="M2640 3187 l0 -207 -1302 0 c-716 0 -1304 -2 -1306 -5 -3 -3 586 -4
1309 -3 l1314 3 3 199 2 200 -10 10 -10 10 0 -207z" />
    <path d="M2706 2888 c3 -5 10 -6 15 -3 13 9 11 12 -6 12 -8 0 -12 -4 -9 -9z" />
    <path d="M2735 2730 c-3 -5 -1 -10 4 -10 6 0 11 5 11 10 0 6 -2 10 -4 10 -3 0
-8 -4 -11 -10z" />
    <path d="M27 2633 c-4 -3 -7 -95 -7 -204 l0 -198 10 -6 10 -6 0 205 0 206
1302 0 c716 0 1304 2 1306 5 3 3 -584 5 -1305 5 -720 0 -1313 -3 -1316 -7z" />
    <path d="M28 2204 c-4 -4 -5 -11 -2 -15 l5 -9 1351 0 c743 0 1349 2 1346 5 -2
3 -608 5 -1345 5 l-1341 0 -4 11 c-2 6 -7 7 -10 3z" />
    <path d="M2735 2160 l-6 -10 15 6 c18 7 21 14 7 14 -6 0 -13 -4 -16 -10z" />
    <path d="M0 2150 c0 -7 3 -10 7 -7 3 4 3 10 0 14 -4 3 -7 0 -7 -7z" />
    <path d="M25 2149 c-11 -17 1 -21 15 -4 l12 15 -10 0 c-6 0 -14 -5 -17 -11z" />
    <path d="M717 2153 c359 -2 947 -2 1305 0 359 1 66 2 -652 2 -718 0 -1011 -1
-653 -2z" />
    <path d="M60 2114 l0 -15 10 6 c6 4 8 11 5 16 -9 14 -15 11 -15 -7z" />
    <path d="M5 2110 c-3 -5 -1 -10 4 -10 6 0 11 5 11 10 0 6 -2 10 -4 10 -3 0 -8
-4 -11 -10z" />
    <path d="M20 1718 c0 -4 9 -8 20 -8 11 0 20 4 20 8 0 4 -9 8 -20 8 -11 0 -20
-4 -20 -8z" />
    <path d="M2640 1720 l0 -10 41 0 40 0 -6 10 c-3 6 -22 10 -41 10 -19 0 -34 -4
-34 -10z" />
    <path d="M2736 1208 c3 -5 10 -6 15 -3 13 9 11 12 -6 12 -8 0 -12 -4 -9 -9z" />
    <path d="M3 1203 c4 -3 10 -3 14 0 3 4 0 7 -7 7 -7 0 -10 -3 -7 -7z" />
    <path d="M44 1158 l-7 -11 11 7 c12 7 16 16 8 16 -3 0 -8 -5 -12 -12z" />
    <path d="M2703 1155 c0 -8 6 -15 13 -15 l13 0 -5 15 c-4 8 -9 15 -13 15 -4 0
-8 -7 -8 -15z" />
    <path d="M2683 933 c4 -3 10 -3 14 0 3 4 0 7 -7 7 -7 0 -10 -3 -7 -7z" />
    <path d="M24 88 l-7 -11 11 7 c7 4 12 9 12 12 0 8 -9 4 -16 -8z" />
    <path d="M2730 90 c0 -7 3 -10 7 -7 3 4 3 10 0 14 -4 3 -7 0 -7 -7z" />
    <path d="M2730 50 c0 -7 3 -10 7 -7 3 4 3 10 0 14 -4 3 -7 0 -7 -7z" />
    <path d="M2695 29 c-4 -6 -5 -12 -2 -15 2 -3 7 2 10 11 7 17 1 20 -8 4z" />
    <path d="M44 18 l-7 -13 8 7 c4 4 15 2 24 -5 l16 -12 -14 18 c-7 9 -15 17 -17
17 -1 0 -6 -6 -10 -12z" />
    <path d="M2665 10 c3 -5 8 -10 11 -10 3 0 2 5 -1 10 -3 6 -8 10 -11 10 -3 0
-2 -4 1 -10z" />
  </g>
  <g transform="translate(0.000000,573.000000) scale(0.100000,-0.100000)" fill="#9b9b9b" stroke="none">
    <path d="M100 5689 c-7 -11 -9 -23 -7 -26 3 -2 8 5 12 16 l6 20 436 1 c240 0
439 3 442 5 2 3 -194 5 -437 5 l-441 0 -11 -21z" />
    <path d="M1003 5703 c4 -3 10 -3 14 0 3 4 0 7 -7 7 -7 0 -10 -3 -7 -7z" />
    <path d="M1053 5703 c15 -2 37 -2 50 0 12 2 0 4 -28 4 -27 0 -38 -2 -22 -4z" />
    <path d="M1155 5700 c3 -5 12 -7 20 -3 21 7 19 13 -6 13 l-20 0 6 -10z" />
    <path d="M1273 5703 c9 -2 23 -2 30 0 6 3 -1 5 -18 5 l-30 0 18 -5z" />
    <path d="M1368 5703 c6 -2 18 -2 25 0 6 3 1 5 -13 5 -14 0 -19 -2 -12 -5z" />
    <path d="M1428 5703 c12 -2 30 -2 40 0 9 3 -1 5 -23 4 l-40 0 23 -4z" />
    <path d="M1515 5701 c-3 -5 0 -13 6 -17 l12 -7 -7 11 -7 12 33 0 c19 0 40 -6
47 -12 l14 -13 -7 12 -6 12 27 4 c16 2 -2 5 -39 6 -37 0 -69 -3 -73 -8z" />
    <path d="M1665 5700 c3 -5 8 -10 11 -10 2 0 4 5 4 10 0 6 -5 10 -11 10 -5 0
-7 -4 -4 -10z" />
    <path d="M1692 5705 c7 -7 939 -7 946 0 3 3 -210 5 -473 5 -263 0 -476 -2
-473 -5z" />
    <path d="M61 5684 c-7 -8 -11 -17 -9 -20 3 -2 13 5 23 16 10 11 14 20 9 20 -5
-1 -15 -8 -23 -16z" />
    <path d="M57 4724 c-14 -14 -6 -24 19 -24 l26 0 -4 13 c-5 14 -31 21 -41 11z" />
    <path d="M2595 4720 l-6 -10 16 0 16 0 -6 10 c-3 6 -8 10 -10 10 -2 0 -7 -4
-10 -10z" />
    <path d="M2660 4700 c0 -5 5 -10 10 -10 6 0 10 5 10 10 0 6 -4 10 -10 10 -5 0
-10 -4 -10 -10z" />
    <path d="M2620 4440 c0 -5 5 -10 11 -10 5 0 7 5 4 10 -3 6 -8 10 -11 10 -2 0
-4 -4 -4 -10z" />
    <path d="M2606 3890 l-20 -7 10 -6 c10 -6 42 9 34 16 -3 3 -14 1 -24 -3z" />
    <path d="M50 3880 c0 -5 11 -10 24 -10 14 0 28 5 31 10 l6 10 -30 0 c-17 0
-31 -4 -31 -10z" />
    <path d="M1340 3480 l-1275 -5 1272 -3 1272 -2 6 10 c3 6 5 9 3 8 -2 -2 -577
-5 -1278 -8z" />
    <path d="M67 2133 c-5 -7 897 -7 2153 0 261 1 -115 3 -837 5 -721 1 -1314 -1
-1316 -5z" />
    <path d="M60 1730 c-20 -12 -10 -19 14 -10 l20 7 -10 6 c-6 3 -16 2 -24 -3z" />
    <path d="M2655 1730 l-6 -10 30 0 c17 0 31 5 31 10 0 6 -11 10 -24 10 -14 0
-28 -4 -31 -10z" />
    <path d="M45 1170 c3 -5 8 -10 11 -10 2 0 4 5 4 10 0 6 -5 10 -11 10 -5 0 -7
-4 -4 -10z" />
    <path d="M2645 51 l-6 -20 -436 -1 c-240 0 -439 -3 -442 -5 -2 -3 194 -5 437
-5 l441 0 11 21 c7 11 9 23 7 26 -3 2 -8 -5 -12 -16z" />
    <path d="M2675 50 c-10 -11 -15 -20 -11 -20 11 0 39 30 34 36 -3 2 -13 -5 -23
-16z" />
    <path d="M1144 43 l6 -12 -27 -4 c-16 -2 2 -5 39 -6 64 -1 92 9 67 25 l-12 7
7 -11 7 -12 -33 0 c-19 0 -40 6 -47 13 l-14 12 7 -12z" />
    <path d="M122 28 c-9 -4 199 -7 463 -7 264 1 475 3 469 5 -17 7 -913 9 -932 2z" />
    <path d="M1070 30 c0 -5 5 -10 11 -10 5 0 7 5 4 10 -3 6 -8 10 -11 10 -2 0 -4
-4 -4 -10z" />
    <path d="M1570 30 l-15 -10 23 0 23 0 -6 10 c-7 12 -6 12 -25 0z" />
    <path d="M1288 23 c12 -2 30 -2 40 0 9 3 -1 5 -23 4 l-40 0 23 -4z" />
    <path d="M1358 23 c7 -3 16 -2 19 1 4 3 -2 6 -13 5 l-19 -1 13 -5z" />
    <path d="M1453 23 c9 -2 23 -2 30 0 6 3 -1 5 -18 5 l-30 0 18 -5z" />
    <path d="M1653 23 c15 -2 37 -2 50 0 12 2 0 4 -28 4 -27 0 -38 -2 -22 -4z" />
    <path d="M1733 23 c4 -3 10 -3 14 0 3 4 0 7 -7 7 -7 0 -10 -3 -7 -7z" />
  </g>
  <g transform="translate(0.000000,573.000000) scale(0.100000,-0.100000)" fill="#a8a8a8" stroke="none">
    <path d="M30 4711 c0 -10 30 -24 37 -17 3 3 2 9 -2 15 -8 13 -35 15 -35 2z" />
    <path d="M100 4705 l0 -15 1284 0 1284 0 12 15 12 15 -1296 0 -1296 0 0 -15z" />
    <path d="M515 4443 c1215 -7 2115 -7 2115 0 0 4 -579 6 -1287 5 -709 -2 -1081
-4 -828 -5z" />
    <path d="M66 3890 l-20 -7 12 -7 c7 -4 19 -3 28 2 21 12 5 22 -20 12z" />
    <path d="M2672 1733 c-19 -8 -4 -22 18 -16 11 3 17 9 14 14 -6 10 -12 10 -32
2z" />
    <path d="M50 1168 c0 -5 597 -7 1328 -6 730 2 1113 4 852 5 -1255 7 -2180 7
-2180 1z" />
  </g>
  <g transform="translate(0.000000,573.000000) scale(0.100000,-0.100000)" fill="#383838" stroke="none">
    <path d="M2700 4650 c0 -5 5 -10 11 -10 5 0 7 5 4 10 -3 6 -8 10 -11 10 -2 0
-4 -4 -4 -10z" />
    <path d="M2700 4620 c0 -5 5 -10 11 -10 5 0 7 5 4 10 -3 6 -8 10 -11 10 -2 0
-4 -4 -4 -10z" />
    <path d="M2703 4583 c4 -3 10 -3 14 0 3 4 0 7 -7 7 -7 0 -10 -3 -7 -7z" />
    <path d="M0 4460 c0 -7 3 -10 7 -7 3 4 3 10 0 14 -4 3 -7 0 -7 -7z" />
    <path d="M20 4459 c0 -5 5 -7 10 -4 6 3 10 8 10 11 0 2 -4 4 -10 4 -5 0 -10
-5 -10 -11z" />
    <path d="M2657 4459 c7 -7 15 -10 18 -7 3 3 -2 9 -12 12 l-18 7 12 -12z" />
    <path d="M2695 4460 c-3 -5 -1 -10 4 -10 6 0 11 5 11 10 0 6 -2 10 -4 10 -3 0
-8 -4 -11 -10z" />
    <path d="M2703 4373 c4 -3 10 -3 14 0 3 4 0 7 -7 7 -7 0 -10 -3 -7 -7z" />
    <path d="M2700 4350 c0 -5 5 -10 10 -10 6 0 10 5 10 10 0 6 -4 10 -10 10 -5 0
-10 -4 -10 -10z" />
    <path d="M2703 3923 c4 -3 10 -3 14 0 3 4 0 7 -7 7 -7 0 -10 -3 -7 -7z" />
    <path d="M0 3900 c0 -7 3 -10 7 -7 3 4 3 10 0 14 -4 3 -7 0 -7 -7z" />
    <path d="M20 3898 c0 -6 3 -8 7 -5 3 4 13 1 22 -6 l16 -12 -14 18 c-15 20 -31
22 -31 5z" />
    <path d="M2700 3900 c0 -7 3 -10 7 -7 3 4 3 10 0 14 -4 3 -7 0 -7 -7z" />
    <path d="M85 3890 l6 -10 1264 0 1264 0 6 10 6 10 -1276 0 -1276 0 6 -10z" />
    <path d="M8 3833 c7 -3 16 -2 19 1 4 3 -2 6 -13 5 l-19 -1 13 -5z" />
    <path d="M2688 3833 c7 -3 16 -2 19 1 4 3 -2 6 -13 5 l-19 -1 13 -5z" />
    <path d="M2613 3813 c9 -2 23 -2 30 0 6 3 -1 5 -18 5 l-30 0 18 -5z" />
    <path d="M2628 3793 c7 -3 16 -2 19 1 4 3 -2 6 -13 5 l-19 -1 13 -5z" />
    <path d="M2676 3788 c3 -5 10 -6 15 -3 13 9 11 12 -6 12 -8 0 -12 -4 -9 -9z" />
    <path d="M2605 3523 c2 -10 4 -23 4 -29 1 -7 8 -11 17 -10 9 0 19 -5 21 -11
l5 -13 -29 -1 -28 -2 24 -4 c13 -3 28 1 35 7 l11 11 -30 25 c-16 14 -22 22
-12 18 l17 -6 -1 18 -1 19 -5 -13 -5 -13 -13 11 -13 11 3 -18z" />
    <path d="M2665 3530 c-3 -5 -1 -10 4 -10 6 0 11 5 11 10 0 6 -2 10 -4 10 -3 0
-8 -4 -11 -10z" />
    <path d="M33 3523 c4 -3 10 -3 14 0 3 4 0 7 -7 7 -7 0 -10 -3 -7 -7z" />
    <path d="M78 3513 c6 -2 18 -2 25 0 6 3 1 5 -13 5 -14 0 -19 -2 -12 -5z" />
    <path d="M2664 3498 l-7 -11 11 7 c7 4 12 9 12 12 0 8 -9 4 -16 -8z" />
    <path d="M30 3490 c0 -12 8 -12 35 0 l20 9 -27 0 c-16 1 -28 -3 -28 -9z" />
    <path d="M2671 3464 l1 -19 5 13 c3 7 2 16 -1 19 -3 4 -6 -2 -5 -13z" />
    <path d="M19 3457 c5 -5 26 -7 47 -5 l39 3 -47 5 -47 5 8 -8z" />
    <path d="M2639 3408 c-2 -7 -2 -107 1 -223 l6 -210 2 223 c1 122 0 222 -2 222
-2 0 -5 -6 -7 -12z" />
    <path d="M30 2410 c0 -123 3 -221 6 -218 7 7 5 430 -1 437 -3 2 -5 -96 -5
-219z" />
    <path d="M1 2144 l1 -19 5 13 c3 7 2 16 -1 19 -3 4 -6 -2 -5 -13z" />
    <path d="M24 2148 l-7 -11 29 -24 c16 -13 21 -21 12 -17 l-18 6 1 -18 1 -19 5
13 5 13 13 -11 13 -11 -3 18 c-2 10 -4 23 -4 29 -1 7 -8 11 -17 10 -9 0 -19 4
-21 11 l-4 12 28 4 28 4 -27 2 c-15 0 -30 -4 -34 -11z" />
    <path d="M2665 2155 c23 -8 83 -10 79 -3 -3 4 -24 8 -47 7 -23 0 -37 -2 -32
-4z" />
    <path d="M2695 2120 l-20 -9 28 0 c15 -1 27 4 27 9 0 12 -8 12 -35 0z" />
    <path d="M4 2108 l-7 -11 11 7 c7 4 12 9 12 12 0 8 -9 4 -16 -8z" />
    <path d="M2658 2093 c6 -2 18 -2 25 0 6 3 1 5 -13 5 -14 0 -19 -2 -12 -5z" />
    <path d="M0 2079 c0 -5 5 -7 10 -4 5 3 10 8 10 11 0 2 -4 4 -10 4 -5 0 -10 -5
-10 -11z" />
    <path d="M2713 2083 c4 -3 10 -3 14 0 3 4 0 7 -7 7 -7 0 -10 -3 -7 -7z" />
    <path d="M38 1813 c7 -3 16 -2 19 1 4 3 -2 6 -13 5 l-19 -1 13 -5z" />
    <path d="M43 1793 c9 -2 23 -2 30 0 6 3 -1 5 -18 5 l-30 0 18 -5z" />
    <path d="M2738 1773 c7 -3 16 -2 19 1 4 3 -2 6 -13 5 l-19 -1 13 -5z" />
    <path d="M55 1720 l-6 -10 1316 0 1316 0 -6 10 -6 10 -1304 0 -1304 0 -6 -10z" />
    <path d="M2709 1718 c15 -21 31 -23 31 -6 0 6 -3 8 -7 5 -3 -4 -13 -1 -22 6
l-16 12 14 -17z" />
    <path d="M2750 1710 c0 -7 3 -10 7 -7 3 4 3 10 0 14 -4 3 -7 0 -7 -7z" />
    <path d="M0 1156 c0 -2 7 -7 16 -10 l15 -6 -6 10 c-6 10 -25 14 -25 6z" />
    <path d="M2725 1150 c-3 -5 -1 -10 4 -10 6 0 11 5 11 10 0 6 -2 10 -4 10 -3 0
-8 -4 -11 -10z" />
    <path d="M2750 1150 c0 -7 3 -10 7 -7 3 4 3 10 0 14 -4 3 -7 0 -7 -7z" />
  </g>
  <g transform="translate(0.000000,573.000000) scale(0.100000,-0.100000)" fill="#e8e8e8" stroke="none">
    <path d="M60 2869 l0 -11 -15 6 -15 5 0 -24 0 -24 16 6 16 6 -14 8 -13 9 23 0
22 0 0 15 c0 8 -4 15 -10 15 -5 0 -10 -5 -10 -11z" />
    <path d="M1385 2860 l-1300 -5 1295 -2 c712 0 1306 3 1320 7 l25 8 -20 -1
c-11 -1 -605 -4 -1320 -7z" />
    <path d="M1395 2840 l-1290 -5 1293 0 1294 0 -4 -53 -3 -52 20 1 20 1 -12 5
-13 5 0 39 0 39 13 0 12 0 -14 9 -13 9 13 5 14 5 -20 -1 c-11 -1 -600 -4
-1310 -7z" />
    <path d="M72 2796 l1 -41 6 35 5 35 6 -45 7 -45 1 51 2 51 -15 0 -15 0 2 -41z" />
    <path d="M48 2775 c-2 -25 0 -45 4 -45 5 0 8 20 8 45 0 25 -2 45 -4 45 -2 0
-6 -20 -8 -45z" />
  </g>
  <g transform="translate(0.000000,573.000000) scale(0.100000,-0.100000)" fill="#282828" stroke="none">
    <path d="M24 5708 l-19 -23 25 20 c14 11 27 21 29 22 2 2 0 3 -6 3 -5 0 -18
-10 -29 -22z" />
    <path d="M2750 5650 c0 -7 3 -10 7 -7 3 4 3 10 0 14 -4 3 -7 0 -7 -7z" />
    <path d="M2 4655 c8 -8 2708 -11 2708 -2 0 4 -610 7 -1357 7 -746 0 -1354 -2
-1351 -5z" />
    <path d="M58 4483 c7 -3 16 -2 19 1 4 3 -2 6 -13 5 l-19 -1 13 -5z" />
    <path d="M93 3933 c4 -3 10 -3 14 0 3 4 0 7 -7 7 -7 0 -10 -3 -7 -7z" />
    <path d="M33 3483 c4 -3 10 -3 14 0 3 4 0 7 -7 7 -7 0 -10 -3 -7 -7z" />
    <path d="M2713 2123 c4 -3 10 -3 14 0 3 4 0 7 -7 7 -7 0 -10 -3 -7 -7z" />
    <path d="M2653 1673 c4 -3 10 -3 14 0 3 4 0 7 -7 7 -7 0 -10 -3 -7 -7z" />
    <path d="M2688 1123 c7 -3 16 -2 19 1 4 3 -2 6 -13 5 l-19 -1 13 -5z" />
    <path d="M1370 960 l-1375 -5 1383 -3 1383 -2 -6 10 c-3 6 -7 9 -8 8 -1 -2
-621 -5 -1377 -8z" />
  </g>
  <g transform="translate(0.000000,573.000000) scale(0.100000,-0.100000)" fill="#b2b2b2" stroke="none">
    <path d="M52 4703 c6 -7 23 -13 39 -13 l28 0 -5 13 -5 13 -34 0 -34 0 11 -13z" />
    <path d="M2593 4703 c0 -7 6 -13 12 -13 6 0 12 6 12 13 0 8 -6 14 -12 14 -6 0
-12 -6 -12 -14z" />
    <path d="M2633 4704 c0 -8 6 -14 14 -14 7 0 13 4 13 9 0 5 -6 11 -13 14 l-14
5 0 -14z" />
    <path d="M48 4443 c7 -3 16 -2 19 1 4 3 -2 6 -13 5 l-19 -1 13 -5z" />
    <path d="M723 3883 c351 -2 923 -2 1270 0 348 1 61 2 -638 2 -698 0 -983 -1
-632 -2z" />
    <path d="M713 1723 c362 -2 952 -2 1310 0 359 1 63 2 -658 2 -721 0 -1014 -1
-652 -2z" />
    <path d="M2698 1163 c7 -3 16 -2 19 1 4 3 -2 6 -13 5 l-19 -1 13 -5z" />
  </g>
  <g transform="translate(0.000000,573.000000) scale(0.100000,-0.100000)" fill="#a1a1a1" stroke="none">
    <path d="M1663 5703 c4 -3 10 -3 14 0 3 4 0 7 -7 7 -7 0 -10 -3 -7 -7z" />
    <path d="M53 5673 c4 -3 10 -3 14 0 3 4 0 7 -7 7 -7 0 -10 -3 -7 -7z" />
    <path d="M30 4710 c0 -5 7 -7 15 -4 8 4 15 8 15 10 0 2 -7 4 -15 4 -8 0 -15
-4 -15 -10z" />
    <path d="M92 4715 c6 -7 2500 -7 2506 0 3 3 -561 5 -1253 5 -692 0 -1256 -2
-1253 -5z" />
    <path d="M2618 4713 c7 -3 16 -2 19 1 4 3 -2 6 -13 5 l-19 -1 13 -5z" />
    <path d="M2615 4440 c3 -5 8 -10 11 -10 3 0 2 5 -1 10 -3 6 -8 10 -11 10 -3 0
-2 -4 1 -10z" />
    <path d="M57 3879 c7 -7 15 -10 18 -7 3 3 -2 9 -12 12 l-18 7 12 -12z" />
    <path d="M93 3473 c4 -3 10 -3 14 0 3 4 0 7 -7 7 -7 0 -10 -3 -7 -7z" />
    <path d="M2653 2133 c4 -3 10 -3 14 0 3 4 0 7 -7 7 -7 0 -10 -3 -7 -7z" />
    <path d="M2680 1736 c0 -2 7 -7 16 -10 l15 -6 -6 10 c-6 10 -25 14 -25 6z" />
    <path d="M55 1170 c3 -5 8 -10 11 -10 3 0 2 5 -1 10 -3 6 -8 10 -11 10 -3 0
-2 -4 1 -10z" />
    <path d="M2683 53 c4 -3 10 -3 14 0 3 4 0 7 -7 7 -7 0 -10 -3 -7 -7z" />
    <path d="M1073 23 c4 -3 10 -3 14 0 3 4 0 7 -7 7 -7 0 -10 -3 -7 -7z" />
  </g>
  <g transform="translate(0.000000,573.000000) scale(0.100000,-0.100000)" fill="#b9b9b9" stroke="none">
    <path d="M109 4697 c4 -4 578 -6 1277 -5 l1269 3 -1277 5 c-702 3 -1274 2
-1269 -3z" />
    <path d="M31 2808 c0 -43 2 -78 7 -78 4 0 6 24 4 52 -5 95 -9 104 -11 26z" />
  </g>
  <g transform="translate(0.000000,573.000000) scale(0.100000,-0.100000)" fill="#202020" stroke="none">
    <path d="M10 4620 c0 -7 3 -10 7 -7 3 4 3 10 0 14 -4 3 -7 0 -7 -7z" />
    <path d="M2700 4620 c0 -7 3 -10 7 -7 3 4 3 10 0 14 -4 3 -7 0 -7 -7z" />
    <path d="M20 4478 l0 -18 28 1 27 1 -20 5 c-11 3 -23 10 -27 17 l-8 11 0 -17z" />
    <path d="M43 4483 c4 -3 10 -3 14 0 3 4 0 7 -7 7 -7 0 -10 -3 -7 -7z" />
    <path d="M73 4483 c4 -3 10 -3 14 0 3 4 0 7 -7 7 -7 0 -10 -3 -7 -7z" />
    <path d="M2673 4483 c4 -3 10 -3 14 0 3 4 0 7 -7 7 -7 0 -10 -3 -7 -7z" />
    <path d="M2630 4476 c0 -2 7 -7 16 -10 l15 -6 -6 10 c-6 10 -25 14 -25 6z" />
    <path d="M2693 4393 c4 -3 10 -3 14 0 3 4 0 7 -7 7 -7 0 -10 -3 -7 -7z" />
    <path d="M2642 4382 l43 -4 -20 -9 -20 -9 18 3 c10 1 19 7 20 12 l2 10 -43 1
-42 1 42 -5z" />
    <path d="M10 4350 c0 -7 3 -10 7 -7 3 4 3 10 0 14 -4 3 -7 0 -7 -7z" />
    <path d="M2700 4350 c0 -7 3 -10 7 -7 3 4 3 10 0 14 -4 3 -7 0 -7 -7z" />
    <path d="M2604 3918 l-7 -11 11 7 c7 4 12 9 12 12 0 8 -9 4 -16 -8z" />
    <path d="M2674 3918 l-7 -11 11 7 c7 4 12 9 12 12 0 8 -9 4 -16 -8z" />
    <path d="M78 3913 c7 -3 16 -2 19 1 4 3 -2 6 -13 5 l-19 -1 13 -5z" />
    <path d="M23 3903 c4 -3 10 -3 14 0 3 4 0 7 -7 7 -7 0 -10 -3 -7 -7z" />
    <path d="M2723 1703 c4 -3 10 -3 14 0 3 4 0 7 -7 7 -7 0 -10 -3 -7 -7z" />
    <path d="M64 1688 l-7 -11 11 7 c12 7 16 16 8 16 -3 0 -8 -5 -12 -12z" />
    <path d="M2668 1693 c7 -3 16 -2 19 1 4 3 -2 6 -13 5 l-19 -1 13 -5z" />
    <path d="M2740 1260 c0 -7 3 -10 7 -7 3 4 3 10 0 14 -4 3 -7 0 -7 -7z" />
    <path d="M8 1243 c7 -3 16 -2 19 1 4 3 -2 6 -13 5 l-19 -1 13 -5z" />
    <path d="M18 1223 c12 -2 32 -2 45 0 12 2 2 4 -23 4 -25 0 -35 -2 -22 -4z" />
    <path d="M27 1139 c7 -7 15 -10 18 -7 3 3 -2 9 -12 12 l-18 7 12 -12z" />
    <path d="M2705 1143 c11 -3 23 -10 27 -17 l8 -11 0 18 0 17 -27 -1 -28 -1 20
-5z" />
    <path d="M2673 1123 c4 -3 10 -3 14 0 3 4 0 7 -7 7 -7 0 -10 -3 -7 -7z" />
    <path d="M2703 1123 c4 -3 10 -3 14 0 3 4 0 7 -7 7 -7 0 -10 -3 -7 -7z" />
    <path d="M2740 990 c0 -7 3 -10 7 -7 3 4 3 10 0 14 -4 3 -7 0 -7 -7z" />
  </g>
  <g transform="translate(0.000000,573.000000) scale(0.100000,-0.100000)" fill="#d6d6d6" stroke="none">
    <path d="M33 2733 c4 -3 10 -3 14 0 3 4 0 7 -7 7 -7 0 -10 -3 -7 -7z" />
  </g>
</svg>