<?xml version="1.0" standalone="yes"?>
<svg xmlns="http://www.w3.org/2000/svg" width="2000" height="2000">
<path style="fill:#000000; stroke:none;" d="M0 0L0 2000L2000 2000L2000 0L0 0z"/>
<path style="fill:#ffffff; stroke:none;" d="M966 104.424C955.154 105.848 943.923 105.341 933 106.089C919.322 107.026 905.64 108.705 892 110.166C847.183 114.967 802.392 124.363 759 136.424C547.573 195.196 363.39 332.715 244.692 517C158.122 651.406 111.926 806.938 104.961 966C104.061 986.548 103.137 1007.38 104.039 1028C111.387 1195.8 161.379 1360.45 256.344 1500C328.367 1605.84 421.372 1694.77 530 1762.42C606.412 1810.01 692.274 1847.29 780 1868.12C889.819 1894.19 1002.96 1902.45 1115 1887.72C1221.9 1873.66 1327.03 1841.05 1422 1789.69C1504.63 1745 1580.98 1687.95 1645.96 1620C1799.07 1459.88 1889.56 1244.51 1894.99 1023C1900.83 784.385 1810 550.595 1644.96 378C1604.76 335.954 1559.67 298.035 1512 264.72C1433.91 210.146 1347.19 168.64 1256 141.28C1184.16 119.726 1108.94 106.821 1034 104.985C1011.8 104.442 988.146 101.517 966 104.424z"/>
<path style="fill:#000000; stroke:none;" d="M800.603 596.136C798.02 597.744 799 603.472 799 606L799 636L799 759L799 1269L799 1409L799 1442C799.002 1446.4 798.553 1453.38 805.005 1450.42C810.629 1447.84 815.765 1443.7 821 1440.42C834.716 1431.84 848.285 1423.01 862 1414.42C902.814 1388.87 943.336 1362.84 984 1337.05C1095.64 1266.24 1207.79 1196.19 1319 1124.69C1358.82 1099.09 1398.95 1073.92 1439 1048.68L1467 1030.95C1469.36 1029.45 1475.6 1026.61 1475.08 1023.09C1474.61 1019.92 1469.39 1017.57 1467 1016.05L1443 1000.95C1410.01 980.022 1377.19 958.801 1344 938.192C1272.58 893.843 1202 848.083 1131 803.053C1070.69 764.801 1009.89 727.246 950 688.343C912.933 664.266 875.067 641.421 838 617.343C829.077 611.547 819.952 606.059 811 600.308C808.635 598.789 803.66 594.232 800.603 596.136z"/>
</svg>
