<?xml version="1.0" encoding="UTF-8"?>
<!DOCTYPE svg PUBLIC "-//W3C//DTD SVG 1.1//EN" "http://www.w3.org/Graphics/SVG/1.1/DTD/svg11.dtd">
<svg xmlns="http://www.w3.org/2000/svg" version="1.1" width="84px" height="178px" style="shape-rendering:geometricPrecision; text-rendering:geometricPrecision; image-rendering:optimizeQuality; fill-rule:evenodd; clip-rule:evenodd" xmlns:xlink="http://www.w3.org/1999/xlink">
<g><path style="opacity:1" fill="#f8f8f8" d="M -0.5,-0.5 C 26.1667,-0.5 52.8333,-0.5 79.5,-0.5C 79.5,3.5 79.5,7.5 79.5,11.5C 78.596,12.209 78.2627,13.209 78.5,14.5C 53.5,14.5 28.5,14.5 3.5,14.5C 3.01964,17.6852 3.68631,20.5185 5.5,23C 30.1644,23.5 54.8311,23.6666 79.5,23.5C 53.4473,25.178 27.1139,26.178 0.5,26.5C 0.166667,26.5 -0.166667,26.5 -0.5,26.5C -0.5,17.5 -0.5,8.5 -0.5,-0.5 Z"/></g>
<g><path style="opacity:1" fill="#f3f3f3" d="M 79.5,11.5 C 79.5,15.5 79.5,19.5 79.5,23.5C 54.8311,23.6666 30.1644,23.5 5.5,23C 3.68631,20.5185 3.01964,17.6852 3.5,14.5C 28.5,14.5 53.5,14.5 78.5,14.5C 78.2627,13.209 78.596,12.209 79.5,11.5 Z"/></g>
<g><path style="opacity:1" fill="#dadada" d="M 79.5,-0.5 C 80.8333,-0.5 82.1667,-0.5 83.5,-0.5C 83.5,1.16667 83.5,2.83333 83.5,4.5C 83.1667,4.5 82.8333,4.5 82.5,4.5C 82.762,3.02218 82.4287,1.68884 81.5,0.5C 80.502,9.14112 80.1686,17.8078 80.5,26.5C 54.4979,26.3334 28.4979,26.5 2.5,27C 1.565,29.3806 1.23166,31.8806 1.5,34.5C 0.526933,32.0521 0.1936,29.3854 0.5,26.5C 27.1139,26.178 53.4473,25.178 79.5,23.5C 79.5,19.5 79.5,15.5 79.5,11.5C 79.5,7.5 79.5,3.5 79.5,-0.5 Z"/></g>
<g><path style="opacity:1" fill="#909090" d="M 82.5,4.5 C 82.8333,4.5 83.1667,4.5 83.5,4.5C 83.5,61.8333 83.5,119.167 83.5,176.5C 82.5,176.5 81.5,176.5 80.5,176.5C 80.5,174.5 80.5,172.5 80.5,170.5C 80.5,167.833 80.5,165.167 80.5,162.5C 80.5,159.833 80.5,157.167 80.5,154.5C 80.5,154.167 80.5,153.833 80.5,153.5C 80.5,149.833 80.5,146.167 80.5,142.5C 81.3171,144.969 81.8171,147.635 82,150.5C 82.5,130.836 82.6666,111.169 82.5,91.5C 82.5,89.1667 82.5,86.8333 82.5,84.5C 83.1514,68.1317 82.4848,52.1317 80.5,36.5C 80.5,35.8333 80.5,35.1667 80.5,34.5C 82.4743,24.8893 83.141,14.8893 82.5,4.5 Z"/></g>
<g><path style="opacity:1" fill="#aaaaaa" d="M 80.5,26.5 C 80.5,28.1667 80.5,29.8333 80.5,31.5C 54.4915,31.1669 28.4915,31.5002 2.5,32.5C 28.6635,33.1667 54.6635,33.8333 80.5,34.5C 80.1667,34.5 79.8333,34.5 79.5,34.5C 53.5,34.5 27.5,34.5 1.5,34.5C 1.23166,31.8806 1.565,29.3806 2.5,27C 28.4979,26.5 54.4979,26.3334 80.5,26.5 Z"/></g>
<g><path style="opacity:1" fill="#828282" d="M 82.5,4.5 C 83.141,14.8893 82.4743,24.8893 80.5,34.5C 54.6635,33.8333 28.6635,33.1667 2.5,32.5C 28.4915,31.5002 54.4915,31.1669 80.5,31.5C 80.5,29.8333 80.5,28.1667 80.5,26.5C 80.1686,17.8078 80.502,9.14112 81.5,0.5C 82.4287,1.68884 82.762,3.02218 82.5,4.5 Z"/></g>
<g><path style="opacity:1" fill="#ededed" d="M -0.5,26.5 C -0.166667,26.5 0.166667,26.5 0.5,26.5C 0.1936,29.3854 0.526933,32.0521 1.5,34.5C 27.5,34.5 53.5,34.5 79.5,34.5C 53.672,35.4978 27.672,35.8311 1.5,35.5C 1.5,40.8333 1.5,46.1667 1.5,51.5C 27.1667,51.5 52.8333,51.5 78.5,51.5C 53.1667,52.1667 27.8333,52.8333 2.5,53.5C 1.51283,58.3054 1.17949,63.3054 1.5,68.5C 27.1667,69.1667 52.8333,69.8333 78.5,70.5C 52.8333,70.5 27.1667,70.5 1.5,70.5C 1.64635,75.3777 1.64635,80.0444 1.5,84.5C 0.833333,84.5 0.166667,84.5 -0.5,84.5C -0.5,65.1667 -0.5,45.8333 -0.5,26.5 Z"/></g>
<g><path style="opacity:1" fill="#b4b4b4" d="M 79.5,34.5 C 79.8333,34.5 80.1667,34.5 80.5,34.5C 80.5,35.1667 80.5,35.8333 80.5,36.5C 79.7611,36.369 79.0944,36.5357 78.5,37C 79.4558,40.3936 79.7892,43.8936 79.5,47.5C 53.6612,47.1689 27.9946,47.5022 2.5,48.5C 28.1452,50.491 54.1452,51.1576 80.5,50.5C 80.5,55.5 80.5,60.5 80.5,65.5C 54.5,65.5 28.5,65.5 2.5,65.5C 27.9946,64.5022 53.6612,64.1689 79.5,64.5C 79.5,60.8333 79.5,57.1667 79.5,53.5C 79.6716,52.5084 79.3382,51.8417 78.5,51.5C 52.8333,51.5 27.1667,51.5 1.5,51.5C 1.5,46.1667 1.5,40.8333 1.5,35.5C 27.672,35.8311 53.672,35.4978 79.5,34.5 Z"/></g>
<g><path style="opacity:1" fill="#9c9c9c" d="M 80.5,36.5 C 80.5,40.5 80.5,44.5 80.5,48.5C 54.5,48.5 28.5,48.5 2.5,48.5C 27.9946,47.5022 53.6612,47.1689 79.5,47.5C 79.7892,43.8936 79.4558,40.3936 78.5,37C 79.0944,36.5357 79.7611,36.369 80.5,36.5 Z"/></g>
<g><path style="opacity:1" fill="#7c7c7c" d="M 2.5,48.5 C 28.5,48.5 54.5,48.5 80.5,48.5C 81.8333,49.1667 81.8333,49.8333 80.5,50.5C 54.1452,51.1576 28.1452,50.491 2.5,48.5 Z"/></g>
<g><path style="opacity:1" fill="#d4d4d4" d="M 78.5,51.5 C 79.3382,51.8417 79.6716,52.5084 79.5,53.5C 53.8333,53.5 28.1667,53.5 2.5,53.5C 27.8333,52.8333 53.1667,52.1667 78.5,51.5 Z"/></g>
<g><path style="opacity:1" fill="#bdbdbd" d="M 2.5,53.5 C 28.1667,53.5 53.8333,53.5 79.5,53.5C 79.5,57.1667 79.5,60.8333 79.5,64.5C 53.6612,64.1689 27.9946,64.5022 2.5,65.5C 28.1452,67.491 54.1452,68.1576 80.5,67.5C 80.5,73.1667 80.5,78.8333 80.5,84.5C 80.1667,84.5 79.8333,84.5 79.5,84.5C 79.5,79.8333 79.5,75.1667 79.5,70.5C 53.8548,68.509 27.8548,67.8424 1.5,68.5C 1.17949,63.3054 1.51283,58.3054 2.5,53.5 Z"/></g>
<g><path style="opacity:1" fill="#858585" d="M 80.5,36.5 C 82.4848,52.1317 83.1514,68.1317 82.5,84.5C 81.8333,84.5 81.1667,84.5 80.5,84.5C 80.5,78.8333 80.5,73.1667 80.5,67.5C 54.1452,68.1576 28.1452,67.491 2.5,65.5C 28.5,65.5 54.5,65.5 80.5,65.5C 80.5,60.5 80.5,55.5 80.5,50.5C 81.8333,49.8333 81.8333,49.1667 80.5,48.5C 80.5,44.5 80.5,40.5 80.5,36.5 Z"/></g>
<g><path style="opacity:1" fill="#e2e2e2" d="M 1.5,68.5 C 27.8548,67.8424 53.8548,68.509 79.5,70.5C 79.1667,70.5 78.8333,70.5 78.5,70.5C 52.8333,69.8333 27.1667,69.1667 1.5,68.5 Z"/></g>
<g><path style="opacity:1" fill="#cbcbcb" d="M 78.5,70.5 C 78.8333,70.5 79.1667,70.5 79.5,70.5C 79.5,75.1667 79.5,79.8333 79.5,84.5C 53.5,84.5 27.5,84.5 1.5,84.5C 1.64635,80.0444 1.64635,75.3777 1.5,70.5C 27.1667,70.5 52.8333,70.5 78.5,70.5 Z"/></g>
<g><path style="opacity:1" fill="#7e7e7e" d="M 1.5,84.5 C 27.5,84.5 53.5,84.5 79.5,84.5C 79.5,84.8333 79.5,85.1667 79.5,85.5C 53.8333,85.5 28.1667,85.5 2.5,85.5C 2.5,87.5 2.5,89.5 2.5,91.5C 1.83333,91.5 1.16667,91.5 0.5,91.5C 0.298032,89.0504 0.631365,86.717 1.5,84.5 Z"/></g>
<g><path style="opacity:1" fill="#c0c0c0" d="M -0.5,84.5 C 0.166667,84.5 0.833333,84.5 1.5,84.5C 0.631365,86.717 0.298032,89.0504 0.5,91.5C 0.166667,91.5 -0.166667,91.5 -0.5,91.5C -0.5,89.1667 -0.5,86.8333 -0.5,84.5 Z"/></g>
<g><path style="opacity:1" fill="#4f4f4f" d="M 79.5,85.5 C 79.5,85.1667 79.5,84.8333 79.5,84.5C 79.8333,84.5 80.1667,84.5 80.5,84.5C 81.1667,84.5 81.8333,84.5 82.5,84.5C 82.5,86.8333 82.5,89.1667 82.5,91.5C 82.1667,91.5 81.8333,91.5 81.5,91.5C 81.9746,88.9179 81.3079,86.9179 79.5,85.5 Z"/></g>
<g><path style="opacity:1" fill="#4c4c4c" d="M 79.5,85.5 C 79.3253,87.6208 79.6586,89.6208 80.5,91.5C 80.1667,91.5 79.8333,91.5 79.5,91.5C 53.8333,91.5 28.1667,91.5 2.5,91.5C 2.5,89.5 2.5,87.5 2.5,85.5C 28.1667,85.5 53.8333,85.5 79.5,85.5 Z"/></g>
<g><path style="opacity:1" fill="#252525" d="M 79.5,85.5 C 81.3079,86.9179 81.9746,88.9179 81.5,91.5C 81.1667,91.5 80.8333,91.5 80.5,91.5C 79.6586,89.6208 79.3253,87.6208 79.5,85.5 Z"/></g>
<g><path style="opacity:1" fill="#c6c6c6" d="M 2.5,91.5 C 28.1667,91.5 53.8333,91.5 79.5,91.5C 79.5,92.1667 79.5,92.8333 79.5,93.5C 53.7355,92.8421 28.0689,92.1754 2.5,91.5 Z"/></g>
<g><path style="opacity:1" fill="#dbdbdb" d="M 0.5,91.5 C 1.16667,91.5 1.83333,91.5 2.5,91.5C 28.0689,92.1754 53.7355,92.8421 79.5,93.5C 79.5,97.5 79.5,101.5 79.5,105.5C 53.6612,105.169 27.9946,105.502 2.5,106.5C 1.16667,107.167 1.16667,107.833 2.5,108.5C 2.5,108.833 2.5,109.167 2.5,109.5C 1.41383,109.38 0.74716,108.713 0.5,107.5C 1.78967,102.117 1.78967,96.7833 0.5,91.5 Z"/></g>
<g><path style="opacity:1" fill="#a7a7a7" d="M 79.5,91.5 C 79.8333,91.5 80.1667,91.5 80.5,91.5C 80.5,96.5 80.5,101.5 80.5,106.5C 54.5,106.5 28.5,106.5 2.5,106.5C 27.9946,105.502 53.6612,105.169 79.5,105.5C 79.5,101.5 79.5,97.5 79.5,93.5C 79.5,92.8333 79.5,92.1667 79.5,91.5 Z"/></g>
<g><path style="opacity:1" fill="#8a8a8a" d="M 80.5,91.5 C 80.8333,91.5 81.1667,91.5 81.5,91.5C 81.8333,91.5 82.1667,91.5 82.5,91.5C 82.6666,111.169 82.5,130.836 82,150.5C 81.8171,147.635 81.3171,144.969 80.5,142.5C 80.1667,142.5 79.8333,142.5 79.5,142.5C 53.328,142.831 27.328,142.498 1.5,141.5C 27.8333,141.5 54.1667,141.5 80.5,141.5C 80.5,136.167 80.5,130.833 80.5,125.5C 54.8333,125.5 29.1667,125.5 3.5,125.5C 28.8333,124.833 54.1667,124.167 79.5,123.5C 80.8333,118.5 80.8333,113.5 79.5,108.5C 53.8333,107.833 28.1667,107.167 2.5,106.5C 28.5,106.5 54.5,106.5 80.5,106.5C 80.5,101.5 80.5,96.5 80.5,91.5 Z"/></g>
<g><path style="opacity:1" fill="#9e9e9e" d="M 2.5,106.5 C 28.1667,107.167 53.8333,107.833 79.5,108.5C 53.8333,108.5 28.1667,108.5 2.5,108.5C 1.16667,107.833 1.16667,107.167 2.5,106.5 Z"/></g>
<g><path style="opacity:1" fill="#c8c8c8" d="M 2.5,109.5 C 2.5,109.167 2.5,108.833 2.5,108.5C 28.1667,108.5 53.8333,108.5 79.5,108.5C 80.8333,113.5 80.8333,118.5 79.5,123.5C 79.8195,118.637 79.4861,113.97 78.5,109.5C 53.1667,109.5 27.8333,109.5 2.5,109.5 Z"/></g>
<g><path style="opacity:1" fill="#e7e7e7" d="M 78.5,109.5 C 79.4861,113.97 79.8195,118.637 79.5,123.5C 53.5,123.5 27.5,123.5 1.5,123.5C 1.32088,119.78 1.65422,115.946 2.5,112C 28.1865,112.16 53.5198,111.326 78.5,109.5 Z"/></g>
<g><path style="opacity:1" fill="#9f9f9f" d="M 1.5,123.5 C 27.5,123.5 53.5,123.5 79.5,123.5C 54.1667,124.167 28.8333,124.833 3.5,125.5C 2.83333,125.5 2.16667,125.5 1.5,125.5C 1.5,124.833 1.5,124.167 1.5,123.5 Z"/></g>
<g><path style="opacity:1" fill="#f5f5f5" d="M -0.5,91.5 C -0.166667,91.5 0.166667,91.5 0.5,91.5C 1.78967,96.7833 1.78967,102.117 0.5,107.5C 0.74716,108.713 1.41383,109.38 2.5,109.5C 27.8333,109.5 53.1667,109.5 78.5,109.5C 53.5198,111.326 28.1865,112.16 2.5,112C 1.65422,115.946 1.32088,119.78 1.5,123.5C 1.5,124.167 1.5,124.833 1.5,125.5C 27.328,126.498 53.328,126.831 79.5,126.5C 79.5,131.167 79.5,135.833 79.5,140.5C 53.328,140.169 27.328,140.502 1.5,141.5C 27.328,142.498 53.328,142.831 79.5,142.5C 79.5,143.167 79.5,143.833 79.5,144.5C 52.8333,143.833 26.1667,143.167 -0.5,142.5C -0.5,125.5 -0.5,108.5 -0.5,91.5 Z"/></g>
<g><path style="opacity:1" fill="#c4c4c4" d="M 1.5,125.5 C 2.16667,125.5 2.83333,125.5 3.5,125.5C 29.1667,125.5 54.8333,125.5 80.5,125.5C 80.5,130.833 80.5,136.167 80.5,141.5C 54.1667,141.5 27.8333,141.5 1.5,141.5C 27.328,140.502 53.328,140.169 79.5,140.5C 79.5,135.833 79.5,131.167 79.5,126.5C 53.328,126.831 27.328,126.498 1.5,125.5 Z"/></g>
<g><path style="opacity:1" fill="#fcfcfc" d="M -0.5,142.5 C 26.1667,143.167 52.8333,143.833 79.5,144.5C 79.5,147.167 79.5,149.833 79.5,152.5C 53.328,152.169 27.328,152.502 1.5,153.5C 0.187095,161.401 0.187095,169.401 1.5,177.5C 0.833333,177.5 0.166667,177.5 -0.5,177.5C -0.5,165.833 -0.5,154.167 -0.5,142.5 Z"/></g>
<g><path style="opacity:1" fill="#cfcfcf" d="M 79.5,142.5 C 79.8333,142.5 80.1667,142.5 80.5,142.5C 80.5,146.167 80.5,149.833 80.5,153.5C 54.1667,153.5 27.8333,153.5 1.5,153.5C 27.328,152.502 53.328,152.169 79.5,152.5C 79.5,149.833 79.5,147.167 79.5,144.5C 79.5,143.833 79.5,143.167 79.5,142.5 Z"/></g>
<g><path style="opacity:1" fill="#979797" d="M 80.5,154.5 C 80.5,157.167 80.5,159.833 80.5,162.5C 79.7109,162.217 79.0442,161.717 78.5,161C 53.1431,160.204 27.8098,160.371 2.5,161.5C 2.5,159.167 2.5,156.833 2.5,154.5C 28.5,154.5 54.5,154.5 80.5,154.5 Z"/></g>
<g><path style="opacity:1" fill="#a1a1a1" d="M 80.5,162.5 C 80.5,165.167 80.5,167.833 80.5,170.5C 79.8333,170.5 79.5,170.167 79.5,169.5C 79.67,168.178 79.3366,167.011 78.5,166C 53.3182,165.197 28.4849,165.364 4,166.5C 2.73082,165.095 2.23082,163.429 2.5,161.5C 27.8098,160.371 53.1431,160.204 78.5,161C 79.0442,161.717 79.7109,162.217 80.5,162.5 Z"/></g>
<g><path style="opacity:1" fill="#ababab" d="M 1.5,153.5 C 27.8333,153.5 54.1667,153.5 80.5,153.5C 80.5,153.833 80.5,154.167 80.5,154.5C 54.5,154.5 28.5,154.5 2.5,154.5C 2.5,156.833 2.5,159.167 2.5,161.5C 2.23082,163.429 2.73082,165.095 4,166.5C 28.4849,165.364 53.3182,165.197 78.5,166C 79.3366,167.011 79.67,168.178 79.5,169.5C 54.6666,168.838 29.8333,168.171 5,167.5C 4.32924,168.252 3.4959,168.586 2.5,168.5C 1.51283,163.695 1.17949,158.695 1.5,153.5 Z"/></g>
<g><path style="opacity:1" fill="#b6b6b6" d="M 79.5,169.5 C 79.5,170.167 79.8333,170.5 80.5,170.5C 80.5,172.5 80.5,174.5 80.5,176.5C 81.5,176.5 82.5,176.5 83.5,176.5C 83.5,176.833 83.5,177.167 83.5,177.5C 82.1667,177.5 80.8333,177.5 79.5,177.5C 79.5,175.833 79.5,174.167 79.5,172.5C 53.8333,172.5 28.1667,172.5 2.5,172.5C 2.5,171.167 2.5,169.833 2.5,168.5C 3.4959,168.586 4.32924,168.252 5,167.5C 29.8333,168.171 54.6666,168.838 79.5,169.5 Z"/></g>
<g><path style="opacity:1" fill="#c3c3c3" d="M 1.5,153.5 C 1.17949,158.695 1.51283,163.695 2.5,168.5C 2.5,169.833 2.5,171.167 2.5,172.5C 28.1667,172.5 53.8333,172.5 79.5,172.5C 79.5,174.167 79.5,175.833 79.5,177.5C 53.5,177.5 27.5,177.5 1.5,177.5C 0.187095,169.401 0.187095,161.401 1.5,153.5 Z"/></g>
</svg>
